<?xml version="1.0" encoding="UTF-8" standalone="no"?><svg xmlns:rdf="http://www.w3.org/1999/02/22-rdf-syntax-ns#" xmlns="http://www.w3.org/2000/svg" height="253.65877" width="230.67255" version="1.1" xmlns:cc="http://creativecommons.org/ns#" xmlns:dc="http://purl.org/dc/elements/1.1/" viewBox="0 0 230.67255 253.65877"><defs><style>.cls-1{fill:#ede1c6;}.cls-2{fill:#791026;}.cls-3{fill:#035130;}.cls-4{fill:#b95b27;}.cls-5{fill:#4a3291;}.cls-6{fill:#010101;}</style></defs><title>Arizona Coyotes logo (2021)</title><path class="cls-1" d="M224.21809,240.0881l-.01868-11.94833-27.46236-14.64214-4.70487-12.99528-17.39784-21.965,4.762-4.189,3.6194,2.12075,10.15555-9.12144,3.21205,28.89447,11.59234-28.36107,19.00854,33.35773L221.79969,154.084l-22.10621-24.37051-10.90254,8.83781-.796-.66879-1.14615-18.92566L135.97765,97.08172l-5.00132-4.12128L152.618,95.017,128.93844,77.39273,130.192,76.145l-2.68215-44.01983L101.69322,62.77158l-2.22463-.01167L100.512,39.113,78.34047,0l3.29959,36.20446-2.97862,5.15539L49.91521,25.20037,71.43082,53.35019,61.61725,69.85631l-5.56973,47.17-24.723,16.638L47.8073,161.24225l-40.93266,29.422,17.797,25.4L4.68152,228.01956l-.01517,12.24711L0,253.23978l88.22991.05369,24.69966-21.16313,8.38845.80184L136.217,220.63137l-1.44379-7.24814,6.81161-6.04711,21.26467,23.12515.03852,13.70141,3.74078,9.4319,64.04381.06419Zm-134.06-14.32235-20.56671-.05136L57.119,202.19474,70.3045,194.202l24.53742,15.57822-3.00312,5.44718,3.97071,5.65027Zm47.54818-76.81965-6.109-10.74147,9.51944,1.83247Zm8.80631-7.99277,13.3886,2.13826-12.62528,5.54872Zm10.28394,28.305-7.89006-2.34134,14.40638-20.21072,1.32358,16.03576Z"/><polygon class="cls-2" points="93.898 61.299 94.858 40.379 86.28 25.315 87.365 36.717 93.898 61.299"/><path class="cls-2" d="M90.35182,161.48619l37.96805.00233.02685-30.87866.02684-31.37237-15.542-1.131,9.188,12.99994-21.27518-4.90678L74.783,134.7358,57.54151,126.366l.39684-3.81665L38.89828,135.35791l3.05566,4.96631,42.36478,3.89135ZM89.899,130.60986a16.628,16.628,0,0,1,14.39238-8.32076c.49137,0,.97575.02569,1.45663.0677.11554-.00233.22876-.007.34548-.007v.03851A16.642,16.642,0,1,1,89.899,130.60986Z"/><polygon class="cls-2" points="155.146 139.308 162.278 140.53 179.827 122.051 163.495 115.027 155.146 139.308"/><polygon class="cls-2" points="138.191 136.389 144.21 106.735 131.551 101.286 131.542 135.214 138.191 136.389"/><polygon class="cls-2" points="71.636 190.208 92.787 177.983 87.23 162.073 54.894 162.109 43.835 143.541 43.812 143.539 71.636 190.208"/><polygon class="cls-2" points="113.715 184.527 128.266 184.496 128.283 184.496 128.29 181.739 128.267 181.739 113.738 181.739 113.715 184.527"/><polygon class="cls-2" points="113.715 190.042 128.264 190.011 128.283 190.011 128.29 187.257 128.265 187.257 113.738 187.255 113.715 190.042"/><polygon class="cls-2" points="197.834 154.951 198.705 163.912 203.199 164.645 205.46 159.119 205.59 150.138 210.49 160.606 212.897 165.11 217.392 163.377 216.543 156.265 207.411 146.758 197.834 154.951"/><path class="cls-2" d="M98.52318,91.92634a3.68243,3.68243,0,1,0-3.68009-3.68126A3.68311,3.68311,0,0,0,98.52318,91.92634Z"/><polygon class="cls-2" points="77.885 228.694 77.891 228.674 65.74 228.692 59.459 247.688 71.742 247.705 77.885 228.694"/><polygon class="cls-3" points="186.429 202.603 168.677 180.211 144.076 201.762 152.137 210.552 186.429 202.603"/><polygon class="cls-3" points="131.246 164.864 131.223 190.752 154.182 171.557 131.246 164.864"/><polygon class="cls-3" points="53.831 200.569 68.863 191.358 52.872 164.482 14.525 192.06 22.13 202.817 53.831 200.569"/><polygon class="cls-3" points="212.871 165.11 218.793 175.862 217.405 163.39 212.871 165.11"/><polygon class="cls-3" points="198.678 163.899 199.67 173.17 203.217 164.648 203.199 164.645 198.678 163.899"/><polygon class="cls-3" points="92.201 35.713 86.28 25.315 87.365 36.731 92.201 35.713"/><polygon class="cls-3" points="77.815 47.703 69.301 42.296 76.151 50.499 77.815 47.703"/><polygon class="cls-4" points="218.588 240.634 218.588 231.513 192.143 217.451 187.808 205.395 154.27 213.02 168.334 228.246 168.334 240.652 218.588 240.634"/><polygon class="cls-4" points="165.497 141.407 167.504 161.515 182.277 169.612 194.817 158.408 194.055 150.577 182.666 140.7 181.484 124.724 165.497 141.407"/><polygon class="cls-4" points="145.6 165.949 159.885 146.272 144.883 152.751 143.52 142.363 137.95 155.292 131.315 143.633 131.352 161.723 145.6 165.949"/><polygon class="cls-4" points="103.255 214.004 117.25 202.35 93.556 181.018 73.457 192.647 98.74 208.744 95.247 214.877 105.708 230.89 109.327 227.664 103.255 214.004"/><polygon class="cls-4" points="123.589 208.155 109.22 219.664 112.149 226.412 119.368 227.161 130.05 218.38 128.644 211.983 123.589 208.155"/><polygon class="cls-4" points="66.135 225.738 54.41 203.498 24.083 205.695 32.746 217.78 10.426 231.092 10.431 240.781 37.009 240.76 42.106 225.681 66.135 225.738"/><path class="cls-4" d="M86.79779,76.89668,88.775,83.79349,72.67736,120.86865l1.66556,9.74121L99.6495,102.86038l.01634-.0175,15.36,3.49567-8.28574-11.72422,19.08556,1.459L113.114,85.60494l19.97612,1.92933L120.389,78.03817l4.03491-4.11077-1.627-27.37015-18.48331,21.9428-8.434-.29529Zm11.7324,4.54846a6.77543,6.77543,0,1,1-6.77309,6.77543A6.77818,6.77818,0,0,1,98.53019,81.44514Z"/><polygon class="cls-5" points="155.027 130.61 152.344 138.838 155.23 139.34 158.204 130.61 163.512 114.99 160.528 113.706 155.027 130.61"/><polygon class="cls-5" points="138.191 136.389 141.078 136.903 147.185 107.981 144.218 106.696 138.191 136.389"/><polygon class="cls-5" points="86.318 159.463 53.298 159.431 54.894 162.109 87.23 162.073 87.301 162.073 86.394 159.427 86.381 159.427 86.394 159.463 86.318 159.463"/><polygon class="cls-5" points="128.067 164.464 115.812 164.462 121.9 172.78 128.067 164.464"/><polygon class="cls-5" points="95.006 107.976 95.014 107.998 99.685 102.846 99.653 102.842 93.216 101.882 95.006 107.976"/><polygon class="cls-5" points="87.723 106.992 89.362 114.217 89.366 114.231 94.959 108.062 94.935 108.059 87.723 106.992"/><polygon class="cls-5" points="80.688 113.372 82.165 122.029 72.677 120.869 72.673 120.869 72.674 120.877 73.082 123.258 74.351 130.657 89.315 114.296 89.3 114.294 80.688 113.372"/><path class="cls-5" d="M108.6869,147.43c6.56183,0,9.49143-3.10583,9.50776-10.06684a13.97653,13.97653,0,0,0-2.6518-6.75325,13.937,13.937,0,0,0-9.89527-5.61993c-4.4901.12138-7.48506,2.07523-8.74561,5.61993a12.98739,12.98739,0,0,0-.677,4.35705A12.47447,12.47447,0,0,0,108.6869,147.43Z"/><polygon class="cls-5" points="103.578 164.475 109.643 172.843 115.812 164.462 103.716 164.419 103.578 164.475 103.429 164.406 91.274 164.461 97.406 172.815 103.578 164.475"/><polygon class="cls-5" points="174.033 220.121 165.019 210.565 161.611 211.343 170.559 220.942 174.033 220.121"/><polygon class="cls-5" points="180.795 218.576 171.789 209.027 168.378 209.801 177.325 219.398 180.795 218.576"/><polygon class="cls-5" points="187.625 217.022 178.588 207.479 175.226 208.244 184.151 217.843 187.625 217.022"/><polygon class="cls-5" points="80.622 228.603 77.868 228.621 71.723 247.74 74.412 247.74 80.622 228.603"/><polygon class="cls-5" points="59.458 247.693 62.613 238.17 53.057 241.608 59.458 247.693"/><polygon class="cls-5" points="56.132 232.098 62.613 238.17 65.74 228.692 56.132 232.098"/><polygon class="cls-5" points="40.948 215.651 33.341 204.997 29.88 205.248 37.397 215.984 40.948 215.651"/><polygon class="cls-5" points="47.968 215.128 40.4 204.486 36.909 204.738 44.414 215.462 47.968 215.128"/><polygon class="cls-5" points="55.088 214.606 47.524 203.97 44.034 204.222 51.538 214.94 55.088 214.606"/><polygon class="cls-5" points="120.423 57.141 110.553 68.693 121.064 68.874 120.423 57.141"/><path class="cls-6" d="M221.62,240.674l-.01518-10.97607-26.971-14.37955-4.89862-13.53918L171.06864,178.214l8.02312-7.05321,3.60306,2.11024,12.49456-11.22817,2.64715,23.78927,9.75637-23.86748,15.44283,27.1017-3.72561-33.86545-19.89325-21.92879-10.66678,8.64406-3.28326-2.77086-1.11231-18.43778L134.61088,99.318l-11.8246-9.7482,20.82932,1.983L124.96542,77.66935l2.55961-2.5386-2.213-36.37487-22.419,26.61733-6.137-.03268,1.131-25.59838L82.01356,11.74407l2.28532,25.04514L79.62436,44.8777,59.63191,33.64019,74.56118,53.17162,64.13135,70.70835l-5.64561,47.8038L34.81436,134.44286l16.44543,27.51371-40.78794,29.317,17.92657,25.58555L7.27264,229.49136l-.01517,11.23051-3.56571,9.92561,83.57873.05137L112.081,229.44351l8.4153.80417,12.87622-10.62941-1.43679-7.18744,9.83575-8.72694,23.66438,25.74193.042,14.215,2.91093,7.34034,58.1776.05836Zm-14.20913-93.91635,9.13195,9.50894,2.2433,19.47308-.0607-.03386-8.23555-15.09852L205.59121,150.139l-.12955,8.9802-5.79033,14.05157-1.836-18.21835Zm-8.31958-9.33736,6.33191,6.954-6.849,5.94089-7.55041-6.34707Zm-17.60677-12.69648L182.66565,140.7l11.39042,9.87543.76216,7.83172-12.54008,11.20367-14.77287-8.09666-2.00754-20.108ZM131.5506,101.28587,179.8271,122.051l-17.54957,18.47746-30.73393-5.31412Zm33.08578,61.4562-7.83988,6.5163-7.89006-2.34134,14.40638-20.21072Zm-4.73522-19.65048-12.62528,5.54872-.76333-7.687Zm-18.78443-3.05449-3.41047,8.909-6.109-10.74147Zm-3.16654,15.2549,5.56857-12.92874,1.36326,10.38781,15.00163-6.48013-14.285,19.67732-14.24648-4.22633-.03852-18.08881Zm-6.70422,9.572,22.93606,6.69255-22.9594,19.19528ZM104.31351,68.50006l18.48331-21.944,1.627,27.37015L120.38894,78.037l12.70114,9.4961L113.114,85.60378l12.71165,10.46836-19.08557-1.459,8.28574,11.72423-15.36-3.49568-25.32292,27.767-1.67139-9.72953.00117-.0035-.00117-.00817.00467.00116L88.7738,83.7935l-1.97719-6.89681,9.08175-8.69075ZM94.85826,40.37942l-.96057,20.91919L87.365,36.71567,86.27956,25.31358Zm-25.55752,1.9165,8.51334,5.4075L76.14969,50.5ZM67.04226,71.69811,85.41819,40.85329l7.05088,26.47026L82.9648,76.00146l2.28532,7.603L69.41863,119.68864l-8.6394,4.75973ZM41.95277,140.32305l-3.05565-4.96631,19.04005-12.80852-.39684,3.81664,17.24144,8.36977,25.96137-28.53614,21.27517,4.90679-9.188-12.99995,15.542,1.131-.02685,31.37237-.02685,30.87865L90.35064,161.485l-6.0331-17.27179Zm86.30991,52.92183-8.63939,7.18977L96.3896,179.51545,91.28439,164.4928l-.01517-.01984h.00817l-.0035-.01166,37.00048.00233ZM43.81207,143.53861v-.03619l38.14779,3.484L92.78654,177.983l-21.1503,12.22377Zm51.99627,77.34021-5.65027,4.88693-20.56671-.05136L57.119,202.19474,70.3045,194.202l24.53742,15.57822-3.00312,5.44718Zm-73.67879-18.062L14.5266,192.0602l38.34621-27.5779,15.9914,26.87526-15.032,9.21131Zm12.68481,44.80067L8.15969,247.593l1.3901-3.85749,26.41773.02335ZM10.431,240.78141l-.0035-9.68868,22.3198-13.31159-8.66274-12.08489,30.32658-2.19662,11.7254,22.23927-24.0297-.05719-5.097,15.07984Zm75.7727,6.90613H37.95405l6.312-18.98986,46.98094-.00584,6.04244-5.13905,6.20935,9.37237Zm19.50459-16.79791-10.46135-16.0124,3.49335-6.13349L73.457,192.6473l20.09867-11.62969L117.25044,202.35l-13.99553,11.6542,6.07162,13.65939Zm13.65938-3.7291-7.21894-.74816-2.9296-6.74858,14.369-11.5083,5.055,3.82716,1.40527,6.39726ZM130.4768,209.6588l-6.933-5.35031-15.6424,12.56459-.92907-2.0729,15.18489-12.53308,44.78315-37.63658,9.21948,5.07252Zm21.66035.89288-8.06047-8.79,24.60161-21.54946,17.75149,22.39216ZM168.334,240.65184V228.246l-14.0644-15.22691L187.807,205.394l4.336,12.05454,26.44457,14.06207V240.632Zm.21359,3.02765,51.44188-.00933,2.06472,4.322h-51.6893Z"/><path class="cls-6" d="M104.29017,155.54412a16.62758,16.62758,0,0,0,1.8021-33.1558v-.03851c-.11672,0-.22993.00466-.34548.007-.48088-.042-.96525-.0677-1.45663-.0677a16.62751,16.62751,0,0,0,0,33.255Zm-7.39052-24.93426c1.26054-3.54353,4.25667-5.49854,8.7456-5.61993a14.01385,14.01385,0,0,1,12.24945,10.67378,13.82142,13.82142,0,0,1,.29762,1.6994c-.01634,6.961-2.94594,10.06684-9.50777,10.06684a12.478,12.478,0,0,1-12.46422-12.463A13.03988,13.03988,0,0,1,96.89965,130.60986Zm-3.86333,0a14.11651,14.11651,0,0,1,1.88264-2.07523,12.40158,12.40158,0,0,0-.77034,2.07523,16.32448,16.32448,0,0,0-.55557,4.35705,15.1098,15.1098,0,0,0,15.09268,15.095,16.08612,16.08612,0,0,0,4.88577-.68629,13.98389,13.98389,0,0,1-20.53518-18.76578Z"/><polygon class="cls-6" points="80.832 80.58 71.426 77.434 70.105 80.93 79.369 83.952 80.832 80.58"/><polygon class="cls-6" points="82.783 50.945 73.145 67.203 78.616 67.203 82.783 50.945"/><path class="cls-6" d="M68.23861,114.76553a1.34283,1.34283,0,1,0,1.34108,1.34224A1.34,1.34,0,0,0,68.23861,114.76553Z"/><path class="cls-6" d="M68.87005,113.0206a1.34342,1.34342,0,1,0-1.34808-1.34225A1.34294,1.34294,0,0,0,68.87005,113.0206Z"/><path class="cls-6" d="M69.50266,108.58886a1.34283,1.34283,0,1,0-1.34458-1.34341A1.34169,1.34169,0,0,0,69.50266,108.58886Z"/><path class="cls-6" d="M64.471,116.7182a1.34342,1.34342,0,1,0,1.34458,1.34224A1.34443,1.34443,0,0,0,64.471,116.7182Z"/><path class="cls-6" d="M65.1071,112.28762a1.34225,1.34225,0,1,0,1.34107,1.34342A1.34543,1.34543,0,0,0,65.1071,112.28762Z"/><path class="cls-6" d="M65.735,107.85587a1.344,1.344,0,1,0,1.34458,1.34341A1.34169,1.34169,0,0,0,65.735,107.85587Z"/><path class="cls-6" d="M91.7571,88.2194A6.77717,6.77717,0,1,0,98.53019,81.444,6.77494,6.77494,0,0,0,91.7571,88.2194Zm6.76608-3.65792a3.68243,3.68243,0,1,1-3.68009,3.68359A3.68361,3.68361,0,0,1,98.52318,84.56148Z"/></svg>