<svg xmlns="http://www.w3.org/2000/svg" viewBox="0 0 200 200" width="200" height="200">
	<style>
		tspan { white-space:pre }
		.shp0 { fill: #ffb81c } 
		.shp1 { fill: #003087 } 
		.shp2 { fill: #ffffff } 
		.shp3 { fill: #c8102e } 
	</style>
	<g >
		<path class="shp0" d="M95.35 0.08C94.73 0.12 93.63 0.2 92.9 0.25C92.17 0.3 90.86 0.42 89.99 0.51C89.12 0.6 87.83 0.75 87.13 0.84C86.42 0.93 85.13 1.11 84.26 1.25C83.39 1.39 81.65 1.71 80.4 1.95C79.14 2.2 77.01 2.68 75.66 3.02C74.32 3.36 72.8 3.76 72.3 3.9C71.8 4.05 70.51 4.45 69.44 4.79C68.36 5.13 66.83 5.65 66.03 5.94C65.23 6.22 63.81 6.77 62.87 7.14C61.94 7.52 60.44 8.14 59.55 8.54C58.66 8.93 56.83 9.8 55.48 10.47C54.13 11.14 52.27 12.12 51.33 12.64C50.39 13.17 49.29 13.8 48.88 14.04C48.47 14.28 47.57 14.84 46.89 15.27C46.2 15.7 45.04 16.46 44.31 16.94C43.58 17.43 42.7 18.03 42.36 18.27C42.02 18.51 41.18 19.13 40.49 19.63C39.8 20.14 38.53 21.12 37.67 21.8C36.8 22.49 35.34 23.71 34.43 24.51C33.51 25.31 32.41 26.3 31.98 26.7C31.54 27.1 30.5 28.11 29.66 28.94C28.83 29.76 27.55 31.08 26.83 31.85C26.11 32.63 24.91 33.97 24.15 34.84C23.4 35.71 22.28 37.06 21.67 37.83C21.05 38.61 20.13 39.8 19.63 40.49C19.13 41.18 18.4 42.18 18.01 42.73C17.63 43.28 16.9 44.36 16.39 45.14C15.89 45.92 15.19 47 14.85 47.55C14.51 48.1 14.09 48.79 13.92 49.09C13.74 49.38 13.17 50.39 12.64 51.33C12.12 52.27 11.14 54.13 10.47 55.48C9.8 56.83 8.93 58.66 8.54 59.55C8.14 60.44 7.52 61.94 7.14 62.87C6.77 63.81 6.22 65.23 5.94 66.03C5.65 66.83 5.11 68.44 4.74 69.6C4.37 70.77 3.88 72.39 3.65 73.21C3.43 74.04 3.04 75.55 2.79 76.58C2.54 77.61 2.16 79.33 1.95 80.4C1.74 81.47 1.47 82.91 1.36 83.6C1.25 84.28 1.08 85.33 1 85.92C0.91 86.52 0.74 87.84 0.63 88.87C0.51 89.9 0.36 91.43 0.3 92.28C0.23 93.12 0.13 94.67 0.08 95.72C0.01 96.96 -0.01 98.85 0.03 101.08C0.05 102.98 0.11 105.12 0.16 105.86C0.21 106.59 0.33 108.01 0.42 109.01C0.51 110.02 0.7 111.72 0.84 112.79C0.97 113.86 1.2 115.43 1.34 116.28C1.48 117.12 1.77 118.73 2 119.85C2.22 120.97 2.63 122.8 2.91 123.92C3.19 125.04 3.6 126.61 3.83 127.41C4.06 128.21 4.49 129.63 4.79 130.56C5.09 131.5 5.63 133.09 5.99 134.09C6.36 135.1 7.05 136.88 7.53 138.04C8.02 139.2 8.67 140.74 9 141.45C9.32 142.15 10.06 143.69 10.64 144.85C11.22 146.02 12.11 147.7 12.61 148.59C13.1 149.48 13.95 150.94 14.5 151.83C15.04 152.72 15.91 154.1 16.43 154.9C16.95 155.7 17.83 156.99 18.38 157.77C18.93 158.54 19.74 159.64 20.17 160.22C20.61 160.79 21.4 161.8 21.92 162.46C22.45 163.12 23.31 164.17 23.83 164.78C24.36 165.4 25.29 166.47 25.91 167.15C26.52 167.84 28.02 169.39 29.23 170.6C30.44 171.81 32.14 173.44 33.01 174.21C33.87 174.99 35.16 176.11 35.87 176.7C36.59 177.3 37.67 178.18 38.29 178.66C38.91 179.15 40.08 180.04 40.91 180.65C41.73 181.25 43.43 182.43 44.68 183.26C45.94 184.1 47.62 185.17 48.42 185.65C49.22 186.13 50.66 186.96 51.62 187.49C52.58 188.03 54.28 188.92 55.4 189.48C56.52 190.04 58.18 190.83 59.09 191.23C60.01 191.63 61.39 192.22 62.17 192.54C62.94 192.86 64.03 193.29 64.58 193.5C65.12 193.7 66.36 194.14 67.32 194.48C68.28 194.81 69.68 195.27 70.43 195.5C71.19 195.73 72.33 196.07 72.97 196.25C73.6 196.43 74.95 196.79 75.96 197.04C76.96 197.29 78.4 197.63 79.15 197.79C79.91 197.95 81.25 198.21 82.14 198.37C83.03 198.54 84.55 198.78 85.51 198.92C86.47 199.05 87.92 199.24 88.75 199.33C89.57 199.42 90.91 199.55 91.74 199.62C92.56 199.69 94 199.79 94.93 199.85C95.87 199.91 98.11 199.95 99.92 199.95C101.72 199.95 104.06 199.91 105.11 199.85C106.16 199.79 107.78 199.67 108.72 199.58C109.66 199.49 110.91 199.36 111.5 199.29C112.1 199.22 113.26 199.07 114.08 198.96C114.9 198.84 116.13 198.66 116.82 198.54C117.5 198.43 118.91 198.16 119.93 197.96C120.96 197.75 122.89 197.31 124.21 196.97C125.54 196.64 127.46 196.11 128.49 195.81C129.52 195.5 130.92 195.07 131.6 194.84C132.29 194.6 133.54 194.16 134.39 193.85C135.23 193.55 136.61 193.01 137.46 192.67C138.3 192.33 139.74 191.72 140.66 191.31C141.57 190.91 143.35 190.07 144.6 189.45C145.86 188.82 147.54 187.95 148.34 187.5C149.14 187.05 150.54 186.24 151.45 185.69C152.37 185.14 153.69 184.32 154.4 183.86C155.11 183.4 156.25 182.64 156.94 182.16C157.62 181.68 158.84 180.8 159.63 180.21C160.43 179.61 161.61 178.71 162.25 178.21C162.89 177.71 163.79 176.97 164.24 176.59C164.7 176.2 165.64 175.39 166.32 174.79C167.01 174.19 168.26 173.02 169.1 172.2C169.95 171.38 171.31 170.02 172.13 169.18C172.95 168.34 174.03 167.18 174.54 166.61C175.05 166.04 175.87 165.09 176.38 164.49C176.88 163.9 177.7 162.89 178.21 162.25C178.71 161.61 179.61 160.43 180.21 159.63C180.8 158.84 181.68 157.62 182.16 156.94C182.64 156.25 183.4 155.11 183.86 154.4C184.32 153.69 185.14 152.37 185.69 151.45C186.24 150.54 187.05 149.14 187.5 148.34C187.95 147.54 188.82 145.86 189.45 144.6C190.07 143.35 190.91 141.57 191.31 140.66C191.72 139.74 192.33 138.3 192.67 137.46C193.01 136.61 193.55 135.23 193.85 134.39C194.16 133.54 194.6 132.29 194.84 131.6C195.07 130.92 195.5 129.52 195.81 128.49C196.11 127.46 196.63 125.54 196.97 124.21C197.31 122.89 197.75 120.96 197.96 119.93C198.16 118.91 198.43 117.5 198.54 116.82C198.66 116.13 198.84 114.9 198.96 114.08C199.07 113.26 199.22 112.1 199.29 111.5C199.36 110.91 199.49 109.66 199.58 108.72C199.67 107.78 199.79 106.16 199.85 105.11C199.91 104.06 199.95 101.72 199.95 99.92C199.95 98.11 199.91 95.87 199.85 94.93C199.79 94 199.69 92.56 199.62 91.74C199.55 90.91 199.42 89.57 199.33 88.75C199.24 87.92 199.05 86.47 198.92 85.51C198.78 84.55 198.54 83.03 198.37 82.14C198.21 81.25 197.95 79.91 197.79 79.15C197.63 78.4 197.29 76.96 197.04 75.96C196.79 74.95 196.43 73.6 196.25 72.97C196.07 72.33 195.73 71.19 195.5 70.43C195.27 69.68 194.81 68.28 194.48 67.32C194.14 66.36 193.7 65.12 193.5 64.58C193.29 64.03 192.86 62.94 192.54 62.17C192.22 61.39 191.63 60.01 191.23 59.09C190.83 58.18 190.04 56.52 189.48 55.4C188.92 54.28 188.03 52.58 187.49 51.62C186.96 50.66 186.13 49.22 185.65 48.42C185.17 47.62 184.1 45.94 183.26 44.68C182.43 43.43 181.25 41.73 180.65 40.91C180.04 40.08 179.15 38.91 178.66 38.29C178.18 37.67 177.3 36.59 176.7 35.87C176.11 35.16 174.99 33.87 174.21 33.01C173.44 32.14 171.81 30.44 170.6 29.23C169.39 28.02 167.84 26.52 167.15 25.91C166.47 25.29 165.4 24.36 164.78 23.83C164.17 23.31 163.12 22.45 162.46 21.92C161.8 21.4 160.79 20.61 160.22 20.17C159.64 19.74 158.54 18.93 157.77 18.38C156.99 17.83 155.7 16.95 154.9 16.43C154.1 15.91 152.72 15.04 151.83 14.5C150.94 13.95 149.48 13.1 148.59 12.61C147.7 12.11 146.02 11.22 144.85 10.64C143.69 10.06 142.15 9.32 141.45 9C140.74 8.67 139.2 8.02 138.04 7.53C136.88 7.05 135.1 6.36 134.09 5.99C133.09 5.63 131.5 5.09 130.56 4.79C129.63 4.49 128.21 4.06 127.41 3.83C126.61 3.6 125.04 3.19 123.92 2.91C122.8 2.63 120.97 2.22 119.85 2C118.73 1.77 117.12 1.48 116.28 1.34C115.43 1.2 113.86 0.97 112.79 0.84C111.72 0.7 110.02 0.51 109.01 0.42C108.01 0.33 106.59 0.21 105.86 0.16C105.12 0.11 102.71 0.06 100.5 0.04C98.28 0.03 95.97 0.05 95.35 0.08Z" />
		<path class="shp1" d="M96.55 5.9C95.73 5.93 94.39 6 93.56 6.06C92.74 6.11 91.17 6.25 90.07 6.36C88.98 6.48 87.33 6.68 86.42 6.82C85.51 6.95 84.03 7.2 83.14 7.36C82.25 7.52 80.83 7.8 79.98 7.98C79.14 8.16 77.7 8.5 76.79 8.73C75.87 8.97 74.26 9.41 73.21 9.72C72.16 10.04 70.54 10.55 69.6 10.87C68.66 11.18 67.3 11.67 66.57 11.94C65.84 12.22 64.53 12.74 63.66 13.1C62.79 13.47 61.37 14.09 60.51 14.49C59.64 14.89 58.27 15.55 57.48 15.95C56.68 16.35 55.22 17.12 54.24 17.67C53.25 18.22 51.85 19.03 51.12 19.48C50.39 19.92 49.16 20.7 48.38 21.21C47.6 21.71 46.33 22.57 45.56 23.12C44.78 23.67 43.51 24.61 42.73 25.2C41.96 25.79 40.65 26.84 39.83 27.53C39 28.21 37.68 29.35 36.88 30.06C36.08 30.77 34.53 32.25 33.43 33.35C32.33 34.44 30.78 36.07 29.98 36.96C29.18 37.85 28 39.22 27.36 39.99C26.72 40.77 25.71 42.04 25.12 42.82C24.52 43.59 23.61 44.83 23.09 45.56C22.57 46.29 21.69 47.58 21.14 48.42C20.59 49.27 19.72 50.65 19.21 51.5C18.71 52.34 17.93 53.68 17.49 54.46C17.05 55.25 16.31 56.67 15.83 57.62C15.36 58.57 14.66 60.02 14.29 60.84C13.91 61.66 13.31 63.04 12.96 63.91C12.6 64.78 12.07 66.11 11.79 66.86C11.51 67.61 11 69.03 10.67 70.02C10.33 71 9.85 72.49 9.6 73.34C9.35 74.18 8.94 75.7 8.69 76.7C8.44 77.71 8.08 79.22 7.89 80.07C7.7 80.91 7.42 82.31 7.26 83.18C7.1 84.05 6.86 85.54 6.73 86.5C6.59 87.46 6.4 88.96 6.31 89.83C6.22 90.69 6.07 92.36 5.98 93.52C5.89 94.69 5.8 96.93 5.77 98.5C5.73 100.29 5.75 102.17 5.81 103.49C5.86 104.65 5.96 106.32 6.03 107.18C6.1 108.05 6.23 109.47 6.32 110.34C6.41 111.21 6.6 112.7 6.74 113.66C6.88 114.62 7.14 116.19 7.32 117.15C7.5 118.11 7.84 119.74 8.07 120.76C8.3 121.79 8.71 123.46 8.98 124.46C9.25 125.47 9.7 127.02 9.98 127.91C10.26 128.8 10.74 130.26 11.05 131.15C11.36 132.04 11.89 133.48 12.23 134.34C12.58 135.21 13.21 136.74 13.65 137.75C14.08 138.75 14.76 140.25 15.17 141.07C15.57 141.89 16.28 143.3 16.76 144.19C17.24 145.08 18 146.46 18.46 147.26C18.92 148.06 19.67 149.31 20.12 150.04C20.58 150.77 21.42 152.06 22 152.91C22.57 153.75 23.53 155.1 24.12 155.9C24.71 156.7 25.72 158 26.36 158.8C27 159.6 27.99 160.8 28.56 161.46C29.13 162.12 30.2 163.32 30.94 164.12C31.68 164.92 33.18 166.45 34.27 167.52C35.36 168.59 36.93 170.04 37.75 170.75C38.57 171.46 39.84 172.54 40.57 173.14C41.3 173.74 42.56 174.71 43.36 175.31C44.15 175.9 45.43 176.81 46.18 177.34C46.93 177.87 48.22 178.73 49.04 179.25C49.87 179.78 51.16 180.57 51.91 181.02C52.66 181.46 54.08 182.27 55.07 182.81C56.05 183.34 57.41 184.06 58.1 184.41C58.78 184.75 60.07 185.36 60.96 185.76C61.85 186.16 63.26 186.76 64.08 187.1C64.9 187.44 66.41 188.03 67.44 188.41C68.47 188.79 70 189.32 70.85 189.6C71.69 189.88 73.04 190.29 73.84 190.52C74.64 190.75 76.13 191.15 77.16 191.4C78.19 191.66 79.83 192.04 80.81 192.24C81.8 192.44 83.38 192.73 84.34 192.89C85.3 193.05 86.82 193.28 87.71 193.39C88.6 193.51 90.11 193.68 91.07 193.77C92.03 193.86 93.74 193.99 94.87 194.06C96 194.13 98.19 194.19 99.73 194.19C101.27 194.19 103.56 194.13 104.82 194.06C106.07 194 107.72 193.88 108.47 193.81C109.23 193.74 110.33 193.63 110.92 193.56C111.52 193.49 112.54 193.36 113.21 193.26C113.87 193.17 115.25 192.95 116.28 192.76C117.31 192.58 118.76 192.3 119.52 192.14C120.27 191.98 121.79 191.63 122.88 191.35C123.98 191.08 125.51 190.67 126.29 190.44C127.06 190.21 128.45 189.78 129.36 189.48C130.27 189.18 131.66 188.7 132.43 188.41C133.21 188.12 134.41 187.67 135.09 187.39C135.78 187.12 136.77 186.71 137.29 186.48C137.82 186.25 138.83 185.79 139.53 185.46C140.24 185.13 141.38 184.58 142.07 184.24C142.75 183.9 143.84 183.33 144.48 182.99C145.12 182.65 146.26 182.01 147.01 181.58C147.76 181.14 149.03 180.38 149.83 179.88C150.63 179.37 151.94 178.52 152.74 177.99C153.54 177.46 155.24 176.23 156.52 175.27C157.8 174.31 159.42 173.04 160.13 172.45C160.84 171.86 161.96 170.89 162.62 170.3C163.29 169.72 165.05 168.02 166.53 166.53C168.02 165.05 169.74 163.25 170.36 162.54C170.97 161.83 171.89 160.77 172.39 160.17C172.89 159.57 173.73 158.52 174.26 157.84C174.79 157.16 175.61 156.08 176.08 155.44C176.54 154.8 177.36 153.62 177.9 152.82C178.44 152.02 179.29 150.72 179.79 149.92C180.29 149.12 180.98 147.98 181.33 147.38C181.67 146.79 182.32 145.63 182.77 144.81C183.21 143.99 183.96 142.55 184.42 141.61C184.88 140.67 185.52 139.33 185.83 138.62C186.14 137.91 186.63 136.77 186.92 136.09C187.2 135.4 187.73 134.08 188.08 133.14C188.43 132.2 188.98 130.67 189.29 129.73C189.6 128.8 190.1 127.19 190.39 126.16C190.69 125.13 191.14 123.45 191.39 122.43C191.65 121.4 192.06 119.53 192.31 118.27C192.56 117.02 192.9 115.09 193.06 114C193.22 112.9 193.42 111.31 193.51 110.47C193.61 109.62 193.74 108.26 193.81 107.43C193.88 106.61 193.98 104.99 194.03 103.82C194.09 102.54 194.1 100.55 194.07 98.8C194.05 97.2 193.98 95.22 193.94 94.39C193.89 93.57 193.78 92.11 193.68 91.15C193.59 90.2 193.42 88.68 193.31 87.79C193.19 86.9 192.97 85.4 192.81 84.47C192.64 83.53 192.33 81.89 192.11 80.81C191.89 79.74 191.52 78.1 191.28 77.16C191.05 76.22 190.65 74.75 190.4 73.88C190.14 73.01 189.7 71.57 189.41 70.68C189.12 69.79 188.65 68.41 188.35 67.61C188.05 66.81 187.51 65.41 187.14 64.49C186.78 63.58 186.14 62.1 185.73 61.21C185.32 60.32 184.59 58.79 184.1 57.81C183.6 56.83 182.86 55.4 182.45 54.65C182.04 53.9 181.29 52.59 180.79 51.74C180.29 50.9 179.18 49.16 178.33 47.88C177.48 46.6 176.24 44.83 175.58 43.94C174.91 43.05 173.89 41.72 173.3 40.99C172.71 40.26 171.74 39.1 171.15 38.41C170.55 37.73 169.67 36.74 169.19 36.21C168.71 35.69 167.77 34.7 167.11 34.02C166.45 33.34 165.14 32.07 164.2 31.19C163.27 30.32 161.96 29.14 161.3 28.57C160.63 28.01 159.47 27.05 158.72 26.45C157.97 25.85 156.7 24.87 155.9 24.28C155.1 23.69 153.79 22.75 152.99 22.21C152.19 21.67 150.98 20.87 150.29 20.44C149.61 20.02 148.3 19.23 147.38 18.69C146.47 18.15 145.11 17.38 144.35 16.98C143.6 16.58 142.16 15.85 141.15 15.36C140.15 14.88 138.6 14.16 137.71 13.76C136.82 13.37 135.36 12.77 134.47 12.42C133.58 12.06 132.03 11.49 131.02 11.13C130.02 10.78 128.45 10.26 127.53 9.98C126.62 9.7 125.11 9.27 124.17 9.02C123.23 8.78 121.64 8.39 120.64 8.16C119.63 7.93 118.1 7.6 117.23 7.44C116.37 7.28 114.91 7.04 114 6.9C113.08 6.76 111.51 6.55 110.51 6.44C109.5 6.33 107.95 6.18 107.06 6.11C106.17 6.04 104.47 5.94 103.28 5.9C102.09 5.85 100.43 5.82 99.58 5.83C98.74 5.83 97.38 5.87 96.55 5.9Z" />
		<path class="shp2" d="M108.54 15.13C108.55 15.17 108.64 15.25 108.74 15.31C108.84 15.37 109.41 15.63 110.01 15.88C110.6 16.14 111.76 16.61 112.58 16.93C113.41 17.25 114.68 17.74 115.41 18.01C116.14 18.29 117.67 18.85 118.81 19.27C119.95 19.69 122.37 20.55 124.17 21.19C125.97 21.83 129.62 23.08 132.27 23.97C134.92 24.86 138.3 25.96 139.78 26.42C141.27 26.88 143.23 27.45 144.14 27.7C145.06 27.95 146.25 28.26 146.8 28.37C147.35 28.49 148.1 28.59 148.48 28.6C148.85 28.61 149.19 28.58 149.22 28.55C149.26 28.51 149.22 28.38 149.12 28.26C149.02 28.13 148.53 27.82 147.96 27.53C147.41 27.26 146.2 26.73 145.27 26.36C144.33 25.98 142.65 25.35 141.53 24.96C140.41 24.56 138.05 23.75 136.3 23.17C134.54 22.58 131.55 21.62 129.65 21.02C127.76 20.43 124.88 19.55 123.26 19.06C121.63 18.58 119.22 17.87 117.9 17.48C116.57 17.1 114.59 16.55 113.5 16.25C112.4 15.95 111.02 15.59 110.42 15.44C109.83 15.3 109.16 15.15 108.93 15.12C108.71 15.09 108.53 15.09 108.54 15.13ZM83.06 16.07C82.49 16.14 81.64 16.25 81.19 16.32C80.73 16.39 79.76 16.58 79.03 16.75C78.3 16.91 77.18 17.21 76.54 17.42C75.9 17.62 74.91 17.98 74.34 18.2C73.76 18.42 72.64 18.93 71.84 19.34C71.04 19.74 69.82 20.42 69.12 20.85C68.42 21.28 67.29 22.05 66.62 22.55C65.95 23.05 64.89 23.9 64.28 24.43C63.67 24.96 62.49 26.08 61.67 26.92C60.84 27.76 59.85 28.82 59.46 29.28C59.07 29.73 58.41 30.54 58 31.06C57.59 31.59 56.92 32.49 56.52 33.06C56.11 33.63 55.59 34.36 55.35 34.68C55.12 35 54.8 35.38 54.64 35.53C54.49 35.68 54.17 35.9 53.95 36C53.71 36.12 52.68 36.39 51.58 36.62C50.5 36.85 48.93 37.23 48.09 37.45C47.24 37.68 46.05 38.04 45.43 38.25C44.82 38.46 43.79 38.88 43.15 39.17C42.51 39.46 41.59 39.93 41.11 40.2C40.63 40.48 39.9 40.95 39.49 41.26C39.08 41.57 38.39 42.17 37.95 42.61C37.52 43.04 36.92 43.73 36.62 44.14C36.33 44.56 35.88 45.3 35.63 45.81C35.37 46.31 35.03 47.15 34.86 47.67C34.69 48.2 34.48 49 34.39 49.46C34.3 49.92 34.18 50.74 34.13 51.29C34.07 51.93 34.05 52.91 34.08 54.03C34.11 55.01 34.2 56.34 34.3 57.08C34.39 57.8 34.56 58.83 34.67 59.36C34.79 59.9 34.98 60.66 35.09 61.05C35.21 61.43 35.43 62.01 35.58 62.33C35.73 62.65 36.03 63.14 36.23 63.41C36.44 63.69 36.85 64.13 37.14 64.4C37.43 64.67 37.95 65.1 38.29 65.36C38.63 65.62 39.4 66.16 39.99 66.56C40.59 66.97 41.24 67.43 41.44 67.6C41.75 67.85 41.91 68.11 42.44 69.23C42.79 69.96 43.34 70.95 43.66 71.43C43.99 71.92 44.64 72.71 45.15 73.25C45.65 73.76 46.32 74.38 46.64 74.62C46.96 74.86 47.61 75.29 48.09 75.59C48.57 75.88 49.2 76.35 49.49 76.62C49.78 76.89 50.36 77.55 50.77 78.07C51.18 78.6 51.67 79.19 51.86 79.39C52.05 79.59 52.36 79.86 52.55 79.99C52.75 80.12 53.14 80.29 53.43 80.37C53.77 80.45 54.07 80.48 54.32 80.44C54.52 80.41 54.9 80.29 55.15 80.18C55.52 80.01 55.89 79.69 57.18 78.37C58.68 76.85 58.8 76.74 59.47 76.43C59.86 76.24 60.46 76.03 60.82 75.96C61.17 75.89 61.68 75.83 61.94 75.83C62.2 75.83 62.5 75.85 62.6 75.87C62.78 75.91 62.76 75.95 62.32 76.43C62.06 76.72 61.65 77.19 61.42 77.49C61.18 77.79 60.8 78.33 60.58 78.7C60.35 79.06 60.12 79.55 60.06 79.78C59.97 80.09 59.97 80.24 60.04 80.38C60.11 80.52 60.21 80.56 60.42 80.56C60.58 80.56 61.13 80.47 61.65 80.35C62.24 80.21 62.85 80.12 63.29 80.12C63.68 80.11 64.54 80.2 65.2 80.3C65.87 80.41 66.79 80.5 67.28 80.5C67.76 80.51 68.37 80.46 68.65 80.41C68.92 80.35 69.39 80.23 69.68 80.13C69.98 80.04 70.54 79.8 70.93 79.61C71.32 79.41 71.91 79.06 72.24 78.83C72.57 78.6 73.11 78.15 73.43 77.84C73.93 77.37 74 77.28 73.87 77.23C73.78 77.2 73.47 77.14 73.17 77.08C72.86 77.03 72.3 76.82 71.84 76.6C71.2 76.28 70.93 76.09 70.38 75.54C69.86 75.02 69.64 74.73 69.37 74.17C69.18 73.78 68.96 73.24 68.89 72.97C68.82 72.69 68.76 72.17 68.76 71.8C68.76 71.44 68.8 70.95 68.85 70.72C68.91 70.49 69.05 70.1 69.17 69.85C69.29 69.6 69.62 69.17 69.89 68.89C70.26 68.51 70.52 68.34 70.89 68.2C71.16 68.1 71.61 67.99 71.89 67.97C72.16 67.94 72.59 67.96 72.84 68.01C73.09 68.06 73.52 68.22 73.8 68.35C74.07 68.49 74.51 68.78 74.77 69C75.03 69.21 75.41 69.62 75.63 69.89C75.84 70.17 76.18 70.73 76.38 71.14C76.58 71.55 76.84 72.26 76.96 72.72C77.15 73.43 77.18 73.73 77.19 74.83C77.2 75.8 77.16 76.3 77.05 76.83C76.96 77.22 76.8 77.83 76.69 78.2C76.57 78.56 76.31 79.22 76.11 79.65C75.9 80.09 75.54 80.74 75.29 81.1C75.05 81.47 74.55 82.11 74.19 82.52L73.52 83.26C73.77 83.81 74 84.13 74.19 84.33C74.38 84.52 74.75 84.8 75 84.94C75.25 85.09 75.76 85.29 76.12 85.38C76.49 85.47 77.25 85.61 77.82 85.67C78.39 85.74 79.16 85.84 79.53 85.89C79.89 85.93 80.47 86.05 80.81 86.13C81.16 86.22 81.72 86.4 82.06 86.55C82.4 86.69 82.93 86.94 83.22 87.1C83.52 87.27 84.04 87.59 84.39 87.82C84.73 88.05 85.25 88.42 85.55 88.64L86.09 89.06C87.76 88.78 88.58 88.67 89 88.62C89.41 88.58 90.31 88.54 91.01 88.54L92.28 88.54C92.28 88.18 92.22 87.75 92.15 87.33C92.08 86.92 91.89 86.21 91.74 85.76C91.59 85.3 91.33 84.64 91.15 84.3C90.98 83.96 90.65 83.38 90.41 83.01C90.17 82.65 89.73 82.06 89.42 81.71C89.12 81.35 88.78 81.01 88.66 80.94C88.47 80.83 88.41 80.83 88 80.98C87.75 81.07 87.25 81.29 86.9 81.47C86.54 81.65 86.14 81.88 86 81.97C85.87 82.07 85.69 82.14 85.61 82.14C85.53 82.14 85.2 81.97 84.88 81.75C84.57 81.53 84.15 81.17 83.96 80.94C83.77 80.71 83.51 80.3 83.38 80.02C83.25 79.75 83.1 79.28 83.05 78.99C82.97 78.55 82.97 78.34 83.06 77.91C83.12 77.61 83.28 77.14 83.41 76.87C83.55 76.59 83.77 76.2 83.91 76C84.05 75.79 84.41 75.37 84.71 75.05C85.01 74.74 85.44 74.34 85.67 74.17C85.9 74 86.27 73.77 86.48 73.64L86.88 73.42C86.59 73.01 86.28 72.67 86 72.4C85.73 72.13 85.17 71.65 84.76 71.35C84.35 71.04 83.75 70.62 83.43 70.42C83.11 70.21 82.56 69.89 82.21 69.7C81.85 69.51 81.57 69.33 81.58 69.31C81.59 69.28 81.98 69.3 82.43 69.35C82.89 69.39 83.75 69.53 84.34 69.64C84.94 69.76 85.82 69.97 86.3 70.11C86.78 70.25 87.62 70.55 88.16 70.77C88.71 71 89.55 71.41 90.03 71.68C90.51 71.95 91.2 72.4 91.57 72.68C91.94 72.95 92.58 73.52 93.01 73.94C93.43 74.36 94.01 75.03 94.28 75.42C94.56 75.8 94.96 76.5 95.18 76.95C95.4 77.41 95.66 78.06 95.77 78.41C95.87 78.75 96 79.33 96.07 79.69C96.13 80.06 96.18 80.88 96.18 81.52C96.18 82.16 96.14 83.06 96.1 83.51C96.05 83.97 95.93 84.77 95.84 85.3C95.75 85.82 95.56 86.7 95.42 87.25L95.16 88.25C95.47 88.81 95.76 89.17 96.01 89.41C96.26 89.65 96.69 89.95 96.97 90.08C97.41 90.28 97.59 90.31 98.5 90.34C99.36 90.37 99.76 90.34 100.75 90.16C101.41 90.05 102.25 89.89 102.62 89.82C102.99 89.75 103.98 89.67 104.86 89.65C106.11 89.61 106.64 89.63 107.39 89.74C107.92 89.82 108.83 90.01 109.43 90.16L110.51 90.44C111.54 89.93 112.25 89.64 112.75 89.46C113.25 89.28 114.13 89.04 114.7 88.92C115.27 88.8 115.85 88.7 115.99 88.69C116.2 88.67 116.23 88.63 116.21 88.46C116.2 88.34 116.11 88 116.01 87.71C115.92 87.41 115.67 86.83 115.46 86.42C115.25 86.01 114.83 85.36 114.53 84.97C114.22 84.58 113.72 84.01 113.4 83.71C113.09 83.41 112.51 82.93 112.13 82.64C111.74 82.36 111.31 82.07 111.17 82C110.94 81.89 110.88 81.9 110.38 82.1C110.09 82.22 109.6 82.48 109.3 82.68C109.01 82.88 108.56 83.26 108.31 83.53C107.98 83.89 107.74 84.07 107.45 84.16C107.24 84.24 106.73 84.36 106.33 84.43C105.93 84.5 105.33 84.55 104.98 84.55C104.64 84.55 104.12 84.51 103.82 84.46C103.52 84.42 103.22 84.36 103.14 84.34C103.06 84.32 102.99 84.25 102.99 84.18C102.99 84.11 103.1 83.76 103.25 83.41C103.39 83.06 103.63 82.54 103.8 82.27C103.96 81.99 104.26 81.56 104.46 81.31C104.66 81.06 105.11 80.6 105.47 80.3C105.82 79.99 106.41 79.54 106.78 79.3C107.16 79.06 107.47 78.83 107.47 78.8C107.47 78.77 107.35 78.7 107.21 78.66C107.06 78.61 106.65 78.39 106.31 78.17C105.97 77.95 105.44 77.49 105.13 77.15C104.82 76.81 104.56 76.5 104.56 76.45C104.57 76.4 105.19 76.38 106.31 76.39C107.27 76.4 108.11 76.38 108.18 76.35C108.27 76.3 108.18 76.11 107.76 75.46C107.46 75 106.92 74.03 106.56 73.3C106.2 72.57 105.78 71.61 105.62 71.18C105.46 70.75 105.23 70.05 105.11 69.64C104.99 69.23 104.83 68.53 104.75 68.09C104.67 67.65 104.63 67.27 104.65 67.24C104.67 67.21 105.12 67.06 105.65 66.91C106.17 66.75 107.02 66.57 107.54 66.49C108.05 66.42 109 66.36 109.66 66.36C110.31 66.36 111.18 66.42 111.59 66.48C112 66.54 112.63 66.67 113 66.76C113.36 66.86 114.11 67.1 114.66 67.3C115.21 67.5 115.94 67.8 116.28 67.96C116.62 68.12 117.65 68.6 118.56 69.04C119.48 69.48 120.6 69.97 121.05 70.12C121.51 70.28 122.18 70.46 122.55 70.51C122.96 70.58 123.44 70.59 123.8 70.56C124.12 70.53 124.64 70.45 124.96 70.38C125.28 70.31 126.36 70.02 127.37 69.73C128.37 69.43 129.61 69.1 130.11 68.99C130.61 68.88 131.32 68.74 131.69 68.68C132.05 68.62 132.84 68.58 133.43 68.58C134.12 68.58 134.75 68.64 135.17 68.73C135.54 68.8 136.18 68.98 136.59 69.11C137 69.24 137.75 69.53 138.25 69.75C138.75 69.97 139.57 70.39 140.07 70.68C140.58 70.97 141.36 71.45 141.82 71.76C142.28 72.07 143.04 72.62 143.52 73C144 73.37 144.67 73.93 145.02 74.24L145.64 74.81C148.99 74.89 150.18 74.95 150.46 74.99C150.73 75.03 151.15 75.1 151.39 75.14L151.83 75.21C151.83 74.85 151.72 74.33 151.59 73.82C151.45 73.3 151.19 72.49 151 72.01C150.81 71.53 150.48 70.82 150.27 70.43C150.07 70.04 149.7 69.45 149.47 69.11C149.24 68.77 148.75 68.18 148.38 67.79C148.01 67.41 147.66 67.08 147.59 67.06C147.52 67.04 147.13 67.12 146.72 67.24C146.31 67.35 145.65 67.6 145.27 67.78C144.88 67.96 144.53 68.08 144.49 68.05C144.46 68.01 144.41 67.74 144.38 67.44C144.35 67.04 144.37 66.78 144.49 66.44L144.64 65.97C142.97 65.12 141.94 64.52 141.28 64.09L140.07 63.3C139.17 63.41 138.07 63.49 137.04 63.54C135.57 63.62 134.71 63.62 132.97 63.54C131.76 63.49 130.7 63.41 130.61 63.38C130.51 63.34 130.48 63.3 130.52 63.27C130.57 63.25 131.13 63.06 131.77 62.85C132.41 62.64 133.55 62.32 134.3 62.14C135.06 61.96 136.12 61.71 136.67 61.6C137.22 61.48 138.28 61.3 139.04 61.18C139.79 61.06 140.89 60.91 141.49 60.83C142.12 60.75 143.54 60.68 144.93 60.65C146.5 60.62 147.58 60.64 148.13 60.71C148.85 60.79 149.05 60.85 149.58 61.15C149.93 61.33 150.54 61.71 150.96 61.99C151.37 62.26 151.98 62.7 152.33 62.96C152.67 63.22 153.32 63.76 153.77 64.17C154.23 64.58 154.93 65.28 155.34 65.74C155.75 66.2 156.31 66.87 156.59 67.23C156.86 67.6 157.09 67.9 157.09 67.91C157.1 67.91 157.72 67.98 158.47 68.06C159.23 68.13 160.48 68.32 161.25 68.48C162.03 68.64 162.95 68.85 163.31 68.96C163.79 69.1 163.96 69.12 163.99 69.04C164.02 68.98 164.04 68.46 164.04 67.88C164.03 67.3 163.98 66.43 163.91 65.95C163.84 65.47 163.68 64.66 163.54 64.16C163.41 63.66 163.17 62.93 163 62.54C162.84 62.15 162.56 61.59 162.38 61.3C162.2 61 161.95 60.63 161.82 60.48L161.59 60.2C160.11 60.4 159.4 60.56 159.05 60.67C158.71 60.78 158.41 60.86 158.39 60.83C158.37 60.8 158.35 60.48 158.35 60.1C158.36 59.59 158.4 59.33 158.54 59.03L158.72 58.64C158.05 58.35 157.48 58.09 157.02 57.86C156.56 57.64 155.93 57.29 155.61 57.08C155.29 56.88 154.71 56.46 154.32 56.16C153.93 55.86 153.26 55.26 152.82 54.84L152.03 54.06C151.07 54.22 150.28 54.27 149.67 54.27C148.91 54.26 148.37 54.22 147.99 54.12C147.68 54.05 147.25 53.9 147.03 53.79C146.81 53.68 146.51 53.48 146.35 53.35C146.2 53.22 146 52.97 145.91 52.78C145.8 52.56 145.75 52.28 145.75 51.95C145.75 51.68 145.86 50.97 146 50.37C146.14 49.78 146.31 48.94 146.38 48.5C146.46 48.07 146.54 47.19 146.56 46.55C146.59 45.87 146.57 44.94 146.52 44.31C146.46 43.72 146.34 42.78 146.25 42.23C146.16 41.69 145.94 40.66 145.76 39.95C145.58 39.24 145.43 38.63 145.43 38.6C145.43 38.57 145.57 38.56 145.74 38.59C145.91 38.61 146.52 38.71 147.09 38.8C147.66 38.9 148.71 39.12 149.42 39.29C150.13 39.47 151.14 39.76 151.66 39.94C152.19 40.12 152.82 40.34 153.07 40.44C153.32 40.54 153.9 40.8 154.36 41.01C154.82 41.22 155.47 41.56 155.81 41.76C156.16 41.97 156.64 42.29 156.88 42.48C157.12 42.66 157.43 42.98 157.56 43.19C157.7 43.39 157.81 43.66 157.81 43.77C157.81 43.88 157.74 44.09 157.66 44.23C157.57 44.36 157.22 44.74 156.86 45.06C156.45 45.43 156.15 45.79 156.02 46.05C155.9 46.28 155.81 46.55 155.81 46.66C155.81 46.76 155.87 46.95 155.93 47.07C155.99 47.2 156.2 47.44 156.39 47.61C156.57 47.78 156.94 48.03 157.21 48.16C157.47 48.29 158.05 48.52 158.49 48.66C158.94 48.8 159.72 48.99 160.24 49.09C160.75 49.18 161.71 49.29 162.38 49.33C163.1 49.38 163.99 49.38 164.62 49.34C165.19 49.3 165.96 49.2 166.32 49.12C166.69 49.05 167.23 48.9 167.52 48.78C167.82 48.67 168.22 48.49 168.42 48.38C168.61 48.26 168.76 48.16 168.75 48.13C168.74 48.11 168.32 48.04 167.82 47.97C167.31 47.91 166.45 47.75 165.91 47.63C165.36 47.52 164.57 47.3 164.16 47.16C163.75 47.02 163.2 46.8 162.94 46.67C162.67 46.54 162.37 46.34 162.25 46.22C162.12 46.09 162.04 45.92 162.04 45.74C162.04 45.58 162.12 45.37 162.23 45.23C162.33 45.1 162.75 44.77 163.16 44.49C163.58 44.22 164.02 43.9 164.15 43.78C164.28 43.66 164.44 43.46 164.5 43.33C164.57 43.21 164.62 42.99 164.62 42.86C164.62 42.72 164.58 42.51 164.53 42.38C164.48 42.25 164.34 42.04 164.22 41.91C164.1 41.78 163.77 41.52 163.5 41.34C163.22 41.15 162.59 40.8 162.08 40.57C161.58 40.33 160.78 39.98 160.3 39.79C159.82 39.59 159.13 39.33 158.76 39.19C158.4 39.05 155.43 38.01 152.16 36.87C148.89 35.72 145.96 34.7 145.64 34.58C145.32 34.47 143.54 33.84 141.69 33.18C139.84 32.53 136.76 31.42 134.84 30.73C132.92 30.04 129.6 28.84 127.45 28.06C125.3 27.28 122.99 26.45 122.3 26.2C121.62 25.96 119.24 25.12 117.03 24.33C114.81 23.55 111.19 22.27 108.97 21.5C106.75 20.73 103.75 19.7 102.28 19.22C100.82 18.74 98.8 18.11 97.8 17.81C96.79 17.52 95.41 17.15 94.73 16.98C94.04 16.82 92.99 16.59 92.4 16.48C91.81 16.37 90.85 16.22 90.28 16.15C89.6 16.06 88.37 16.01 86.67 15.99C84.82 15.96 83.8 15.99 83.06 16.07Z" />
		<path class="shp1" d="M44.56 42.61C44.15 42.69 43.48 42.88 43.06 43.03C42.65 43.17 42.09 43.39 41.82 43.53C41.54 43.66 40.97 43.99 40.53 44.27C40.05 44.59 39.41 45.11 38.89 45.63C38.43 46.09 38.06 46.5 38.08 46.53C38.11 46.57 38.21 46.56 38.31 46.52C38.41 46.48 38.98 46.34 39.58 46.22C40.49 46.02 40.86 45.99 42.03 45.98C43.12 45.98 43.51 46.01 43.94 46.13C44.23 46.21 44.62 46.35 44.79 46.44C44.96 46.52 45.25 46.73 45.44 46.91C45.63 47.08 45.86 47.37 45.95 47.55C46.04 47.73 46.14 48.09 46.16 48.34C46.19 48.6 46.16 48.97 46.1 49.21C46.04 49.44 45.81 50.03 45.59 50.52C45.36 51.02 45.14 51.66 45.09 51.97C45.01 52.45 45.01 52.61 45.13 53.01C45.22 53.34 45.37 53.59 45.58 53.8C45.75 53.98 46.11 54.21 46.39 54.32C46.8 54.49 47.02 54.52 47.67 54.51C48.11 54.51 48.71 54.44 49 54.36C49.3 54.29 49.8 54.1 50.12 53.95C50.44 53.79 50.95 53.48 51.25 53.25C51.54 53.03 51.96 52.62 52.16 52.35C52.37 52.09 52.64 51.7 52.76 51.5C52.88 51.29 53.1 50.77 53.25 50.33C53.5 49.59 53.52 49.47 53.52 48.42C53.51 47.44 53.49 47.22 53.3 46.64C53.18 46.27 52.94 45.75 52.78 45.47C52.61 45.2 52.34 44.81 52.17 44.61C52.01 44.4 51.66 44.07 51.41 43.87C51.16 43.68 50.66 43.37 50.29 43.19C49.93 43.01 49.33 42.78 48.96 42.68C48.41 42.53 48.03 42.49 46.8 42.47C45.57 42.45 45.18 42.47 44.56 42.61Z" />
		<path class="shp2" d="M177.16 60.07C176.18 61.22 174.36 63.26 173.13 64.61C171.9 65.96 169.69 68.32 168.22 69.85C166.76 71.38 164.09 74.09 162.29 75.87C160.48 77.64 157.65 80.39 155.98 81.97C154.31 83.55 151.69 85.98 150.16 87.38C148.63 88.77 146.26 90.9 144.89 92.11C143.52 93.33 141.28 95.29 139.91 96.48C138.54 97.66 136.18 99.68 134.68 100.96C133.17 102.24 130.76 104.26 129.32 105.44C127.88 106.63 125.62 108.48 124.29 109.56C122.97 110.63 120.48 112.63 118.77 114C117.06 115.37 114.5 117.39 113.08 118.49C111.67 119.59 109.44 121.3 108.14 122.3C106.84 123.31 104.46 125.11 102.87 126.31C101.09 127.64 99.93 128.46 99.88 128.42C99.83 128.38 98.62 127.46 97.18 126.37C95.74 125.28 93.53 123.6 92.28 122.64C91.02 121.68 88.74 119.93 87.21 118.74C85.68 117.55 83.04 115.47 81.35 114.13C79.66 112.78 77.2 110.8 75.87 109.73C74.55 108.65 72.27 106.78 70.81 105.57C69.34 104.36 66.84 102.26 65.24 100.91C63.64 99.56 61.16 97.43 59.72 96.18C58.28 94.93 56.07 92.99 54.82 91.87C53.56 90.75 51.3 88.71 49.79 87.34C48.28 85.97 45.84 83.7 44.35 82.31C42.87 80.92 39.77 77.91 37.47 75.62C35.17 73.34 32.25 70.39 30.99 69.06C29.72 67.74 27.77 65.64 26.65 64.41C25.53 63.18 23.83 61.24 22.86 60.11C21.89 58.98 21.07 58.06 21.03 58.06C21 58.06 21.02 58.39 21.08 58.78C21.14 59.18 21.29 59.94 21.43 60.47C21.56 60.99 21.82 61.87 22.01 62.42C22.2 62.97 22.54 63.86 22.77 64.41C23 64.96 23.45 65.93 23.76 66.57C24.07 67.21 24.63 68.26 25.01 68.9C25.38 69.53 26.02 70.56 26.44 71.18C26.85 71.8 27.47 72.67 27.81 73.13C28.16 73.59 28.79 74.39 29.23 74.91C29.67 75.44 31.09 77.01 32.4 78.4C33.71 79.8 36.66 82.81 38.96 85.09C41.26 87.38 44.29 90.31 45.68 91.61C47.07 92.92 49 94.69 49.96 95.56C50.92 96.43 52.77 98.1 54.07 99.26C55.37 100.42 57.39 102.19 58.55 103.2C59.72 104.21 61.55 105.78 62.62 106.69C63.7 107.61 65.4 109.05 66.4 109.89C67.41 110.74 69.39 112.38 70.81 113.54C72.22 114.71 74.99 116.95 76.95 118.53C78.92 120.11 81.97 122.54 83.73 123.93C85.49 125.32 88.66 127.78 90.76 129.4C92.87 131.02 94.6 132.37 94.6 132.39C94.61 132.41 93.03 133.58 91.1 134.97C89.16 136.37 86.42 138.33 85.01 139.33C83.59 140.32 82.42 141.14 82.41 141.15C82.4 141.15 82.39 141.75 82.39 142.48C82.39 143.21 82.43 144.09 82.49 144.44C82.54 144.78 82.66 145.21 82.75 145.39C82.84 145.57 83.08 145.97 83.28 146.28C83.48 146.59 83.85 147.07 84.12 147.35L84.59 147.86C90.51 143.51 93.93 140.97 96.01 139.41C98.09 137.85 99.84 136.55 99.9 136.52C99.96 136.48 101.75 137.77 104.55 139.85C107.05 141.72 110.51 144.28 112.25 145.56L115.41 147.87C116.1 147.11 116.44 146.68 116.61 146.43C116.78 146.18 117.02 145.77 117.15 145.51C117.33 145.16 117.4 144.83 117.5 144.02C117.56 143.45 117.6 142.57 117.59 142.08L117.57 141.17C112.93 137.89 110.26 135.98 108.64 134.82C107.02 133.65 105.61 132.63 105.5 132.54L105.32 132.39C111.46 127.67 114.41 125.38 115.82 124.26C117.24 123.14 120.27 120.73 122.55 118.9C124.83 117.08 127.67 114.78 128.86 113.8C130.05 112.81 132.03 111.17 133.26 110.14C134.5 109.11 137.36 106.68 139.62 104.74C141.88 102.8 144.74 100.31 145.97 99.21C147.21 98.11 149.13 96.37 150.25 95.35C151.37 94.32 153.11 92.72 154.11 91.78C155.11 90.84 157.11 88.93 158.55 87.53C159.99 86.13 162.24 83.91 163.54 82.59C164.84 81.27 166.73 79.31 167.73 78.24C168.74 77.16 169.82 75.99 170.14 75.62C170.46 75.26 170.97 74.66 171.27 74.29C171.57 73.93 172.03 73.33 172.31 72.97C172.59 72.6 173.08 71.91 173.4 71.43C173.72 70.95 174.35 69.96 174.79 69.23C175.23 68.5 175.86 67.34 176.2 66.65C176.54 65.97 177.02 64.9 177.27 64.29C177.52 63.67 177.87 62.73 178.06 62.21C178.24 61.68 178.5 60.75 178.64 60.13C178.78 59.52 178.92 58.78 178.95 58.49C178.98 58.21 178.99 57.98 178.97 57.98C178.96 57.98 178.14 58.92 177.16 60.07Z" />
		<path class="shp1" d="M51.03 60.28C50.8 60.36 50.49 60.52 50.33 60.64C50.17 60.75 49.95 61.02 49.83 61.22C49.71 61.42 49.52 61.83 49.4 62.13C49.29 62.42 49.15 62.87 49.1 63.12C49.05 63.37 48.89 64.31 48.75 65.2C48.6 66.09 48.41 67.06 48.32 67.36C48.23 67.66 48.08 68.05 47.98 68.23C47.89 68.41 47.7 68.71 47.56 68.89C47.42 69.06 47.19 69.26 47.05 69.31L46.8 69.42C47.25 69.64 47.59 69.72 47.84 69.75C48.09 69.77 48.47 69.74 48.67 69.68C48.94 69.61 49.17 69.45 49.51 69.11C49.83 68.78 50.03 68.49 50.18 68.11C50.3 67.81 50.45 67.33 50.51 67.05C50.57 66.76 50.64 66.52 50.66 66.52C50.69 66.52 50.83 66.65 50.99 66.8C51.14 66.95 51.31 67.16 51.37 67.28C51.43 67.39 51.5 67.61 51.53 67.77C51.56 67.95 51.53 68.24 51.45 68.5C51.37 68.78 51.22 69.05 51.02 69.25C50.85 69.42 50.61 69.63 50.5 69.71L50.29 69.86C50.87 69.81 51.24 69.7 51.5 69.58C51.75 69.46 52.11 69.21 52.3 69.02C52.5 68.84 52.78 68.45 52.92 68.17C53.13 67.75 53.19 67.52 53.22 66.99C53.25 66.49 53.22 66.21 53.11 65.86C53.03 65.61 52.88 65.27 52.77 65.1C52.66 64.92 52.43 64.63 52.24 64.45C52.06 64.27 51.72 64.04 51.49 63.93C51.2 63.8 51.08 63.7 51.08 63.58C51.08 63.49 51.15 63.11 51.25 62.75C51.34 62.38 51.55 61.84 51.72 61.54C51.88 61.25 52.14 60.85 52.29 60.65C52.49 60.4 52.54 60.28 52.47 60.24C52.41 60.21 52.16 60.18 51.91 60.16C51.61 60.14 51.31 60.18 51.03 60.28Z" />
		<path class="shp3" d="M50.47 67.17C50.39 67.53 50.22 68.04 50.08 68.31C49.95 68.59 49.75 68.91 49.65 69.02C49.54 69.13 49.31 69.34 49.13 69.47C48.83 69.69 48.81 69.72 48.96 69.77C49.05 69.8 49.31 69.86 49.54 69.89C49.87 69.94 50.03 69.92 50.29 69.8C50.47 69.71 50.78 69.49 50.98 69.29C51.22 69.05 51.37 68.8 51.45 68.5C51.53 68.24 51.56 67.95 51.53 67.77C51.5 67.61 51.43 67.41 51.39 67.32C51.34 67.23 51.17 67.01 51 66.84C50.84 66.67 50.68 66.53 50.66 66.53C50.63 66.53 50.54 66.82 50.47 67.17Z" />
		<path class="shp2" d="M139.62 88.76C139.18 88.87 138.12 89.15 137.25 89.38C136.38 89.61 134.68 90.1 133.47 90.46C132.26 90.83 129.78 91.59 127.95 92.16C126.12 92.74 122.51 93.91 119.93 94.76C117.35 95.62 113.56 96.92 111.5 97.65C109.45 98.39 106.96 99.28 105.98 99.65C105 100.01 103.32 100.67 102.24 101.1C101.17 101.53 99.73 102.14 99.04 102.45C98.36 102.75 97.48 103.18 97.09 103.39C96.7 103.6 96.21 103.9 96 104.06C95.78 104.24 95.6 104.44 95.58 104.56C95.56 104.69 95.61 104.77 95.74 104.82C95.85 104.87 96.11 104.9 96.32 104.9C96.54 104.9 97.07 104.84 97.51 104.77C97.94 104.69 98.88 104.49 99.58 104.31C100.29 104.13 101.68 103.74 102.66 103.45C103.64 103.15 105.94 102.41 107.77 101.8C109.59 101.18 112.58 100.14 114.41 99.48C116.24 98.81 118.87 97.84 120.27 97.32C121.66 96.79 123.85 95.95 125.12 95.45C126.4 94.95 128.57 94.09 129.94 93.54C131.31 92.99 133.13 92.26 133.97 91.9C134.82 91.55 136.22 90.95 137.08 90.57C137.95 90.19 139.13 89.66 139.7 89.38C140.27 89.11 140.83 88.81 140.95 88.71L141.15 88.54C140.58 88.55 140.05 88.64 139.62 88.76Z" />
		<path fill-rule="evenodd" class="shp0" d="M81.06 136.08C81.68 136.09 81.93 136.14 82.21 136.28C82.4 136.38 82.63 136.58 82.73 136.73C82.82 136.88 82.88 137.05 82.87 137.12C82.86 137.19 82.53 137.35 82.1 137.49C81.59 137.66 81.28 137.83 81.11 138C80.98 138.13 80.77 138.45 80.65 138.7C80.45 139.14 80.44 139.22 80.45 140.57C80.45 141.62 80.5 142.24 80.63 142.98C80.73 143.53 81.13 145.32 81.52 146.97C81.91 148.61 82.34 150.52 82.48 151.2C82.61 151.89 82.8 152.97 82.89 153.61C83.01 154.37 83.09 155.42 83.12 156.6C83.15 157.85 83.13 158.68 83.06 159.22C83.01 159.65 82.88 160.36 82.79 160.8C82.7 161.23 82.46 162.07 82.25 162.67C82.05 163.26 81.71 164.1 81.51 164.53C81.3 164.97 81 165.55 80.84 165.82C80.67 166.1 80.31 166.66 80.04 167.07C79.77 167.48 79.2 168.23 78.78 168.73C78.36 169.23 77.74 169.9 77.4 170.22C77.06 170.54 76.41 171.1 75.96 171.46C75.5 171.82 74.73 172.38 74.25 172.69C73.77 173.01 72.88 173.52 72.26 173.83C71.64 174.14 70.78 174.54 70.35 174.71C69.91 174.88 69.13 175.14 68.6 175.29C68.08 175.44 67.35 175.63 66.99 175.7C66.62 175.78 65.82 175.89 65.2 175.96C64.58 176.02 63.69 176.08 63.21 176.08C62.73 176.07 61.96 176.04 61.5 176C61.05 175.96 60.28 175.85 59.8 175.75C59.32 175.65 58.48 175.42 57.93 175.24C57.38 175.06 56.54 174.72 56.06 174.49C55.58 174.26 54.97 173.94 54.69 173.78C54.42 173.61 53.76 173.16 53.24 172.77C52.71 172.38 51.85 171.63 51.32 171.1C50.79 170.57 50.11 169.83 49.25 168.77L48.94 169.2C48.77 169.44 48.46 169.76 48.26 169.91C48.05 170.06 47.68 170.27 47.43 170.36C47.06 170.5 46.82 170.52 46.17 170.5C45.46 170.48 45.32 170.44 44.76 170.17C44.34 169.96 44.01 169.73 43.73 169.42C43.5 169.17 43.21 168.76 43.09 168.52C42.97 168.27 42.83 167.9 42.78 167.69C42.73 167.49 42.69 167.07 42.69 166.78C42.69 166.48 42.75 166.01 42.82 165.74C42.89 165.47 43.07 165.02 43.22 164.75C43.36 164.48 43.67 164.09 43.9 163.88C44.13 163.67 44.52 163.4 44.77 163.28C45.02 163.15 45.45 163.01 45.72 162.95C46.15 162.86 46.31 162.87 46.84 162.99C47.19 163.06 47.67 163.24 47.92 163.39C48.18 163.54 48.56 163.81 48.78 164C48.99 164.18 49.66 164.91 50.27 165.61C50.87 166.32 51.89 167.43 52.53 168.06C53.17 168.71 54.05 169.48 54.49 169.79C54.92 170.1 55.8 170.61 56.44 170.93C57.08 171.25 57.94 171.61 58.35 171.72C58.76 171.84 59.52 172.01 60.05 172.11C60.82 172.26 61.31 172.29 62.54 172.29C63.6 172.29 64.34 172.24 64.91 172.14C65.37 172.07 66.11 171.91 66.57 171.79C67.03 171.68 67.83 171.42 68.36 171.21C68.88 171 69.67 170.64 70.1 170.41C70.53 170.18 71.26 169.75 71.72 169.45C72.18 169.15 72.77 168.71 73.05 168.48C73.32 168.25 73.86 167.77 74.24 167.4C74.63 167.04 75.15 166.47 75.41 166.15C75.68 165.83 76.15 165.2 76.46 164.74C76.77 164.29 77.24 163.46 77.5 162.92C77.76 162.37 78.11 161.53 78.27 161.05C78.43 160.57 78.65 159.78 78.75 159.3C78.92 158.53 78.94 158.21 78.94 156.56C78.94 155.08 78.9 154.43 78.75 153.41C78.65 152.7 78.38 151.22 78.16 150.12C77.93 149.03 77.6 147.42 77.42 146.55C77.24 145.69 77 144.45 76.9 143.81C76.78 143.01 76.72 142.23 76.71 141.32C76.71 140.27 76.74 139.88 76.86 139.45C76.94 139.15 77.12 138.67 77.27 138.37C77.43 138.03 77.73 137.63 78.07 137.28C78.4 136.95 78.82 136.63 79.13 136.47C79.42 136.33 79.79 136.18 79.96 136.13C80.13 136.09 80.63 136.06 81.06 136.08ZM118.98 136.05C119.35 136.05 119.85 136.1 120.1 136.18C120.35 136.25 120.74 136.42 120.97 136.54C121.2 136.67 121.56 136.95 121.78 137.16C122 137.37 122.3 137.74 122.46 137.98C122.61 138.22 122.82 138.61 122.91 138.85C123.01 139.09 123.15 139.61 123.22 140.01C123.31 140.54 123.33 141 123.29 141.69C123.26 142.22 123.15 143.25 123.04 143.98C122.93 144.71 122.63 146.26 122.38 147.43C122.12 148.59 121.79 150.18 121.64 150.96C121.48 151.73 121.28 152.95 121.19 153.65C121.06 154.56 121.01 155.39 121.01 156.46C121.01 157.29 121.05 158.24 121.1 158.58C121.15 158.91 121.29 159.55 121.4 160.01C121.51 160.47 121.74 161.19 121.9 161.63C122.06 162.06 122.33 162.68 122.49 163C122.65 163.32 122.97 163.88 123.2 164.24C123.43 164.61 123.81 165.17 124.04 165.49C124.28 165.81 124.82 166.44 125.25 166.89C125.69 167.35 126.36 167.98 126.74 168.31C127.13 168.63 127.82 169.14 128.28 169.44C128.74 169.74 129.39 170.14 129.73 170.33C130.08 170.51 130.73 170.82 131.19 171.01C131.64 171.2 132.37 171.46 132.81 171.59C133.24 171.73 133.88 171.89 134.22 171.96C134.56 172.03 135.18 172.12 135.59 172.17C136 172.22 136.82 172.26 137.42 172.26C138.01 172.26 138.83 172.22 139.24 172.17C139.66 172.12 140.27 172.03 140.61 171.95C140.96 171.88 141.61 171.69 142.07 171.53C142.52 171.38 143.25 171.07 143.69 170.84C144.12 170.62 144.74 170.26 145.06 170.05C145.38 169.84 145.96 169.4 146.35 169.07C146.73 168.75 147.38 168.14 147.79 167.73C148.19 167.32 149.01 166.39 149.61 165.67C150.26 164.89 150.94 164.17 151.29 163.89C151.61 163.64 152.11 163.32 152.41 163.18C152.77 163.01 153.12 162.92 153.49 162.89C153.85 162.86 154.19 162.9 154.53 162.99C154.8 163.07 155.21 163.24 155.43 163.36C155.65 163.48 156.01 163.77 156.23 164C156.44 164.22 156.72 164.61 156.84 164.85C156.96 165.09 157.12 165.5 157.18 165.76C157.25 166.02 157.31 166.45 157.31 166.72C157.31 166.98 157.27 167.39 157.22 167.63C157.16 167.87 157.03 168.25 156.91 168.48C156.8 168.71 156.57 169.06 156.4 169.27C156.23 169.47 155.91 169.76 155.68 169.91C155.46 170.05 155.04 170.25 154.75 170.34C154.43 170.45 154.02 170.51 153.65 170.51C153.28 170.51 152.92 170.46 152.64 170.35C152.4 170.26 152.01 170.07 151.79 169.91C151.56 169.76 151.26 169.48 151.12 169.3C150.98 169.12 150.84 168.92 150.81 168.85C150.77 168.76 150.7 168.79 150.52 169.02C150.4 169.18 149.9 169.75 149.42 170.3C148.94 170.85 148.28 171.52 147.97 171.79C147.65 172.07 147.03 172.56 146.59 172.88C146.16 173.2 145.49 173.65 145.1 173.88C144.71 174.1 144.04 174.45 143.6 174.64C143.17 174.83 142.42 175.11 141.94 175.27C141.46 175.43 140.62 175.64 140.07 175.73C139.53 175.83 138.59 175.95 138 176C137.27 176.06 136.53 176.06 135.71 176C135.05 175.96 134.15 175.86 133.72 175.79C133.29 175.72 132.5 175.55 131.98 175.42C131.45 175.28 130.69 175.06 130.27 174.92C129.86 174.77 128.95 174.38 128.24 174.03C127.53 173.69 126.63 173.22 126.25 172.98C125.86 172.75 125.11 172.23 124.58 171.84C124.06 171.44 123.16 170.67 122.59 170.12C122.02 169.58 121.22 168.7 120.81 168.18C120.41 167.66 119.91 166.97 119.7 166.65C119.49 166.33 119.07 165.59 118.76 164.99C118.45 164.4 118.04 163.48 117.85 162.96C117.67 162.43 117.41 161.55 117.28 161C117.15 160.46 116.99 159.56 116.94 159.01C116.87 158.38 116.85 157.42 116.89 156.4C116.91 155.49 117.01 154.21 117.11 153.49C117.21 152.78 117.42 151.57 117.58 150.79C117.74 150.01 118.11 148.39 118.4 147.18C118.69 145.97 118.98 144.73 119.05 144.44C119.12 144.14 119.26 143.43 119.36 142.86C119.48 142.15 119.54 141.44 119.55 140.61C119.56 139.68 119.53 139.3 119.41 138.93C119.31 138.6 119.16 138.35 118.92 138.1C118.65 137.83 118.4 137.69 117.86 137.49C117.33 137.31 117.14 137.2 117.13 137.08C117.11 136.99 117.19 136.81 117.29 136.68C117.4 136.54 117.67 136.35 117.9 136.24C118.22 136.09 118.46 136.05 118.98 136.05ZM75.21 145.56C75.23 145.58 75.22 145.68 75.21 145.78C75.19 145.9 74.83 146.27 74.2 146.81C73.66 147.27 72.69 148.04 72.05 148.52C71.41 149 69.99 150.02 68.9 150.8C67.8 151.58 66 152.82 64.91 153.55C63.81 154.28 62.22 155.32 61.38 155.86C60.53 156.4 59.13 157.27 58.26 157.79C57.4 158.31 55.94 159.16 55.02 159.67C54.11 160.19 52.63 160.98 51.74 161.44C50.85 161.9 50 162.3 49.85 162.33C49.71 162.35 49.57 162.34 49.54 162.29C49.52 162.25 49.62 162.12 49.77 162.01C49.92 161.9 51.52 160.88 53.32 159.74C55.13 158.6 57.91 156.83 59.51 155.8C61.11 154.77 63.58 153.17 64.99 152.24C66.41 151.31 69.23 149.45 71.26 148.09C73.3 146.73 75.01 145.61 75.08 145.58C75.14 145.56 75.2 145.55 75.21 145.56ZM124.71 145.51C124.73 145.51 124.85 145.57 124.98 145.63C125.1 145.69 127.88 147.52 131.15 149.69C134.41 151.86 138.36 154.45 139.91 155.44C141.46 156.44 144.41 158.31 146.47 159.61C148.53 160.91 150.26 162.02 150.33 162.09C150.42 162.17 150.43 162.24 150.37 162.3C150.32 162.36 150.12 162.32 149.71 162.16C149.39 162.04 148.87 161.81 148.55 161.65C148.23 161.49 147.27 160.97 146.43 160.5C145.58 160.04 143.9 159.06 142.69 158.33C141.48 157.6 139.72 156.53 138.79 155.94C137.85 155.35 136.28 154.34 135.3 153.7C134.32 153.05 132.86 152.06 132.06 151.5C131.26 150.93 129.93 149.96 129.11 149.35C128.29 148.73 127 147.73 126.25 147.13C125.49 146.52 124.83 145.95 124.77 145.86C124.71 145.76 124.67 145.64 124.67 145.6C124.67 145.55 124.69 145.51 124.71 145.51ZM75.6 148.43C76.01 148.42 76.11 148.45 76.32 148.65C76.45 148.78 76.6 149.05 76.66 149.25C76.72 149.46 76.81 149.87 76.87 150.17C76.94 150.46 77.03 151.04 77.07 151.45C77.12 151.86 77.16 152.5 77.16 152.87C77.16 153.38 77.12 153.59 76.99 153.8C76.9 153.95 76.74 154.13 76.64 154.19C76.54 154.26 76.32 154.35 76.16 154.4C75.97 154.45 75.77 154.46 75.56 154.4C75.39 154.36 75.13 154.22 74.72 153.86L74.79 154.4C74.83 154.73 74.82 155.05 74.76 155.23C74.72 155.39 74.53 155.66 74.34 155.83C74.04 156.12 73.96 156.15 73.55 156.15C73.3 156.15 73.01 156.1 72.9 156.05C72.8 156 72.63 155.88 72.53 155.78C72.43 155.69 72.33 155.63 72.31 155.65C72.29 155.67 72.31 155.88 72.34 156.1C72.38 156.34 72.38 156.66 72.34 156.83C72.29 157 72.14 157.27 71.99 157.44C71.8 157.64 71.61 157.75 71.35 157.81C71.12 157.85 70.86 157.85 70.68 157.81C70.52 157.76 70.27 157.61 69.84 157.18L69.9 157.81C69.95 158.35 69.93 158.48 69.78 158.78C69.68 158.98 69.48 159.21 69.33 159.3C69.18 159.39 68.95 159.49 68.81 159.52C68.68 159.55 68.41 159.52 68.23 159.47C68.05 159.41 67.77 159.25 67.35 158.85L67.41 159.47C67.46 160.03 67.45 160.12 67.27 160.44C67.16 160.64 66.94 160.87 66.78 160.96C66.6 161.06 66.33 161.13 66.07 161.13C65.76 161.13 65.58 161.08 65.34 160.92C65.17 160.81 65.03 160.68 65.03 160.63C65.03 160.59 65.01 160.56 64.97 160.58C64.94 160.6 64.92 160.89 64.94 161.23C64.96 161.68 64.94 161.91 64.84 162.11C64.74 162.29 64.56 162.44 64.26 162.58C64.03 162.7 63.74 162.79 63.62 162.79C63.51 162.79 63.26 162.72 63.08 162.64C62.9 162.56 62.66 162.38 62.36 162L62.41 162.67C62.46 163.23 62.44 163.38 62.3 163.66C62.21 163.85 62.05 164.06 61.95 164.13C61.84 164.2 61.58 164.31 61.38 164.37C61.09 164.45 60.94 164.46 60.69 164.38C60.52 164.33 60.27 164.19 60.13 164.08C60 163.96 59.87 163.87 59.86 163.87C59.85 163.87 59.85 164.16 59.87 164.51C59.89 165.13 59.88 165.17 59.64 165.47C59.46 165.69 59.26 165.82 58.97 165.91C58.73 165.98 58.44 166.01 58.28 165.98C58.14 165.95 57.94 165.89 57.85 165.84C57.76 165.8 57.58 165.66 57.22 165.32L57.23 165.99C57.23 166.56 57.2 166.72 57 167.1C56.81 167.48 56.69 167.6 56.31 167.79C55.99 167.96 55.74 168.03 55.46 168.03C55.24 168.02 54.93 167.96 54.75 167.89C54.58 167.82 54.18 167.54 53.86 167.28C53.54 167.02 52.93 166.42 52.49 165.96C52.06 165.5 51.64 164.98 51.56 164.8C51.48 164.63 51.42 164.4 51.41 164.29C51.41 164.17 51.49 163.96 51.58 163.81C51.67 163.66 51.83 163.48 51.93 163.41C52.03 163.34 52.27 163.25 52.45 163.21C52.65 163.16 52.9 163.16 53.07 163.2C53.23 163.24 53.58 163.45 53.84 163.66C54.1 163.87 54.35 164.04 54.38 164.04C54.42 164.04 54.42 163.72 54.38 163.33C54.33 162.74 54.34 162.57 54.47 162.27C54.58 162 54.71 161.87 54.99 161.73C55.19 161.63 55.45 161.55 55.56 161.55C55.68 161.55 55.9 161.63 56.06 161.72C56.22 161.81 56.47 162.04 56.85 162.56L56.89 161.65C56.92 160.98 56.97 160.69 57.08 160.52C57.16 160.4 57.35 160.22 57.5 160.13C57.7 160 57.86 159.97 58.18 160C58.54 160.03 58.64 160.08 58.93 160.4C59.11 160.6 59.31 160.84 59.36 160.93C59.44 161.06 59.45 160.92 59.42 160.24C59.39 159.5 59.41 159.34 59.55 159.05C59.64 158.87 59.84 158.65 59.99 158.56C60.14 158.46 60.4 158.39 60.59 158.39C60.78 158.39 61.04 158.46 61.19 158.56C61.34 158.65 61.56 158.88 61.92 159.42L62 157.38L62.31 157.09C62.48 156.94 62.73 156.79 62.85 156.76C62.98 156.73 63.2 156.73 63.35 156.76C63.5 156.79 63.74 156.93 63.89 157.08C64.04 157.23 64.23 157.44 64.3 157.56C64.44 157.76 64.44 157.73 64.45 156.85C64.45 156.04 64.47 155.91 64.64 155.65C64.74 155.49 64.96 155.29 65.12 155.21C65.32 155.11 65.51 155.07 65.74 155.1C65.92 155.12 66.16 155.21 66.28 155.3C66.39 155.39 66.57 155.58 66.68 155.74C66.78 155.89 66.9 156.03 66.93 156.04C66.96 156.05 66.97 155.73 66.94 155.32C66.92 154.91 66.93 154.45 66.96 154.3C66.99 154.15 67.13 153.92 67.25 153.8C67.38 153.67 67.61 153.53 67.77 153.48C67.93 153.43 68.19 153.41 68.33 153.44C68.48 153.47 68.73 153.61 68.88 153.76C69.03 153.91 69.21 154.12 69.29 154.24C69.43 154.44 69.43 154.42 69.42 153.57C69.41 152.89 69.43 152.64 69.54 152.43C69.62 152.28 69.79 152.08 69.91 151.99C70.04 151.89 70.23 151.8 70.35 151.77C70.46 151.74 70.7 151.77 70.87 151.82C71.07 151.88 71.29 152.04 71.49 152.29C71.66 152.49 71.82 152.66 71.84 152.66C71.87 152.66 71.87 152.33 71.85 151.93C71.84 151.53 71.84 151.1 71.87 150.98C71.9 150.85 72.02 150.64 72.13 150.5C72.26 150.35 72.48 150.22 72.67 150.17C72.89 150.11 73.12 150.11 73.32 150.16C73.5 150.21 73.74 150.36 73.9 150.53C74.05 150.7 74.2 150.83 74.23 150.83C74.27 150.83 74.27 150.58 74.23 150.27C74.2 149.96 74.2 149.56 74.23 149.38C74.27 149.2 74.39 148.94 74.51 148.81C74.63 148.68 74.82 148.54 74.93 148.5C75.04 148.46 75.34 148.43 75.6 148.43ZM124.58 148.48C124.74 148.5 125 148.58 125.16 148.66C125.31 148.73 125.52 148.91 125.61 149.04C125.77 149.26 125.79 149.4 125.75 151.04L126.02 150.72C126.17 150.54 126.39 150.34 126.52 150.28C126.64 150.22 126.86 150.17 126.99 150.17C127.13 150.17 127.35 150.22 127.47 150.28C127.6 150.34 127.81 150.52 127.94 150.67C128.17 150.95 128.18 150.96 128.15 151.85C128.13 152.34 128.13 152.74 128.16 152.74C128.18 152.75 128.31 152.59 128.45 152.41C128.58 152.22 128.82 152.01 128.97 151.95C129.11 151.88 129.33 151.83 129.44 151.83C129.56 151.83 129.74 151.86 129.84 151.9C129.94 151.94 130.11 152.05 130.21 152.13C130.3 152.21 130.44 152.42 130.52 152.6C130.62 152.84 130.64 153.09 130.6 153.72C130.56 154.51 130.56 154.52 130.7 154.32C130.79 154.2 130.97 153.99 131.1 153.85C131.24 153.71 131.48 153.56 131.64 153.53C131.8 153.5 132.05 153.5 132.18 153.53C132.32 153.56 132.57 153.72 133.05 154.19L133.05 156.19L133.3 155.83C133.44 155.64 133.68 155.41 133.82 155.32C133.97 155.22 134.22 155.15 134.36 155.15C134.51 155.15 134.74 155.2 134.86 155.27C134.99 155.33 135.18 155.48 135.3 155.6C135.49 155.81 135.51 155.9 135.59 157.82L135.86 157.44C136.01 157.22 136.25 157.01 136.42 156.94C136.58 156.87 136.8 156.81 136.92 156.81C137.03 156.81 137.25 156.86 137.4 156.92C137.54 156.98 137.74 157.14 137.83 157.27C137.97 157.47 138.01 157.7 138.08 159.48L138.35 159.1C138.5 158.89 138.72 158.66 138.85 158.58C138.99 158.48 139.2 158.44 139.45 158.45C139.72 158.46 139.91 158.54 140.11 158.7C140.27 158.83 140.45 159.06 140.52 159.22C140.6 159.43 140.62 159.69 140.58 160.2C140.55 160.57 140.56 160.9 140.59 160.92C140.63 160.94 140.77 160.81 140.91 160.63C141.04 160.46 141.26 160.25 141.38 160.18C141.51 160.11 141.77 160.05 141.96 160.05C142.16 160.05 142.4 160.1 142.5 160.16C142.6 160.21 142.78 160.39 142.9 160.55C143.09 160.82 143.11 160.91 143.11 161.75C143.12 162.49 143.13 162.64 143.22 162.51C143.27 162.42 143.43 162.22 143.56 162.06C143.7 161.9 143.94 161.71 144.1 161.65C144.28 161.58 144.49 161.56 144.64 161.59C144.78 161.62 145 161.71 145.13 161.78C145.26 161.86 145.44 162.06 145.52 162.23C145.66 162.5 145.67 162.65 145.57 164.16L145.94 163.86C146.14 163.7 146.43 163.48 146.59 163.38C146.77 163.28 147.02 163.21 147.22 163.21C147.4 163.21 147.71 163.28 147.9 163.37C148.1 163.46 148.33 163.66 148.43 163.81C148.54 164 148.59 164.18 148.57 164.41C148.55 164.65 148.44 164.88 148.17 165.23C147.97 165.5 147.35 166.16 146.8 166.69C146.2 167.27 145.64 167.73 145.39 167.86C145.1 168 144.84 168.06 144.51 168.06C144.14 168.06 143.97 168.01 143.65 167.82C143.43 167.68 143.18 167.47 143.09 167.36C143 167.24 142.88 166.96 142.83 166.74C142.77 166.5 142.74 166.13 142.77 165.88C142.79 165.64 142.81 165.42 142.79 165.4C142.78 165.38 142.68 165.46 142.57 165.57C142.45 165.69 142.23 165.84 142.07 165.91C141.91 165.97 141.69 166.03 141.59 166.03C141.49 166.03 141.25 165.99 141.07 165.94C140.88 165.88 140.6 165.7 140.07 165.18L140.2 163.7L139.97 163.95C139.85 164.08 139.64 164.23 139.51 164.28C139.39 164.33 139.11 164.37 138.89 164.37C138.62 164.37 138.41 164.32 138.21 164.18C138.06 164.08 137.85 163.89 137.76 163.76C137.61 163.55 137.59 163.43 137.63 162L137.44 162.25C137.34 162.38 137.1 162.56 136.92 162.64C136.74 162.72 136.49 162.79 136.38 162.79C136.26 162.79 135.97 162.7 135.74 162.58C135.44 162.44 135.26 162.29 135.16 162.11C135.06 161.89 135.04 161.7 135.08 161.13C135.14 160.44 135.14 160.43 134.99 160.61C134.91 160.71 134.73 160.87 134.59 160.96C134.43 161.07 134.2 161.13 133.93 161.13C133.63 161.13 133.43 161.08 133.23 160.95C133.07 160.84 132.85 160.63 132.74 160.47C132.56 160.2 132.55 160.11 132.59 159.59C132.61 159.27 132.61 158.98 132.58 158.95C132.54 158.92 132.48 158.95 132.43 159.03C132.38 159.11 132.2 159.24 132.03 159.32C131.86 159.4 131.55 159.47 131.33 159.47C131.1 159.47 130.85 159.41 130.72 159.32C130.6 159.24 130.41 159.07 130.3 158.93C130.13 158.72 130.11 158.59 130.11 158C130.11 157.62 130.09 157.31 130.07 157.31C130.04 157.3 129.97 157.36 129.9 157.44C129.83 157.52 129.67 157.63 129.55 157.69C129.42 157.76 129.14 157.81 128.92 157.81C128.65 157.81 128.44 157.75 128.25 157.62C128.09 157.52 127.89 157.33 127.79 157.2C127.64 156.99 127.62 156.86 127.66 155.52L127.45 155.75C127.34 155.88 127.15 156.02 127.03 156.06C126.92 156.11 126.68 156.15 126.5 156.15C126.31 156.15 126.01 156.07 125.83 155.98C125.6 155.87 125.44 155.7 125.32 155.46C125.2 155.22 125.15 154.97 125.15 154.67C125.16 154.43 125.18 154.2 125.21 154.15C125.23 154.11 125.21 154.05 125.17 154.03C125.12 154.01 125.04 154.05 124.98 154.12C124.92 154.2 124.75 154.31 124.61 154.37C124.46 154.43 124.21 154.48 124.07 154.48C123.92 154.48 123.65 154.4 123.46 154.29C123.28 154.19 123.05 153.96 122.94 153.78C122.76 153.46 122.76 153.42 122.85 152.28C122.89 151.64 123.02 150.67 123.14 150.12C123.28 149.41 123.4 149.05 123.54 148.86C123.66 148.71 123.87 148.56 124.02 148.51C124.17 148.47 124.42 148.45 124.58 148.48Z" />
	</g>
</svg>