<svg enable-background="new 0 0 519.3 519.3" height="316.227766" viewBox="0 0 519.3 519.3" width="316.227766" xmlns="http://www.w3.org/2000/svg"><path d="m259.6 519.3c143.4 0 259.6-116.2 259.6-259.6.1-143.4-116.2-259.7-259.6-259.7s-259.6 116.3-259.6 259.6c0 143.4 116.2 259.7 259.6 259.7m0-502.4c16.4 41 41.9 56.6 41.9 85.9 0 20-16.5 39.6-41.9 39.6-25.3 0-41.9-19.5-41.9-39.6.1-29.3 25.5-44.9 41.9-85.9m-14.4-4.4c-29.6 46.5-43 63.6-43 89.6 0 31.2 26.2 56.5 57.5 56.5 31.2 0 57.5-25.3 57.5-56.5 0-26-13.4-43.1-43-89.6 130 7.5 233.2 115.3 233.2 247.2 0 136.8-110.9 247.6-247.6 247.6-136.9 0-247.8-110.9-247.8-247.7 0-131.9 103.2-239.7 233.2-247.1" fill="#fff"/><path d="m104 226.9c-5.2 0-9.4 4.2-9.4 9.4v76.1c0 5.2 4.2 9.4 9.4 9.4s9.4-4.2 9.4-9.4v-76.1c0-5.2-4.2-9.4-9.4-9.4" fill="#fff"/><path d="m348 255.2c4.5 0 8.1-3.6 8.1-8.1v-12.1c0-4.5-3.6-8.1-8.1-8.1s-8.1 3.6-8.1 8.1v12.1c0 4.5 3.6 8.1 8.1 8.1" fill="#fff"/><path d="m259.6 484.7c124.3 0 225.1-100.8 225.1-225.1 0-104.3-70.9-192-167.2-217.6 5.1 6.4 22.1 29.8 22.1 60 0 43.6-35.9 79.1-80 79.1s-80-35.5-80-79.1c0-30.2 17-53.6 22.1-60-96.2 25.6-167.1 113.4-167.1 217.6 0 124.3 100.7 225.1 225 225.1m129.9-198.1h16.2v25.6c0 5.3 4.3 9.5 9.5 9.5 5.3 0 9.5-4.3 9.5-9.5v-10.9c0-2.6-1.6-6.2-3.5-7.9l-28.2-25.1c-2-1.7-3.5-5.3-3.5-7.9v-49.1c0-9.8 8-17.8 17.8-17.8h21c9.8 0 17.8 8 17.8 17.8v36.7h-21.4v-14.3c0-3.8-3.1-6.9-6.9-6.9s-6.9 3.1-6.9 6.9v16.7c0 2.6 1.6 6.2 3.6 7.9l28.2 25.2c1.9 1.7 3.5 5.3 3.5 7.9v7.2c0 50.3-21.7 95.6-56.7 128.1zm-77.9 35.2c3.8 0 6.9-3.1 6.9-6.8v-81.2c0-3.8-3.1-6.9-6.9-6.9v-33.4h48.1c9.8 0 17.8 8 17.8 17.8v43.9c0 6.8-7.7 9.9-7.7 9.9s7.7 3.1 7.7 9.9v39.9c0 3.8 3.1 6.8 6.9 6.8v92.2c0 17.4-4.4 21.1-4.4 21.1-8.4 6.8-17.4 12.9-26.9 18.2.9-3.2 1.6-6.9 1.6-11.5v-159.3c0-4.1-3.3-7.4-7.4-7.4s-7.4 3.3-7.4 7.4v29.7c0 5.3 4.3 9.6 9.6 9.6v118.4c0 15-8.2 19-8.2 19-11.5 5.3-23.6 9.5-36.2 12.6 3.8-3.8 6.6-9.1 6.6-16v-133.9zm-73.4-128.4h68.3v54.6h-16.2v-11.8c0-5.2-4.2-9.4-9.4-9.4s-9.4 4.2-9.4 9.4v19h18.7v24.4h-18.7v32.9c0 5.2 4.2 9.4 9.4 9.4s9.4-4.2 9.4-9.4v-25.8h16.2v169.1c0 15.7-17.8 19.2-17.8 19.2-9.5 1.4-19.2 2.2-29.1 2.2-8.1 0-16.1-.5-23.9-1.5 2.5-1.6 7.6-6.1 7.6-15.9v-138c3.8 0 6.8-3.1 6.8-6.8v-76.1c0-6.6-5.4-12-12-12v-33.5zm-58.1 248.5v-120.1c3.8 0 6.8-3.1 6.8-6.8v-81.2c0-3.8-3.1-6.9-6.8-6.9v-33.4h35.1v33.4c-3.8 0-6.8 3.1-6.8 6.9v81.2c0 3.8 3.1 6.8 6.8 6.8 3.8 0 6.8-3.1 6.8-6.8v-28.3h16.2v173.1c0 16.2-16.2 13.8-16.2 13.8-17.7-3.5-34.5-9.3-50-17.2 2.7-1.1 8.1-4.4 8.1-14.5m-40.2-38.3v-81.8c3.8 0 6.8-3.1 6.8-6.8v-81.2c0-3.8-3.1-6.9-6.8-6.9v-33.4h35.1v33.4c-3.8 0-6.8 3.1-6.8 6.9v81.2c0 3.8 3.1 6.8 6.8 6.8v120.1c0 13.9-12.2 9.3-12.2 9.3-13.3-7.7-25.5-17-36.3-27.6 4.6-.2 13.4-2.9 13.4-20m-66.8-192.4c0-9.8 8-17.8 17.8-17.8h26c9.8 0 17.8 8 17.8 17.8v192.4c0 19-12.4 17-17.8 10-27.4-31-43.9-71.1-43.9-114.9v-87.5z" fill="#fff"/><path d="m472.5 459.2c0-7.4-6-13.3-13.3-13.3-7.4 0-13.3 6-13.3 13.3 0 7.4 6 13.4 13.3 13.4 7.3-.1 13.3-6.1 13.3-13.4m-23.8 0c0-5.8 4.7-10.5 10.5-10.5s10.5 4.7 10.5 10.5-4.7 10.5-10.5 10.5-10.5-4.7-10.5-10.5" fill="#00205b"/><path d="m464.7 466.8-3-6.5c1.8-.6 3-2.3 3-4.3 0-2.5-2-4.5-4.5-4.5h-6.4v15.3h2.9v-6.2h2.1l2.9 6.2zm-4.6-9.1h-3.6v-3.3h3.6c.9 0 1.7.7 1.7 1.7 0 .9-.8 1.6-1.7 1.6" fill="#00205b"/><path d="m301.5 102.9c0-29.3-25.4-45-41.9-85.9-16.4 41-41.9 56.6-41.9 85.9 0 20 16.6 39.6 41.9 39.6 25.4-.1 41.9-19.6 41.9-39.6" fill="#d14520"/><g fill="#00205b"><path d="m274.1 12.5c29.6 46.5 43 63.6 43 89.6 0 31.2-26.2 56.5-57.5 56.5-31.2 0-57.5-25.3-57.5-56.5 0-26 13.4-43.1 43-89.6-129.9 7.4-233.1 115.2-233.1 247.1 0 136.8 110.9 247.6 247.6 247.6 136.8 0 247.6-110.9 247.6-247.6.1-131.9-103.1-239.7-233.1-247.1m-14.5 472.2c-124.3 0-225.1-100.8-225.1-225.1 0-104.3 70.9-192 167.2-217.6-5.1 6.4-22.1 29.8-22.1 60 0 43.6 35.9 79.1 80 79.1s80-35.5 80-79.1c0-30.2-17-53.6-22.1-60 96.3 25.6 167.2 113.3 167.2 217.6 0 124.3-100.8 225.1-225.1 225.1"/><path d="m306.5 286.6h-16.1v25.8c0 5.2-4.2 9.4-9.4 9.4s-9.4-4.2-9.4-9.4v-32.9h18.7v-24.4h-18.7v-19c0-5.2 4.2-9.4 9.4-9.4s9.4 4.2 9.4 9.4v11.9h16.1v-54.6h-68.3v33.4c6.6 0 12 5.3 12 12v76.1c0 3.8-3.1 6.8-6.8 6.8v137.9c0 9.9-5.2 14.3-7.6 15.9 7.8 1 15.8 1.5 23.9 1.5 9.9 0 19.6-.8 29.1-2.2 0 0 17.8-3.5 17.8-19.2v-169z"/><path d="m238.2 286.6h-16.2v28.4c0 3.8-3.1 6.8-6.8 6.8-3.8 0-6.8-3.1-6.8-6.8v-81.3c0-3.8 3.1-6.9 6.8-6.9v-33.4h-35.1v33.4c3.8 0 6.8 3.1 6.8 6.9v81.2c0 3.8-3.1 6.8-6.8 6.8v120.1c0 10-5.5 13.3-8.1 14.3 15.5 7.9 32.3 13.8 50 17.2 0 0 16.2 2.5 16.2-13.8z"/><path d="m175 441.9v-120.1c-3.8 0-6.8-3.1-6.8-6.8v-81.2c0-3.8 3.1-6.8 6.8-6.8v-33.4h-35.1v33.4c3.8 0 6.8 3.1 6.8 6.8v81.2c0 3.8-3.1 6.8-6.8 6.8v81.8c0 17.1-8.8 19.8-13.3 20 10.8 10.6 23 19.9 36.3 27.6 0 .1 12.1 4.7 12.1-9.3"/><path d="m446.1 248v-36.8c0-9.8-8-17.8-17.8-17.8h-21c-9.8 0-17.8 8-17.8 17.8v49.1c0 2.6 1.6 6.2 3.5 7.9l28.1 25.2c1.9 1.7 3.5 5.3 3.5 7.9v10.9c0 5.3-4.3 9.5-9.5 9.5-5.3 0-9.5-4.3-9.5-9.5v-25.6h-16.2v140.1c34.9-32.4 56.7-77.8 56.7-128.1v-7.2c0-2.6-1.6-6.2-3.5-7.9l-28.1-25.2c-2-1.8-3.6-5.3-3.6-7.9v-16.7c0-3.8 3.1-6.9 6.9-6.9s6.9 3.1 6.9 6.9v14.3z"/><path d="m134.8 403.6v-192.4c0-9.8-8-17.8-17.8-17.8h-26c-9.8 0-17.8 8-17.8 17.8v87.5c0 43.8 16.5 83.9 43.9 114.9 5.2 7 17.7 9 17.7-10m-21.4-91.2c0 5.2-4.2 9.4-9.4 9.4s-9.4-4.2-9.4-9.4v-76.1c0-5.2 4.2-9.4 9.4-9.4s9.4 4.2 9.4 9.4z"/><path d="m377.5 314.9v-39.8c0-6.8-7.7-10-7.7-10s7.7-3.1 7.7-9.9v-43.9c0-9.8-8-17.8-17.8-17.8h-48.1v33.4c3.8 0 6.9 3.1 6.9 6.8v81.2c0 3.8-3.1 6.8-6.9 6.8v134c0 6.9-2.8 12.2-6.6 16 12.6-3 24.8-7.2 36.2-12.6 0 0 8.2-4 8.2-19v-118.3c-5.3 0-9.6-4.3-9.6-9.6v-29.7c0-4.1 3.3-7.4 7.4-7.4s7.4 3.3 7.4 7.4v159.3c0 4.5-.6 8.3-1.6 11.4 9.5-5.3 18.5-11.4 26.9-18.2 0 0 4.4-3.7 4.4-21.1v-92.2c-3.7.1-6.8-3-6.8-6.8m-21.4-67.8c0 4.5-3.6 8.1-8.1 8.1s-8.1-3.6-8.1-8.1v-12.1c0-4.5 3.6-8.1 8.1-8.1s8.1 3.6 8.1 8.1z"/></g></svg>