<?xml version="1.0" encoding="UTF-8" standalone="no"?>
<svg xmlns:rdf="http://www.w3.org/1999/02/22-rdf-syntax-ns#" xmlns="http://www.w3.org/2000/svg" height="273.67695" width="229.77594" version="1.1" xmlns:cc="http://creativecommons.org/ns#" xmlns:dc="http://purl.org/dc/elements/1.1/" viewBox="0 0 229.77594 273.67695"><path d="M0,0V190.64578l115.04107,83.03117L229.77594,190.6458V.00043H0Z"/><path d="M5.68723,5.68722V187.73909l109.35214,78.92064,109.049-78.92065V5.68722H5.68723Z" fill="#a2aaad"/><path d="M115.04108,260.0813l103.71624-75.068V11.01865H11.01865v173.9955l91.33683,65.913ZM17.65311,17.11555H212.44575v114.9547H17.65311Zm0,120.96522H212.44575v42.89045l-97.39654,70.39686-.00086.00086-39.326-28.42541L17.65268,180.97081V138.07992Z" fill="#fff"/><path d="M23.78678,23.271h.00086v-.00171H206.30436v99.75113h-.00128v.00128H23.78721V23.271Z" fill="#a2aaad"/><path d="M23.7902,148.76029h-.00171V177.8229l91.25772,65.95324.00086-.00087,91.26243-65.95151V148.76115Zm182.51416-25.73983V23.26933H23.78721v99.75113H206.30436Z"/><path d="M115.04108,260.0813l103.71624-75.068V11.01865H11.01865v173.9955l91.33683,65.913ZM17.65311,17.11555H212.44575v114.9547H17.65311Zm0,120.96522H212.44575v42.89045l-97.39654,70.39686-.00086.00086-39.326-28.42541L17.65268,180.97081V138.07992Z" fill="#fff"/><path d="M206.30436,123.02046V23.26933H23.78721v99.75113H206.30436ZM23.7902,148.76029h-.00171V177.8229l91.25772,65.95324.00086-.00087,91.26243-65.95151V148.76115Z"/><path d="M212.44147,17.11513h.00428V132.06982h-.00428ZM115.04835,251.36894l.00086-.00086-39.32647-28.425Zm91.26115-73.54561-91.262,65.95153.00086.00086,91.26285-65.952V148.76115h-.00172Z" fill="none"/><path d="M17.65653,180.97164V138.08077H212.44017v42.89045l-97.391,70.39686,97.397-70.39686V138.08034H17.65311v42.89088l58.06963,41.97231ZM5.68723,5.68722h0ZM48.41,43.41388a63.95947,63.95947,0,0,0-2.30542,9.50394A63.98694,63.98694,0,0,1,48.41,43.41388Zm59.51079,45.94767q-1.25029.84974-2.577,1.578,1.32507-.727,2.577-1.57672v-.00128ZM49.45563,40.63164H31.79569l.00086.00213H49.45521ZM31.79568,105.65431h0Zm77.90158-19.6737-.00385.00342a38.57222,38.57222,0,0,1-6.182,21.247,38.55716,38.55716,0,0,0,6.18586-21.25043Zm12.364-12.83742c0-25.06843-5.83262-34.06262-5.85486-34.09683h-.00086s5.85144,8.98178,5.85144,34.09811c0,18.83767-3.29156,28.59648-4.93714,32.299,1.64643-3.70125,4.94141-13.46092,4.94141-32.29987Zm-18.555,34.09554.00087-.00128H29.2696s5.83818-8.97794,5.83818-34.09426c0-25.06843-5.81465-34.06262-5.83732-34.09683H29.264s5.84288,8.98178,5.84288,34.09811c0,25.11675-5.84288,34.09426-5.84288,34.09426h74.24223Z" fill="none"/><path d="M36.68151,73.144a120.67583,120.67583,0,0,1-1.50274,20.053A120.66039,120.66039,0,0,0,36.68151,73.1449ZM81.34069,96.38687a56.80091,56.80091,0,0,0,15.35408-1.96544,56.83933,56.83933,0,0,1-15.35408,1.96416H44.57023v.00129H81.34069ZM32.843,43.41388a63.81772,63.81772,0,0,1,2.30585,9.50394A63.77673,63.77673,0,0,0,32.843,43.41388Zm19.143-4.36752ZM183.95232,107.237h16.87905v.00129H183.95232ZM133.09361,81.83846v25.399H116.206l-.00044.00129h16.89233V81.84017h50.85443v-.00171Z" fill="none"/><path d="M131.51433,80.24976h.00086v25.40413h-.00086ZM193.82274,84.223c-.26-3.29584-.4208-6.96373-.4208-11.0798,0-3.45792.109-6.61563.29849-9.4911-.18986,2.87632-.29935,6.03489-.29935,9.4941,0,4.11521.16122,7.78182.42166,11.07681Zm1.20554-7.58467q-.0424-1.74724-.04275-3.49513C194.98511,74.34914,195.00262,75.50634,195.02828,76.63832Zm-73.78979,21.076a109.08426,109.08426,0,0,0,2.40506-24.56809,109.47547,109.47547,0,0,0-2.37129-24.42311,109.63254,109.63254,0,0,1,2.36744,24.42012,109.25527,109.25527,0,0,1-2.40164,24.57108Zm77.05827,7.94c-.37419-.872-.807-2.01035-1.25555-3.40788.44732,1.39669.87752,2.53507,1.24871,3.40788h.00684Zm0-65.02267h-.006c-.36479.85828-.78687,1.97186-1.22647,3.33647.44048-1.36418.86468-2.47819,1.23247-3.336Z" fill="none"/><path d="M185.5346,49.90379H131.51475V70.98146H185.5346ZM183.9519,69.4026H133.097V51.47794h50.854V69.4026Z" fill="#a2aaad"/><path d="M81.35308,94.81272h-35.201V73.14448c0-22.76985,4.79473-32.27892,5.69064-33.85692.0911-.16079.14112-.23819.14326-.24119H29.2696c.02267.03421,5.83732,9.0284,5.83732,34.09683,0,25.11632-5.83818,34.09426-5.83818,34.09426h74.238l.00428-.00641a38.5705,38.5705,0,0,0,6.182-21.247c-.07484.07783-8.55072,8.82869-28.34033,8.82869Zm113.632-21.66953c0-2.82031.077-5.42636.20785-7.85024,1.03489-19.15841,5.63933-26.24659,5.63933-26.24659H116.206c.02224.03422,5.85443,9.0284,5.85443,34.09683,0,18.83938-3.29413,28.599-4.941,32.29987a14.25755,14.25755,0,0,1-.91343,1.794h16.88761V81.83846h50.85871V107.237h16.87905c-.01709-.02651-5.2955-8.18294-5.80311-30.5987-.02566-1.132-.0432-2.28918-.0432-3.49513ZM183.9519,69.4026H133.097V51.47794h50.854V69.4026Z" fill="#a2aaad"/><path d="M96.69477,94.42142a56.80052,56.80052,0,0,1-15.35408,1.96544H44.57023V73.14319a120.10258,120.10258,0,0,1,1.53439-20.22537A63.95947,63.95947,0,0,1,48.41,43.41388q.46821-1.40988,1.04516-2.78011H31.79654q.57762,1.369,1.04644,2.78011a63.79039,63.79039,0,0,1,2.30585,9.50394,120.21817,120.21817,0,0,1,1.53268,20.22537v.00128a120.66219,120.66219,0,0,1-1.50274,20.05261,62.54822,62.54822,0,0,1-2.50514,10.16678q-.40052,1.15944-.87709,2.29046h70.85958a32.1317,32.1317,0,0,0,2.47305-4.89608,39.90642,39.90642,0,0,0,2.79123-11.3954q-1.25029.84879-2.57655,1.57672a40.30531,40.30531,0,0,1-8.64908,3.48187Zm97.128-10.19843c-.26044-3.295-.42166-6.9616-.42166-11.0768,0-3.45963.10947-6.61778.29935-9.49367a81.9658,81.9658,0,0,1,3.36385-19.68441c.43918-1.36418.86171-2.47819,1.22648-3.336H118.7496a48.319,48.319,0,0,1,2.52309,8.091,109.50682,109.50682,0,0,1,2.37086,24.42312,109.05353,109.05353,0,0,1-2.40549,24.56808,47.86178,47.86178,0,0,1-2.48846,7.94005h12.76473V80.24976h.00086v-.003h54.02027v25.40754h12.75446c-.37119-.87238-.80141-2.0112-1.24871-3.40788A80.0344,80.0344,0,0,1,193.82277,84.223ZM185.535,70.98146H131.51388V49.90379H185.5346V70.98146Z" fill="#fff"/><path d="M147.85241,172.73566c-.0094.01283-5.52942,7.38113-6.55619,8.756l-.00128-.00128-.00256.00342a22.96964,22.96964,0,0,0-3.762-3.56825,29.543,29.543,0,0,0-8.66875-4.58263l.00042-.00214c.32073-.7766,1.43859-3.50068,2.09415-5.09879l.48838-1.19312-1.33.53968q-1.66326.67791-3.32535,1.35862l.00214-.0047-.00642.00257c.1394-.29208.28652-.56449.28994-.5709l-2.6377.13556c-1.33638.07057-2.75787.14668-3.14617.17106-.056-.10179-.1625-.29123-.29806-.53285-.4409-.78344-1.22861-2.17756-1.91883-3.401-.60469-1.07-1.13325-2.00479-1.27994-2.26651.11931-.2104.337-.59142.56962-.996.39214-.68808.82621-1.44671.89805-1.5549.07868-.07827.40283-.35794.72529-.63292.36264-.31346.72144-.62137.72144-.62137l-1.658-3.1483-1.65413.11375-1.87308.13085-.01581.43492c-.01711.50974-.04491,1.31115-.05089,1.51812l-.24846.4037-.15694.2647-.003-.00512-.00171.00257-.22152-.3635-.18817-.30449c-.00854-.3079-.07013-1.94064-.07056-1.95133l-1.53567-.10734-1.99366-.13685-.73812,1.39968-.91815,1.74821s1.27438,1.08964,1.45527,1.25256c.11033.17662,1.14182,1.98427,1.47281,2.553-.37077.65258-3.10042,5.48109-3.49684,6.2-.43106-.02609-2.06808-.1129-3.49427-.18816-1.22819-.06371-2.30029-.11846-2.30029-.11846s.08424.15822.18817.36564q.05182.10229.10221.20527l.00086.00214c-.33142-.136-.76975-.3156-1.24358-.5089-1.50231-.61152-3.36341-1.3676-3.41089-1.38726.00984.02565.55509,1.36119,1.15121,2.81859.57732,1.40737,1.2004,2.9238,1.42662,3.47161l-.00086.00043.00043.00171a28.5061,28.5061,0,0,0-11.44758,7.042c-.01283.01283-.02865.02694-.04106.0402-.03122.0325-.05473.06329-.08553.09622q-.44676.47114-.86.97246l-.2369-.31732c-1.44544-1.93038-6.31629-8.44166-6.31629-8.44166l-1.40182.6081,6.764,38.81672s9.63907,2.4645,27.44013,2.4645c17.7968,0,27.43586-2.4645,27.43586-2.4645l6.76831-38.81672-.84458-.36776-.55379-.23948Z" fill="#fff"/><path d="M103.2933,186.76877a2.15289,2.15289,0,0,0-2.1519,2.14334v.00086a2.15169,2.15169,0,1,0,4.30337,0v-.00086a2.14419,2.14419,0,0,0-2.14505-2.14336Zm23.0645,0a2.15317,2.15317,0,0,0-2.1519,2.14334v.00086a2.154,2.154,0,1,0,4.30808,0v-.00086A2.15106,2.15106,0,0,0,126.3578,186.76877Z"/><path d="M141.2556,184.0186v.00043l-.01284-.01839a15.96524,15.96524,0,0,0-1.10674-1.57372,18.1175,18.1175,0,0,0-1.30475-1.46468l-.0355-.03549q-.71046-.71162-1.48777-1.35136l-.0727-.05987q-.79168-.6455-1.63743-1.22007c-.04276-.0295-.08595-.05815-.12957-.08766q-.94826-.63585-1.94877-1.188-1.03377-.57137-2.11083-1.05842-1.11231-.50388-2.26009-.92328-1.07505-.39341-2.17371-.71715c-.03634-.01069-.07141-.02267-.10777-.03336l.00086-.00171,1.13924-2.7754.68-1.65625.00086-.00257-9.335,4.18876v-2.2973l-4.30337-7.42088-.00171.003-4.31491,7.4179v2.2973l-.003-.00128-9.32776-4.18747.86384,2.09845.96176,2.3375A27.72721,27.72721,0,0,0,91.271,180.94515a16.94491,16.94491,0,0,0-2.4397,3.07347L82.805,175.94387l-.00171-.003,2.07407,12.06338,3.87872,22.55559s7.69158,1.92011,20.66157,2.28361l.01882.00043s-8.81629-.82363-14.05534-2.82415l-.00642-.00257q.90207.12732,1.80551.2446c1.74136.22709,3.78806.46057,5.95706.64361,2.24513.18944,4.60658.32372,6.88078.32415l.018.00043a71.17094,71.17094,0,0,1-7.45938-1.25556,34.65686,34.65686,0,0,1-4.4462-1.29319l.01582.00214c1.206.16251,2.59023.33185,4.06431.4858a91.97869,91.97869,0,0,0,9.30338.54824h.01283a59.63425,59.63425,0,0,1-11.73239-2.46407l-.00128-.00043q1.98689-.42,3.99419-.73256a70.969,70.969,0,0,1,20.56192-.27883c2.13523.27754,4.13318.62565,5.94,1.01137l-.00384.00128a59.41388,59.41388,0,0,1-11.71228,2.46323h.01155a92.20638,92.20638,0,0,0,9.40643-.55978q1.99-.20913,3.97324-.476a35.20718,35.20718,0,0,1-4.5561,1.31714,71.42526,71.42526,0,0,1-7.35374,1.23161l.012-.00043c2.28746-.00043,4.66387-.13685,6.92311-.328,2.25325-.19074,4.38335-.43619,6.16533-.67141.55424-.0727,1.08065-.145,1.56091-.213l-.00556.00214c-5.23479,2.00052-14.05619,2.82459-14.05619,2.82459l.02438-.00086c12.97085-.3635,20.65174-2.28361,20.65174-2.28361l5.96093-34.61385.00086-.0047-6.03618,8.07732Zm-21.89788,6.4929V174.88287l2.70014-1.21236,5.17533-2.32381-.00128.003-5.25146,12.78353-2.62273,6.38557v-.00729Zm6.8782-14.69637.00086-.00171a27.45656,27.45656,0,0,1,10.85358,5.79285,15.51562,15.51562,0,0,1,3.09185,3.83039l.00087.00171-1.51088,2.01891-.13342.17748a15.96721,15.96721,0,0,0-4.04338-5.05689q-.34719-.28854-.70987-.55764c-.1642-.12145-.328-.23264-.4918-.34511-.07355-.05047-.14753-.106-.22066-.15481-.15695-.10392-.31217-.198-.46826-.29421-.08-.04917-.16078-.10349-.24076-.15052-.15308-.0911-.30363-.1732-.455-.25659-.08-.04448-.16123-.09281-.24076-.13514-.15138-.08082-.29935-.1531-.44816-.22665-.07611-.03806-.15394-.07955-.22963-.11546-.14839-.071-.29252-.13428-.437-.19842-.07186-.03165-.14541-.06672-.21555-.09707-.15308-.06544-.30063-.124-.44774-.18218-.05646-.02224-.11547-.04746-.17107-.06885-.15822-.06073-.31-.11546-.46014-.16764-.03977-.01411-.08211-.03037-.12144-.044-.16593-.05688-.32457-.10819-.47854-.15567-.018-.006-.03806-.01283-.056-.018a12.73367,12.73367,0,0,0-2.05268-.473l-.01369-.00171a22.34367,22.34367,0,0,1,4.92088,2.49316,13.80636,13.80636,0,0,1,4.90592,5.61923,12.74492,12.74492,0,0,1,.82621,2.39052l-1.53439,2.06423c0,.00214.198,5.51233-.90405,7.83527q-.35008-.13051-.703-.25317c-.15951-.05559-.31946-.1116-.49606-.16977v-.00128c1.22734-5.06115.66329-8.69953-.60555-11.29619q-.22014-.4506-.47937-.88051c-.11975-.198-.2476-.38061-.37461-.56493-.05217-.07569-.10049-.15822-.15352-.23135-.13257-.1826-.27112-.35067-.40969-.51915-.05259-.06414-.10263-.13514-.15653-.19757-.13985-.16294-.284-.31219-.42764-.46185-.0556-.05816-.109-.12188-.16507-.17789-.14966-.14968-.30149-.2861-.4533-.42209-.05131-.047-.10263-.09921-.1548-.14455q-.238-.204-.48666-.39514c-.04192-.0325-.08381-.06971-.12573-.10135q-.24956-.18759-.50848-.36221c-.0325-.02224-.06544-.0479-.09793-.06971-.17449-.11675-.34639-.22236-.51574-.32415-.02437-.01454-.0496-.03208-.074-.04618q-.27777-.16422-.541-.30149l-.01839-.01025a10.68241,10.68241,0,0,0-2.26352-.90446l-.00513-.00087c8.18679,4.21913,7.426,11.75249,5.75992,16.71743l-.00086.003c-.39172-.10393-.81253-.21383-1.25043-.325q-.49789-.12753-.99856-.24376l-.86854-4.29267-.26942-1.32912a2.66817,2.66817,0,0,0,.7056-4.8375,2.914,2.914,0,0,0-.37676-.38788,2.82753,2.82753,0,0,0-4.716,2.10786,3.00789,3.00789,0,0,0,1.39795,2.42944l-2.85751,5.20784c-.45073-.047-.91558-.0821-1.37786-.11974q-.7518-.06286-1.51386-.10691c-.44218-.02566-.88265-.0556-1.32825-.07312l8.39463-20.4362Zm.124,15.52814a2.4252,2.4252,0,1,1,2.19254-3.43054,2.36786,2.36786,0,0,1,.01754,1.97272,2.42423,2.42423,0,0,1-2.21006,1.45827Zm-11.31542-21.38342.00512-.00684,3.52336,4.5993-3.52336,4.17551-.00512-.006-3.5178-4.16952,3.5178-4.59288Zm-12.18612,1.389-.00086-.00214,7.08776,3.18251.78772.35366v15.6359l-.573-1.3954-7.30159-17.7741Zm-12.95117,14.09a15.78727,15.78727,0,0,1,3.45193-4.1524,27.82371,27.82371,0,0,1,10.49478-5.473l.00128.00342,8.39463,20.43449c-.5508.0218-1.09562.056-1.63915.09066-.875.0556-1.74222.12188-2.58511.20912l-.04961-.09066-2.5556-4.657-.00086-.00128a2.681,2.681,0,0,0,1.03789-3.65463c-.00428-.0077-.01155-.01369-.01582-.02138a2.70979,2.70979,0,0,0-.8942-.93225,2.83226,2.83226,0,0,0-4.78916,2.97639,2.86182,2.86182,0,0,0,1.51728,1.38941l-1.23932,6.09391c-.05388.01283-.10135.02565-.15437.038-.75266.1779-1.44758.36179-2.08989.53028l-.00043-.00128q-.12245-.36975-.23307-.74325c-.90147-2.99778-1.374-6.75077.12915-10.14027a12.14948,12.14948,0,0,1,5.863-5.83561l-.006.00171a9.23128,9.23128,0,0,0-1.41251.49905l-.01026.0047q-.23989.10455-.50761.23435c-.02481.0124-.05218.0278-.07784.0402-.1595.07954-.32287.16335-.49308.25743-.03891.02138-.08039.0479-.11974.07014-.16079.09151-.3233.18517-.4905.29079-.0479.02994-.09708.06585-.1454.09665-.16251.10564-.32543.21255-.49179.33142-.05047.03635-.10178.07955-.15266.11717-.16465.12231-.33015.2459-.49607.38274-.05218.0432-.10392.09322-.15567.13813-.16465.14069-.32928.28224-.49179.4379-.05131.04917-.10135.10605-.15223.15651-.16208.16123-.32415.32288-.482.50035-.04961.0556-.09665.11974-.1454.17661-.15608.18261-.31218.36521-.46185.5645-.04575.06158-.08724.13172-.13257.19457-.148.20569-.29507.41267-.43363.63633-.047.0757-.08766.16123-.133.23863-.13043.22281-.26172.44561-.381.68638q-.24811.50006-.44774,1.02207c-.96134,2.51283-1.27865,5.86726-.1963,10.33441q-.6011.20115-1.19484.42336a10.28008,10.28008,0,0,1-.70861-2.96185,36.6638,36.6638,0,0,1-.195-4.87342l-.92966-1.25-.60512-.81381c.00428-.01625.00941-.0325.01283-.04876.81124-3.38223,3.05978-6.83545,8.06962-9.344a25.33743,25.33743,0,0,1,2.56672-1.11016l-.00855.00086a13.77772,13.77772,0,0,0-2.68817.67567c-.02137.00727-.04575.018-.06756.02565a17.20434,17.20434,0,0,0-1.63574.66927c-.03464.01624-.06671.02864-.10178.04532-.01112.00513-.02309.0124-.03464.018a16.09309,16.09309,0,0,0-7.46194,7.2648l-1.48093-1.977-.16379-.219Zm14.95425,5.31346a2.39937,2.39937,0,0,1-1.56732.591,2.45639,2.45639,0,1,1,1.5673-.591ZM87.0587,196.12774l-.35281-2.0638a.47906.47906,0,0,1,.09707-.01369.95439.95439,0,0,1,.177-.02566h.00342a.94909.94909,0,0,1,.72913.35366,1.08286,1.08286,0,0,1,.25873.69962,1.02525,1.02525,0,0,1-.91,1.049l-.003.00086Zm.33912,1.953-.06585-.38788a2.42363,2.42363,0,0,0,1.55063-.96776,2.76564,2.76564,0,0,0-.02267-3.32321,2.36167,2.36167,0,0,0-1.87649-.96946H86.9813a2.02545,2.02545,0,0,0-.5444.07056l-.07526-.38788a2.94842,2.94842,0,0,1,.61923-.07483h.00257a2.938,2.938,0,0,1,2.83527,3.03755,2.98481,2.98481,0,0,1-2.42046,3.00334Zm55.73042-2.54277-.10049.58971h-.00128a1.02923,1.02923,0,0,1-.9113-1.04985,1.05211,1.05211,0,0,1,.52171-.91088.91415.91415,0,0,1,.46614-.14241l.00428.00043a.70166.70166,0,0,1,.2737.03891l-.25232,1.47409Zm.59143-3.42115-.06544.384v.00214a2.054,2.054,0,0,0-.55165-.07056,2.27739,2.27739,0,0,0-.9468.20612,2.65436,2.65436,0,0,0-1.49589,2.43928,2.59555,2.59555,0,0,0,2.0946,2.615l-.02565.1873-.02738.201-.00857-.00214a2.714,2.714,0,0,1-.95363-.34425,3.07047,3.07047,0,0,1-1.46726-2.65652v-.00086a2.93445,2.93445,0,0,1,2.831-3.03711,2.19571,2.19571,0,0,1,.23647.02864,3.35318,3.35318,0,0,1,.38061.04619l-.00041.00171Zm2.2524-13.12094-2.181,12.73306-.00041.00258c-.06886-.0154-.13985-.02652-.21041-.03892a2.69163,2.69163,0,0,0-.4687-.04961,3.34128,3.34128,0,0,0-3.23211,3.43525,3.498,3.498,0,0,0,.88564,2.33023,3.272,3.272,0,0,0,1.3.90617,3.07865,3.07865,0,0,0,.55852.14925l.003.00086-1.28379,7.4444-.61623,3.5721-.00041.00258c-.786-.30149-2.07109-.76463-3.75044-1.28293a76.46618,76.46618,0,0,0-7.64412-1.91884,73.88633,73.88633,0,0,0-14.282-1.43687,75.96163,75.96163,0,0,0-22.3144,3.47246q-1.70679.53232-3.37924,1.16661l-1.39754-8.1218-.49863-2.89771a3.28157,3.28157,0,0,0,2.32039-1.70672,3.55788,3.55788,0,0,0-.5076-4.0917,3.11862,3.11862,0,0,0-2.28917-1.02292,2.67381,2.67381,0,0,0-.48623.05259c-.0633.01155-.12829.02138-.18817.0355l-.00086-.00257-2.20363-12.73949-.00043-.00127,9.551,12.75231a26.765,26.765,0,0,0,.266,5.07655,10.76026,10.76026,0,0,0,1.02121,3.50839s1.398-.56278,3.36769-1.15464c1.01479-.30492,2.17884-.61709,3.38778-.8647l.89163-4.38377.41354-2.03216a3.095,3.095,0,0,0,.328.10691,2.70015,2.70015,0,0,0,.80525.13555,2.476,2.476,0,0,0,.54695-.0573l.00128.00257.95022,1.72939,1.95689,3.561.00171.003s1.1016-.10563,2.43071-.20527c1.19184-.08939,2.56586-.17406,3.49983-.17406l-1.77257-5.48965,1.20381-3.09486,2.08946-5.37119.00513-.01326,3.01617,7.79594.26429.68337-1.77258,5.48965h.00257c1.02634,0,2.57185.10092,3.8304.19842,1.182.09194,2.11128.1809,2.11128.1809l.00128-.00214,3.12948-5.72615.00342.00385a.05538.05538,0,0,1,.02737.02737,2.93724,2.93724,0,0,0,.69706.33014,2.69419,2.69419,0,0,0,.77574.12829l1.25641,6.17345q1.57654.32849,3.1218.78686l.01285.00342.01626.00513c2.0899.61624,3.59563,1.22392,3.59563,1.22392l.00128-.00214c.01284-.02138,1.16061-1.95176,1.30216-6.55278.01924-.62777.02138-1.30131-.00256-2.03l4.56-6.09947,4.97349-6.65285-.00128.0077Z"/><path d="M110.40072,171.47369l.1856-.31945,4.453-7.68346.00428.00727,1.69945,2.9178,2.95716,5.07783h3.68628l.45458-.87281h-3.67345l-4.62966-7.99436,2.28361-3.8847.5384-.55551-.00171-.00214-.04019-.05988-.33741-.49821h-.00385l-.53583.03977-.30235.02224-.00043.00171-.0325.16293-.10392.51874-1.959,3.39847-.00342.00556-.95406-1.667-.9947-1.73709-.14111-.68337-.33784-.02523-.49906-.03678h-.00086l-.10477.1531-.278.40627-.00086.00086.07868.07868.47682.47682.96648,1.65668,1.3,2.228-4.63266,7.99178-.00171.00258h-3.664l.44047.87281Zm-.84758,28.62172c-.03421-.02137-.06372-.05046-.10007-.06842l.00086.00128a1.569,1.569,0,0,1,.0975.17577,1.3642,1.3642,0,0,1,.2104.69578,1.42063,1.42063,0,0,1-1.41721,1.424h-.02907l.00342.00128c.05.02481.10349.04148.15566.06159a1.28415,1.28415,0,0,0,.22923.06115,1.05811,1.05811,0,0,0,.18944.02609,1.28326,1.28326,0,0,0,.65985-2.37854Zm-11.08237,1.88676-.00428-.003a1.31931,1.31931,0,0,1,.22152.39215c.009.02438.009.05217.01711.077a1.436,1.436,0,0,1,.0697.41267A1.44115,1.44115,0,0,1,97.355,204.285h-.02223a1.2826,1.2826,0,0,0,.30448.10777,1.1525,1.1525,0,0,0,.26.03379,1.29147,1.29147,0,0,0,1.2919-1.29106v-.00128a1.30411,1.30411,0,0,0-.71843-1.15207ZM122.063,200.027a1.67544,1.67544,0,0,1,.12787.22751,1.34936,1.34936,0,0,1,.18474.64233l.00043.003a1.42267,1.42267,0,0,1-1.42832,1.424h-.02224l.00342.00128a1.592,1.592,0,0,0,.16763.06672,1.18681,1.18681,0,0,0,.21168.05559,1.00519,1.00519,0,0,0,.186.02652,1.272,1.272,0,0,0,.46228-.09365,1.27938,1.27938,0,0,0,.10691-2.35332Zm11.01522,1.959-.01026-.00684a1.297,1.297,0,0,1,.13813.23948,1.35578,1.35578,0,0,1,.17532.64233,1.42815,1.42815,0,0,1-1.41978,1.424h-.02223a1.15546,1.15546,0,0,0,.23948.0928,1.17368,1.17368,0,0,0,.325.04833,1.27522,1.27522,0,0,0,1.07681-.62351,1.19893,1.19893,0,0,0,.01239-1.35263,1.35725,1.35725,0,0,0-.51487-.464ZM116.088,190.19334l.00171.00257c.018.02181.02652.05175.0432.07527a1.32277,1.32277,0,0,1,.26386.7736,1.43367,1.43367,0,0,1-1.39711,1.44757,1.18851,1.18851,0,0,0,.5153.12188,1.29981,1.29981,0,0,0,.50847-.10349c.0278-.012.047-.03593.074-.0496a1.27438,1.27438,0,0,0,.71844-1.12983,1.25815,1.25815,0,0,0-.72785-1.13754Zm-1.11529,2.302c.009,0,.018-.00257.02694-.003-.01582-.0077-.03336-.01068-.04918-.01881l.02224.02137Z"/><path d="M109.48387,200.89766a1.14631,1.14631,0,0,0-2.2926,0,1.13968,1.13968,0,0,0,1.12848,1.15076q.0088.00009.0176,0a1.14181,1.14181,0,0,0,1.14654-1.13706q0-.00665,0-.0133Zm-12.128,3.11966a1.09574,1.09574,0,0,0,.51958-.14325,1.161,1.161,0,0,0,.63035-1.01609,1.12339,1.12339,0,0,0-1.01523-1.11529,1.02554,1.02554,0,0,0-.13085-.02566l-.0047-.00086a1.1408,1.1408,0,0,0-1.15079,1.14181,1.16783,1.16783,0,0,0,1.15079,1.15977h.00086Zm24.03909-2.05824a1.12439,1.12439,0,0,0,.13642-2.01932,1.11766,1.11766,0,0,0-.58373-.18388,1.14541,1.14541,0,0,0-1.14224,1.1418,1.178,1.178,0,0,0,.089.45287,1.13112,1.13112,0,0,0,1.05329.6979,1.14906,1.14906,0,0,0,.44731-.0898Zm10.56707,2.05824a1.16556,1.16556,0,0,0,1.14138-1.1589,1.13883,1.13883,0,0,0-1.13582-1.14182h-.0017l-.00428-.00086a1.1425,1.1425,0,0,0-1.1555,1.14223,1.16868,1.16868,0,0,0,1.15506,1.15977h.00086Zm-16.54252-11.89787a1.16661,1.16661,0,0,0,.7039-1.0721,1.14875,1.14875,0,0,0-2.2973,0,1.16542,1.16542,0,0,0,.70005,1.07168,1.12348,1.12348,0,0,0,.89334,0Zm-28.183-2.6159-.00257-.0077-.34639.77531-.41994.93825-.00086.00171.63761.02438.7441.02865h.00257l-.15224-.43662Zm1.268,1.998.00342.00214.49179.31731.66455.42979.00043-.00214.38788-1.832-.04533.03165Zm2.22418,2.52908,1.2778-1.39283.00086-.00086-1.88292.15053.60383,1.24316Zm.12187.68594-.08125.92072-.04234.473,1.81235-.55166-.00385-.00171Zm-.29679,1.86623-.00086.00171-.75307,1.17173,1.84314.36136-.53113-.74837Zm-1.43,1.7264-.64147.2784-.62606.272.21852.2181,1.11486,1.111.01112.01111-.07483-1.89146Zm54.49754-7.10015-.64319-1.43688-.124-.278v.00086l-.077.22066-.54053,1.55106,1.3847-.0573Zm-3.58065-.78987-.00173-.00086.38359,1.83459.00556-.00385.4657-.30234.68422-.44389-.85657-.60383Zm-.67741,3.61145.00342-.00727.5166-1.05628.08851-.18046-1.8919-.14968Zm-.11672.68551-1.69562.84118-.00172.00128,1.81192.55123Zm-.807,3.40232,1.85171-.36135-.75394-1.173Zm3.78978.74068-.2861-.12487-.97929-.42678v.00171l-.0663,1.88846v.00171l.52557-.529Zm-25.712-24.43936a1.47835,1.47835,0,0,0-1.47494-1.48178h-.00257a1.4664,1.4664,0,1,0,0,2.93277h.00086a1.469,1.469,0,0,0,1.47709-1.451Zm-1.47665,1.26155a1.28016,1.28016,0,0,1-1.25684-1.26155,1.26352,1.26352,0,1,1,2.52694,0,1.30478,1.30478,0,0,1-1.2701,1.26111Zm7.24856,2.82457a1.37969,1.37969,0,0,0,.499-.10007c.02181-.00855.04148-.01839.06287-.02823a1.39748,1.39748,0,0,0,.68423-.68081,1.38053,1.38053,0,0,0,.12915-.55251c0-.01026.00513-.01839.00513-.02823a1.38983,1.38983,0,0,0-.65644-1.17814,1.51741,1.51741,0,0,0-.479-.39857,1.44492,1.44492,0,0,0-.68508-.17447,1.48594,1.48594,0,0,0-.57431.11418,1.47028,1.47028,0,0,0-.23221,2.58553,1.41192,1.41192,0,0,0,.44475.18817,1.25837,1.25837,0,0,0,.16849.08766,1.29385,1.29385,0,0,0,.61666.1685c.006,0,.01112-.00342.01711-.00342Zm-1.7016-1.67593v-.00086a1.25451,1.25451,0,1,1,2.509.00043v.00043a1.25451,1.25451,0,1,1-2.509,0Zm-11.81791-.89163c-.021-.02694-.04833-.04747-.07057-.07271a1.4632,1.4632,0,1,0-1.81063,2.23657,1.39358,1.39358,0,0,0,.3558.15138l.003.00171a1.316,1.316,0,0,0,.78173.254c.006,0,.01112-.00342.01753-.00342a1.403,1.403,0,0,0,.50247-.10049c.01839-.0077.03507-.01582.05346-.02395a1.39411,1.39411,0,0,0,.81765-1.23289c0-.01155.00683-.021.00683-.03249a1.38979,1.38979,0,0,0-.65728-1.17773Zm.09237.89163a1.26112,1.26112,0,0,1-2.52224,0v-.00086a1.26134,1.26134,0,0,1,2.52267.00043v.00043Z"/><path d="M115.03809,173.29546a1.11764,1.11764,0,0,0-1.111,1.12427,1.10461,1.10461,0,0,0,1.10672,1.10248l.00429,0a1.10686,1.10686,0,0,0,1.12043-1.10246,1.11958,1.11958,0,0,0-1.11485-1.12426Zm6.81064,2.42431a1.1155,1.1155,0,1,0,1.11573,1.111v-.00043a1.11017,1.11017,0,0,0-1.10929-1.111l-.00644,0Zm-14.24735,0a1.10759,1.10759,0,0,0-1.1157,1.09943l0,.01158a1.11486,1.11486,0,0,0,1.10972,1.12h.006a1.11872,1.11872,0,0,0,1.12-1.11743v-.003a1.11145,1.11145,0,0,0-1.11185-1.11105l-.00814,0Z"/><path d="M110.733,190.51791V174.88329l-.78773-.35409-7.08689-3.18039,7.30115,17.77455.573,1.39454Zm-1.31287-13.3694a1.38342,1.38342,0,0,1-.43619.97717,1.417,1.417,0,0,1-.38146.25572,1.38663,1.38663,0,0,1-.55593.124c-.00642,0-.01155.00385-.01753.00385a1.31631,1.31631,0,0,1-.78173-.254,1.41226,1.41226,0,0,1-.35922-.1531,1.461,1.461,0,1,1,1.81065-2.237c.02267.02566.05.04619.071.07312a1.38986,1.38986,0,0,1,.65686,1.17773c0,.01155-.006.02138-.00642.0325Zm17.81176-5.79884-5.17406,2.32082-2.70013,1.21237v15.62863l2.62316-6.3783,5.251-12.78353Zm-5.74325,6.90644a1.3966,1.3966,0,0,1-.44646-.19159,1.4696,1.4696,0,0,1,.80824-2.70056,1.43249,1.43249,0,0,1,.6838.17533,1.52861,1.52861,0,0,1,.479.399,1.3898,1.3898,0,0,1,.65643,1.17773c0,.00984-.00556.01838-.00556.02822a1.37959,1.37959,0,0,1-.372.9126,1.39767,1.39767,0,0,1-.44134.32073c-.02137.00984-.04062.01966-.06243.02823a1.38147,1.38147,0,0,1-.49906.10007c-.006,0-.01112.00342-.01711.00342a1.29233,1.29233,0,0,1-.61665-.1685,1.24588,1.24588,0,0,1-.16679-.08467ZM118.567,174.5523l-3.5225-4.59288-3.51779,4.59288,3.51779,4.16952Zm-3.52678,1.31842h-.00086a1.4664,1.4664,0,1,1,0-2.93277h.00086a1.47834,1.47834,0,0,1,1.4775,1.47922v.00256a1.469,1.469,0,0,1-1.47708,1.451h-.00042Z" fill="#a2aaad"/><path d="M140.99986,185.64108l-4.56,6.099c.024.72912.02182,1.40267.00255,2.03-.13685,4.62838-1.30133,6.5532-1.30133,6.5532h-.00041l-.00128.00214s-1.50615-.60767-3.596-1.22434l-.01626-.0047-.01284-.00385q-1.54937-.45756-3.13291-.7843l-1.24786-6.17346a2.62421,2.62421,0,0,1-.77276-.13043,2.93685,2.93685,0,0,1-.69706-.33014.059.059,0,0,0-.0278-.02779l-.00127-.00087-3.1312,5.72358H122.503l-.00128.00171s-.92927-.08852-2.11128-.18047c-1.26026-.09665-2.807-.19629-3.83083-.19629l.00086-.00214h-.00257l1.77258-5.49009-.26471-.68337-3.0213-7.78224-2.08945,5.37119-1.1974,3.097,1.76831,5.48966c-.93269,0-2.30756.08382-3.50154.17192-1.32911.09964-2.43115.20527-2.43115.20527l-.00171-.003-.0094.00086-1.94707-3.56184-.95021-1.72939a2.60039,2.60039,0,0,1-.55124.05687,2.67308,2.67308,0,0,1-.80269-.13769,3.23137,3.23137,0,0,1-.328-.10691l-.4131,2.03216-.88566,4.38591c-1.21151.24632-2.37769.55807-3.3942.86256-1.96972.59186-3.36726,1.15464-3.36726,1.15464a10.73338,10.73338,0,0,1-1.02121-3.50839,26.91606,26.91606,0,0,1-.278-5.07869L84.10451,178.99,86.30858,191.729c.062-.01283.1253-.02224.18816-.03293a2.69468,2.69468,0,0,1,.48666-.053,3.1195,3.1195,0,0,1,2.28917,1.02292,3.54874,3.54874,0,0,1,.5076,4.09212,3.27822,3.27822,0,0,1-2.32039,1.70629l.49863,2.89771,1.40353,8.11965q1.66875-.63278,3.37325-1.16447a75.90175,75.90175,0,0,1,22.30328-3.47416,73.90065,73.90065,0,0,1,14.29311,1.439,76.49794,76.49794,0,0,1,7.64454,1.91926c1.67849.51745,2.96356.97931,3.75044,1.27994l.6158-3.5721,1.28121-7.44526a3.08774,3.08774,0,0,1-.55807-.14968,3.222,3.222,0,0,1-1.3-.90575,3.49811,3.49811,0,0,1-.88608-2.33066,3.34118,3.34118,0,0,1,3.23212-3.43483,2.69407,2.69407,0,0,1,.4687.04917c.07055.012.14154.02309.21082.03678l2.181-12.73307-4.97221,6.64472Zm-51.8098,14.55867-1.11529-1.12213-.21852-.2181.62565-.27156.64189-.27967v.00086l.00214-.00086.07483,1.89146-.01111-.01111v.01111Zm-1.34066-8.93346-.745-.03079-.63761-.02438.00086-.00171-.00727-.00043.42678-.93782.34639-.77531.003.0077.00428-.00984.45758,1.33382.15267.43619h-.00257Zm1.81662.98357-.00128-.00128v.00214l-.66541-.42978-.49308-.31645.00171-.00086-.00342-.00214,1.50274-1.05329.047-.03293Zm.45843.53754,1.88292-.15052-.00086.00086h.00086l-1.27865,1.39369v-.00086l-.60426-1.24317Zm-.32629,4.96964.75436-1.173v.00043l.00128-.00171.55807.786.53413.74965-1.84743-.36136Zm.92884-1.64686.04233-.473.07868-.92285,1.68877.84245H92.5355l.00428.00214-1.81278.55081Zm5.47725,6.74821a1.14089,1.14089,0,0,1,1.15079-1.14223l.0047.00086h.00086a1.09132,1.09132,0,0,1,.13.02566,1.12338,1.12338,0,0,1,1.01522,1.11529,1.16152,1.16152,0,0,1-.63034,1.01608,1.07783,1.07783,0,0,1-.51489.14455l-.0047-.00128h-.00126a1.16737,1.16737,0,0,1-1.15079-1.1589Zm1.69859,1.5703a1.12547,1.12547,0,0,1-.26556-.03593,1.30241,1.30241,0,0,1-.30449-.10777h.00257l-.00556-.00214h.03079a1.438,1.438,0,0,0,1.41422-1.42192,1.42409,1.42409,0,0,0-.07014-.41267c-.0077-.02481-.0077-.05259-.01667-.077a1.31976,1.31976,0,0,0-.222-.39215l.00428.003-.003-.00556a1.30716,1.30716,0,0,1,.72314,1.15977,1.2929,1.2929,0,0,1-1.28721,1.29234Zm9.28841-3.531a1.1463,1.1463,0,1,1,1.15981,1.15077c-.00444,0-.00886,0-.0133,0a1.13966,1.13966,0,0,1-1.14654-1.13275c0-.00588,0-.01174,0-.01761Zm1.70458,1.57757a1.0386,1.0386,0,0,1-.192-.02736,1.27185,1.27185,0,0,1-.22922-.06159c-.0526-.01967-.10692-.03678-.15652-.06116h.00086l-.00342-.00127h.02224a1.42063,1.42063,0,0,0,1.424-1.41721v-.00684a1.36414,1.36414,0,0,0-.2104-.69578,1.58005,1.58005,0,0,0-.10434-.18046l.00684.00428-.00086-.00128c.03635.01839.06544.047.10007.06842a1.27082,1.27082,0,0,1,.61709,1.07937,1.29219,1.29219,0,0,1-1.27438,1.30088Zm4.92559-11.42919a1.1531,1.1531,0,0,1,2.30585,0,1.16232,1.16232,0,0,1-1.15464,1.16533,1.12473,1.12473,0,0,1-.44646-.09237,1.16361,1.16361,0,0,1-.70476-1.07339Zm2.27592,1.4155c-.02694.01326-.04619.03721-.074.04917a1.3,1.3,0,0,1-.50846.1035,1.19014,1.19014,0,0,1-.51531-.12188c-.009,0-.018.003-.02693.003l-.02224-.0218c.0154.00854.03335.01112.04917.01882a1.43368,1.43368,0,0,0,1.39711-1.44758,1.326,1.326,0,0,0-.26386-.774c-.01752-.02352-.02565-.05389-.04532-.07613l.00214.00128-.00171-.00257a1.25813,1.25813,0,0,1,.72785,1.13753,1.27507,1.27507,0,0,1-.71844,1.13027Zm3.79747,8.889a1.17782,1.17782,0,0,1-.0898-.45416,1.1469,1.1469,0,0,1,1.14266-1.14052,1.22014,1.22014,0,0,1,1.15462,1.14052,1.143,1.143,0,0,1-.70731,1.06268,1.15676,1.15676,0,0,1-.44731.08981,1.13111,1.13111,0,0,1-1.05329-.69834Zm2.06167,1.02976a1.25575,1.25575,0,0,1-.46271.09493,1.01765,1.01765,0,0,1-.18559-.02737,1.24607,1.24607,0,0,1-.21168-.056c-.05816-.02138-.118-.04063-.17149-.06672h.00385l-.00342-.00128h.02181a1.41975,1.41975,0,0,0,1.42831-1.41117c0-.00529,0-.01059,0-.01587a1.34829,1.34829,0,0,0-.18517-.64233,1.57406,1.57406,0,0,0-.13257-.23093l.00513.00342a1.27921,1.27921,0,0,1-.10649,2.35331Zm8.84964.47768a1.14212,1.14212,0,0,1,1.1555-1.14181l.00429.00086a1.13282,1.13282,0,0,1,1.138,1.12764c0,.00472,0,.00945,0,.01417a1.16268,1.16268,0,0,1-1.13752,1.15977l-.00428-.00128h-.00042a1.16831,1.16831,0,0,1-1.1555-1.15891Zm2.77454.94509a1.26049,1.26049,0,0,1-1.07211.62564,1.14922,1.14922,0,0,1-.32971-.05088,1.179,1.179,0,0,1-.23948-.0928h.006l-.00556-.00214h.02652a1.42086,1.42086,0,0,0,1.41121-1.424,1.386,1.386,0,0,0-.17148-.64019,1.298,1.298,0,0,0-.13813-.23947l.01026.00683-.00514-.00941a1.3475,1.3475,0,0,1,.52.4734,1.19968,1.19968,0,0,1-.0124,1.35307Zm7.38112-5.49522.00214.00128v-.00171l.97929.42678.28824.1253-.80825.81081-.526.529.00041-.0017-.00214.00214.06586-1.89147Zm-3.41344-2.751,1.69773-.84246v.00214h.00041l.11462,1.39326-1.81193-.55123.00214-.00128-.003-.00043Zm2.7429,2.20022-1.8517.36136,1.09776-1.53439Zm-.408-4.78961-.5089,1.06355-.0077-.0077-.00342.00684-1.28293-1.39326,1.89146.14968Zm1.01051-1.02078-.46615.30277-.00514.003-.38358-1.83459.00172.00128-.00086-.00385.68166.48367.85657.60383-.68422.44389Zm2.7275-.73726-1.3847.05731.54012-1.55107.07655-.22237.00042.00171.00042-.00086.124.278.64661,1.43687h-.00342v.00043Z" fill="#a2aaad"/></svg>