<?xml version="1.0" encoding="utf-8"?>
<!-- Generator: Adobe Illustrator 22.1.0, SVG Export Plug-In . SVG Version: 6.00 Build 0)  -->
<svg version="1.1" id="Layer_1" xmlns="http://www.w3.org/2000/svg" xmlns:xlink="http://www.w3.org/1999/xlink" x="0px" y="0px"
	 viewBox="0 0 250.3 146.6" width="413.20297494" height="242.011810332" style="enable-background:new 0 0 250.3 146.6;" xml:space="preserve">
<style type="text/css">
	.st0{fill:#FFFFFF;}
	.st1{fill:#FFB81C;}
	.st2{fill:#041E42;}
</style>
<g>
	<path class="st0" d="M2.8,43.1L10.5,33c0.4-0.6,1.1-1,1.8-1.1l72.5-14.5c-1-1-1-4.2,2-4.7c0.5-0.1,12-1.7,25.3-0.7l48.5-9.7
		c0.6-0.1,1.2,0,1.8,0.2l35.6,15.5c0.4,0.2,0.7,0.4,0.9,0.6l5.7,5.7l9.1,5.2c0.7,0.4,1.3,1.1,1.5,2L217,40l5.8,7.2l4,3.1l12.9,6.2
		c0.7,0.3,1.2,0.9,1.5,1.6l6.7,16.4c0.6,1.4,0,2.7-0.7,3.3c0,0-4.7,4.7-9.1,13.5c-0.5,1.1-1.7,1.7-2.9,1.7c-0.1,0-5.9-0.2-14.7,4.7
		c-0.4,0.2-1,0.4-1.5,0.4h-8.9c-22.2,27.5-54.2,42.7-97.6,46.4c-3.3,0.3-4.7-4.4-1.5-5.8l4.5-2c-1-0.6-1.4-3.7,1-4.8
		c0.4-0.2,41.6-18.5,53.6-53.5c-7.9,1.6-23.7,5-35.8,9c-7.9,2.6-12.8,6.7-15.7,10.1c1.2-0.5,2.8-1.2,4.2-1.2c3.3,0,4.7,2.6,4.7,2.6
		c0.3-0.1,0.6-0.2,0.9-0.2c2.7,0,5.7,2.2,5.7,5.5c0,5.2-8.1,11.7-14.5,14.5c-0.8,4-4.5,8.9-17.5,8.9c-11,0-18.5-5.3-20.8-7.1
		l-29.6-5.3c-2.4-0.4-3.1-3.1-1.9-4.7c0.1-0.1,8.1-11.6,8.1-23.4c0-31.8-52.5-39-53-39.1C2.5,47.6,1.4,44.9,2.8,43.1 M4.5,50
		C5,50.1,55.6,57.2,55.6,87c0,10.9-7.7,22-7.7,22.1c-2,2.8-0.8,7.4,3.3,8.1l29.1,5.3c3.1,2.4,10.7,7.2,21.6,7.2
		c13.3,0,17.9-5,19.3-9.6c6.5-3,14.9-9.6,14.9-16c0-4.5-4-7.6-7.8-7.6c-0.9-0.9-2-1.6-3.2-2c3-2.2,6.3-3.9,9.8-5
		c10.2-3.4,23.1-6.3,31.7-8.1c-13.2,31.7-50.7,48.4-51,48.6c-3.8,1.7-3,5.7-3,5.7l-2.5,1.1c-5.3,2.4-3.3,10.4,2.5,9.9
		c43.6-3.7,75.8-18.9,98.5-46.4h8c0.9,0,1.7-0.2,2.5-0.6c8.1-4.5,13.5-4.4,13.6-4.4c2.1,0.1,4-1,4.9-2.9c4.1-8.4,8.6-12.9,8.6-13
		c1.6-1.6,1.9-3.8,1.2-5.7l-6.7-16.4c-0.5-1.2-1.4-2.2-2.5-2.7l-12.7-6.1l-3.6-2.8L219,39l-1.8-8.1c-0.3-1.4-1.2-2.7-2.5-3.4l-8.8-5
		l-5.5-5.5c-0.5-0.5-1-0.8-1.6-1.1L163.2,0.4c-1-0.4-2-0.5-3.1-0.3l-48.2,9.6c-12.8-1-24.1,0.6-25.4,0.7c-4,0.7-4.6,4.2-4.4,5.2
		c-4.4,0.9-70.2,14-70.2,14c-1.2,0.2-2.4,0.9-3.1,1.9L1.1,41.8C-1.4,45,0.7,49.5,4.5,50"/>
	<path class="st0" d="M225.7,62.3c0,0,8,5.1,11.6-1.4L225,55.1c-3.4,2-6.8,3-9.9,3.5C221.1,60.2,225.7,62.3,225.7,62.3 M80.1,38
		c0,0-9.5,3.9-16.1,13.7c3.3-0.9,6.5-1.7,9.8-2.5C76.8,42.5,80.1,38,80.1,38"/>
	<path class="st0" d="M208.2,37l-1.7,6.5c0-4.9-2.9-7.8-11.5-12.8L208.2,37z M140.3,35.8c-7.1,0.3-12.7,2.9-17,6.1
		c5.8-0.4,11.5-0.5,17.3-0.5c2.9-3.8,4.6-8,4.6-12.4c0-7.6-3.9-12-3.9-12l18.8-4.2l5.8,2.9c0,0-13.8,5.3-13.8,20.3
		c0,2.1,0.3,4.1,0.8,5.8c9.9,0.5,20.2,1.6,30.6,3.5c0,0,3.4,8.2,12.7,8.2c4.5,0,7.9-2.5,7.9-2.5c10.1,7.6,19.3,3.4,19.3,3.4
		l-3.5-2.9l-3.3,1.8l2-3.1l-1.3-1.4l-4.4,2.3l2.8-4.2l-1-1.1l-3.8,1.6l2.2-3.7l-1.5-2.3c-1.4,6.2-6.9,6.9-11.7,6.6l-0.2-2.7
		c-2.1,1.3-4.7,1.4-6.8,0.2c-2.1-1.2-3.5-3.4-3.5-5.9c0-2.1-10.5-11.5-10.5-11.5l13.5,4.2c11.3,3.5,10.8,9.1,11,12.2
		c1.9,0.8,6.2,1.5,8.1-3l-1.4-7.4l-9-4.4l-6.2-5.8l-34.6-14l-34.1,7.6c8,1.9,14.7,6.1,14.7,6.1S143.7,29.3,140.3,35.8 M181.6,59.5
		c-3.6,1.8-6.8,4.3-10.4,7.4l4.1-7.7c0,0-10.9-0.4-21.3-0.2l-6.8,7.5c-2.6-0.8-5.3-1.2-8-1.3c-0.2-3.8,1.3-8.1,4.6-12.2
		c-4.4,3.3-7.1,7.6-7.6,12.3c-1.9,0.1-3.8,0.5-5.6,1c-0.9-3.1-0.8-7,0.6-11.2c-2.6,3.9-3.6,8.1-3.1,12c-1.8,0.7-3.6,1.5-5.2,2.6
		c-1.6-2.4-2.6-5.7-2.7-9.6c-0.9,4-0.7,7.7,0.7,10.9c-5.8,4.3-8.4,9.6-8.4,9.6c-18.4-3.3-29.6,12.1-30,22.9
		c-1.2-7.5,1.2-20.8,16.1-27.1l4.9-11.5c0.3-0.7,0.7-1.4,1.2-2C88.3,65.8,78,72.3,78,72.3s-4.5,8-2.6,16.1c0,0-2.9-4-4.6-10.7
		c-0.6,0.6-1.3,1.2-1.9,1.9c0.6,2.4,0.9,4.8,0.9,7.4c0,12.1-5,19.7-5,19.7l16.9,3.4c0,0,6.4,9.3,20.1,9.3c4.3,0,10-0.5,10-3.2
		c0-2.1-5.1-4.9-5.1-11c0-9.8,12.3-20,25.6-24.4c15.5-5.1,39.1-11,51-11c33.7,0,32.6,22.3,32.6,22.3l1.6-0.1
		c7.5-4.2,14.2-5,16.1-5.2C237,74.7,230.8,63.8,181.6,59.5 M48.7,37.7L92.3,28c0,0,1.7,5.6,9.2,10.1l-0.1,1.4c-3.5,0.7-8.9,2.9-14,7
		c8.5-1.6,17.1-2.8,25.7-3.6l2.2-5.2c-13.7,2-19.8-9.6-19.8-9.6l-1.1-3.5L15,42.2c8.6,0.6,18,3.3,26.6,7.7
		C43.7,43,48.7,37.7,48.7,37.7"/>
	<path class="st0" d="M197.7,76.6c-15.5,0-15.2,32.9-69.8,60.7c46.4-6.7,81.5-38.3,81.5-51.3C209.4,81.2,201.5,76.6,197.7,76.6
		 M109.5,106.4c1.1,4.9,4.4,6.3,4.7,8.1c0,0,8.5-1.8,14.2-10.2C117.4,109.9,109.5,106.4,109.5,106.4 M97.9,26.8c0,0,5,8.5,13.9,8.5
		l9.2-0.6l7.6-7.9l10.3-1.6c-3.8-2.3-8.2-4-12.6-5.2l-8.6,12.1l5.5-12.8c-1.6-0.3-3.2-0.6-4.8-0.9l-7.4,10.4l4.6-10.8
		c-1.9-0.2-3.8-0.4-5.6-0.5l-5.7,7.9l3.4-8.1c-8-0.3-13.9,0.3-13.9,0.3l2,1.7L97.9,26.8L97.9,26.8z M46.2,52.4
		c1.7,1,3.3,2.1,4.8,3.2c1.4-0.5,3.1-1,5-1.6C59,42.8,65,35.4,65,35.4C52.5,40,47.3,50.2,46.2,52.4"/>
	<path class="st1" d="M235.4,90c0,0-6.5-0.4-16.3,5.1h-8.2l-1.5-0.8c-22.2,28.6-53.7,43.5-97.1,47.2c0,0,14.7-6.5,22.7-10.7
		l-17.2,3.9c0,0,46.7-20.2,56.9-60.2c0,0-24.1,4.4-41.2,10.1c-17,5.6-21.6,17.9-21.6,17.9c6-0.6,9.2-3.2,11-3.2c2.2,0,3,2.3,2.4,3.6
		c1-0.4,2.3-1.2,3.2-1.2c1.1,0,2.6,0.9,2.6,2.4c0,3.7-8.2,10.4-14.3,12.3c0,2.3-0.9,8.1-14.7,8.1c-11.9,0-19.4-6.9-19.4-6.9
		l-30.4-5.5c0,0,8.7-12.2,8.7-25.1c0-34.9-55.6-42.1-55.6-42.1l7.7-10.1l78.4-15.7l-4.1-3.5c0,0,11.8-1.7,25-0.6l48.8-9.8l35.6,15.5
		l6,6l9.4,5.4l2.1,9.3l6.5,8l4.5,3.5l13.2,6.4l6.7,16.4C245.1,75.6,240.1,80.5,235.4,90 M247.9,74.5l-6.7-16.4
		c-0.3-0.7-0.8-1.3-1.5-1.6l-12.9-6.2l-4-3.1L217,40l-1.9-8.6c-0.2-0.8-0.7-1.5-1.5-2l-9.1-5.2l-5.7-5.7c-0.3-0.3-0.6-0.5-0.9-0.6
		L162.3,2.4c-0.6-0.2-1.2-0.3-1.8-0.2L112,11.9c-13.2-1-24.8,0.6-25.3,0.7c-3,0.5-3,3.7-1.9,4.7L12.3,31.8c-0.7,0.1-1.4,0.6-1.8,1.1
		L2.8,43.1c-1.4,1.8-0.3,4.5,2,4.8c0.5,0.1,53,7.2,53,39.1c0,11.7-8,23.2-8.1,23.4c-1.2,1.6-0.5,4.3,1.9,4.7l29.6,5.3
		c2.2,1.8,9.8,7.1,20.8,7.1c13,0,16.7-4.9,17.5-8.9c6.4-2.7,14.5-9.2,14.5-14.5c0-3.3-2.9-5.5-5.7-5.5c-0.3,0-0.6,0.1-0.9,0.2
		c0,0-1.4-2.6-4.7-2.6c-1.4,0-3,0.7-4.2,1.2c3-3.4,7.9-7.5,15.7-10.1c12.1-4,27.9-7.4,35.8-9c-12,34.9-53.2,53.3-53.6,53.5
		c-2.4,1.1-2,4.2-1,4.8l-4.5,2c-3.2,1.4-1.8,6.1,1.5,5.8c43.5-3.7,75.4-18.9,97.6-46.4h8.9c0.5,0,1-0.1,1.5-0.4
		c8.8-4.9,14.6-4.7,14.7-4.7c1.2,0.1,2.3-0.6,2.9-1.7c4.3-8.8,9-13.5,9.1-13.5C247.8,77.1,248.4,75.9,247.9,74.5"/>
	<path class="st1" d="M197.2,44.1c1.4,0,2.4-0.7,2.4-0.7c-0.1-0.5-0.2-1-0.3-1.4c-0.3,0.2-0.8,0.4-1.4,0.4c-1.5,0-2.5-1.2-2.5-2.5
		c0-1.1,0.7-2.1,1.8-2.4c-1.3-1.9-2.7-2.7-2.7-2.7s-2.3,1.3-2.3,4.2C192.2,42,194.7,44.1,197.2,44.1 M55,58.8c0.3-1.6,0.6-3.2,1-4.7
		c-1.9,0.6-3.6,1.1-5,1.6C52.4,56.6,53.8,57.7,55,58.8 M112.2,55.8l-5.3,1.2l6.1-14.3c-9.3,0.9-17.9,2.2-25.7,3.7
		C80,52.2,73.1,61.6,73.1,75.7c0,7,2.3,12.8,2.3,12.8C73.6,80.3,78,72.3,78,72.3s10.3-6.6,26.8-9.6c1.2-1.4,2.9-2.4,5.3-3
		c11.9-3.1,24-9.8,30.5-18.3c-5.9,0-11.7,0.2-17.3,0.5C115.5,47.8,112.2,55.8,112.2,55.8 M183.6,45.2c-10.4-1.9-20.7-3-30.6-3.5
		c2,7,6.8,10.8,6.8,10.8l-5.8,6.3c10.4-0.2,21.3,0.2,21.3,0.2l-4.1,7.7L182,55L183.6,45.2z M73.9,49.2c-3.6,0.8-6.8,1.7-9.8,2.5
		c-2.2,3.4-3.9,7.1-4.9,11c4.7,5,8.2,10.7,9.8,16.9c0.6-0.7,1.2-1.3,1.9-1.9c-0.8-3.2-1.2-6.5-1.2-9.8C69.6,61,71.6,54.5,73.9,49.2
		 M225.7,62.3c0,0-4.6-2.1-10.6-3.7c-9.2,1.3-16.2-2.5-16.2-2.5c-7.6,0-12.8,1.2-17.3,3.5c49.2,4.3,55.4,15.2,52.2,27.3
		c0.4,0,0.6,0,0.6,0s3.3-6.2,7.2-10.7c0,0-5-10.5-22.6-11.4L225.7,62.3L225.7,62.3z"/>
	<path class="st2" d="M46.2,52.4c1-2.2,6.3-12.4,18.8-17c0,0-6,7.4-8.9,18.6c-0.4,1.6-0.7,3.1-1,4.7c-1.3-1.1-2.6-2.2-4-3.1
		C49.5,54.5,47.9,53.4,46.2,52.4 M15,42.2l79.3-17.8l1,3.5c0,0,6.2,11.6,19.8,9.6l-2.2,5.2L106.9,57l5.3-1.2c0,0,3.3-8,11.1-13.9
		c4.3-3.2,9.9-5.8,17-6.1c3.3-6.5,0.8-12.4,0.8-12.4s-6.6-4.2-14.7-6.1l34.1-7.6l34.6,14l6.2,5.8l9,4.4l1.4,7.4l1.5,2.3l-2.2,3.7
		l3.8-1.6l1,1.1L213,51l4.5-2.3l1.3,1.4l-2,3.1l3.3-1.8l3.5,2.9c0,0-9.2,4.2-19.3-3.4c0,0-3.4,2.5-7.9,2.5c-9.3,0-12.7-8.2-12.7-8.2
		l-1.7,9.8l-10.7,11.8c3.6-3,6.7-5.5,10.4-7.4c4.5-2.2,9.7-3.5,17.3-3.5c0,0,7,3.9,16.2,2.5c3.1-0.4,6.5-1.5,9.9-3.5l12.3,5.8
		c-3.6,6.5-11.6,1.4-11.6,1.4l-6.8,2.4c17.6,0.9,22.6,11.4,22.6,11.4c-3.9,4.5-7.2,10.7-7.2,10.7s-0.2,0-0.6,0
		c-1.9,0.1-8.6,1-16.1,5.2l-1.6,0.1c0,0,1.1-22.3-32.6-22.3c-11.9,0-35.5,5.9-51,11c-13.2,4.4-25.6,14.6-25.6,24.4
		c0,6,5.1,8.9,5.1,11c0,2.8-5.7,3.2-10,3.2c-13.7,0-20.1-9.3-20.1-9.3l-16.9-3.4c0,0,5-7.6,5-19.7c0-2.5-0.3-5-0.9-7.4
		c-1.6-6.2-5.1-12-9.8-16.9c1-3.9,2.6-7.6,4.9-11C70.6,41.9,80.1,38,80.1,38s-3.3,4.5-6.2,11.2C71.6,54.5,69.6,61,69.6,68
		c0,3.7,0.5,7,1.2,9.8c1.7,6.7,4.6,10.7,4.6,10.7s-2.3-5.8-2.3-12.8c0-14,6.8-23.5,14.2-29.3c5.2-4,10.6-6.3,14-7l0.1-1.4
		C94.1,33.6,92.3,28,92.3,28l-43.6,9.8c0,0-5.1,5.3-7.1,12.2C33,45.5,23.6,42.8,15,42.2 M107.6,17.3l-3.4,8.1l5.7-7.9
		c1.9,0.1,3.8,0.3,5.6,0.5l-4.6,10.8l7.4-10.4c1.6,0.2,3.2,0.5,4.8,0.9l-5.5,12.8l8.6-12.1c4.4,1.2,8.7,2.9,12.6,5.2l-10.3,1.6
		l-7.6,7.9l-9.2,0.6c-8.9,0-13.9-8.5-13.9-8.5l-2.2-7.5l-2-1.7C93.7,17.6,99.6,17,107.6,17.3 M127.9,137.2
		c54.5-27.8,54.3-60.7,69.8-60.7c3.8,0,11.7,4.6,11.7,9.4C209.4,98.9,174.4,130.5,127.9,137.2 M128.4,104.3
		c-5.7,8.4-14.2,10.2-14.2,10.2c-0.3-1.8-3.6-3.2-4.7-8.1C109.5,106.4,117.4,109.9,128.4,104.3 M60.8,87c0,12.9-8.7,25.1-8.7,25.1
		l30.4,5.5c0,0,7.6,6.9,19.4,6.9c13.8,0,14.7-5.8,14.7-8.1c6.1-2,14.3-8.6,14.3-12.3c0-1.5-1.5-2.4-2.6-2.4c-0.9,0-2.2,0.7-3.2,1.2
		c0.6-1.3-0.2-3.6-2.5-3.6c-1.8,0-5,2.6-11,3.2c0,0,4.6-12.3,21.6-17.9c17.1-5.7,41.2-10.1,41.2-10.1c-10.2,40-56.9,60.2-56.9,60.2
		l17.2-3.9c-8,4.2-22.7,10.7-22.7,10.7c43.4-3.7,75-18.6,97.1-47.2l1.5,0.8h8.2c9.8-5.5,16.3-5.1,16.3-5.1
		c4.7-9.5,9.6-14.4,9.6-14.4l-6.7-16.4l-13.2-6.4l-4.5-3.5l-6.5-8l-2.1-9.3l-9.4-5.4l-6-6L161.1,5.2L112.2,15
		c-13.2-1.1-25,0.6-25,0.6l4.1,3.5L12.9,34.8L5.2,44.9C5.2,44.9,60.8,52.1,60.8,87"/>
	<path class="st2" d="M197.2,44.1c-2.5,0-5-2.1-5-5c0-2.9,2.4-4.2,2.4-4.2s1.3,0.8,2.7,2.7c-1.1,0.3-1.8,1.3-1.8,2.4
		c0,1.3,0.9,2.5,2.5,2.5c0.6,0,1.1-0.2,1.4-0.4c0.1,0.5,0.2,0.9,0.3,1.4C199.6,43.4,198.6,44.1,197.2,44.1 M203.6,44.4
		c-0.1-3.1,0.4-8.7-11-12.2L179.1,28c0,0,10.5,9.3,10.5,11.5c0,3.7,3,6.7,6.7,6.7c1.3,0,2.5-0.4,3.6-1l0.2,2.7
		c4.7,0.4,10.3-0.4,11.7-6.6C209.8,45.8,205.5,45.2,203.6,44.4"/>
	<path class="st2" d="M82.7,103.3c0.4-10.8,11.6-26.3,30-22.9c2.1-3.8,5-7,8.4-9.6c-1.4-3.4-1.7-7.3-0.7-10.9c0,3.4,0.9,6.7,2.7,9.6
		c1.7-1,3.4-1.9,5.2-2.6c-0.5-4.2,0.6-8.5,3.1-12c-1.4,3.6-1.6,7.5-0.6,11.2c1.8-0.5,3.7-0.8,5.6-1c0.6-4.7,3.2-9,7.6-12.3
		c-3.3,4.1-4.8,8.4-4.6,12.2c2.7,0.1,5.4,0.5,8,1.3l6.8-7.5l5.8-6.3c-3.3-2.8-5.7-6.6-6.8-10.8c-0.5-1.9-0.8-3.8-0.8-5.8
		c0-15,13.8-20.3,13.8-20.3l-5.8-2.9L141.4,17c2.6,3.5,4,7.7,3.9,12c-0.1,4.5-1.8,8.9-4.6,12.4c-6.4,8.5-18.6,15.2-30.5,18.3
		c-2,0.4-3.9,1.5-5.3,3c-0.5,0.6-0.9,1.2-1.2,1.9l-4.9,11.5C83.9,82.5,81.5,95.8,82.7,103.3 M206.5,43.5l1.7-6.5l-13.2-6.3
		C203.6,35.7,206.5,38.6,206.5,43.5"/>
</g>
</svg>
