<?xml version="1.0" encoding="UTF-8" standalone="no"?>
<svg xmlns="http://www.w3.org/2000/svg" width="154.2" height="183.5">
<path fill="#fff" d="m111.9 65.38-18.6-25.4-6.77 3.12a45.39 45.39 0 0 0 -5.19-1.33l1.51-1.55v-13.1h-1.7c2.38-5.99-3.58-17.09 16.22-27.13h-46.88c-32.78 10.29-23.42 70.11-23.42 70.11l3.52-1.33a18.23 18.23 0 0 0 -.49 8.25s-3.4 8.19.53 16.22l-2.38 3.34.62 17.71c-6.18 5.38-17.55 1.3-19.81 10.97-1.82 2.44-7.82 4.33-7.82 4.33-10.85 28.4 52.31 31.73 64.09 47.49a59.83 59.83 0 0 0 27.22 6.43 60.65 60.65 0 0 0 19.34-118.13z"/>
<path d="m110.32 67.45-17.83-24.34-5.78 2.69a51.28 51.28 0 0 0 -10.54-2.38l4.2-4.2v-9.58h-2.97c5.16-8.37-2.97-17.03 11.9-27.13h-38.41c-28.98 9.76-21.75 64.18-21.75 64.18l5.53-2.1s-3.46 7.26-1.98 12.73c0 0-3.83 8.28.8 16.19l-2.72 3.83.59 17.74c-3.86 6.74-18.51 3.06-19.87 10.63-.56 3.21-8.28 5.87-8.28 5.87-8.13 24.16 53.64 28.71 63.81 43.6a58.19 58.19 0 1 0 43.29-107.72z"/>
<path fill="#ce1126" d="m113.88 123.78s5.53 4.76 5.53 6.4-11.56 8.47-11.56 8.47c3.86-5.35 7.01-7.94 7.01-10.26 0-2.29-4.11-2.94-5.22-7.29-4.17 6.74-4.39 11.06-4.39 11.06l2.07 14.12-5.62-.68c-11.74 11.71-10.41 24.6-10.41 24.6 7.35-21.35 32.32-21.66 32.32-41.84-1.85-1.48-9.73-4.57-9.73-4.57zm-66.65 28.18c8.34 1.85 19.5 8.93 19.5 8.93a17.81 17.81 0 0 0 -3.18-5.78 58.16 58.16 0 0 1 -22.43-13.16l-21.38-11.74s12.76.06 11.62-9.36c-5.53 4.05-16.13 2.47-16.13 6.83 0 4.82 8.4 9.7 24.97 20.21l-25.62-11.74 1.55-1.67-1.76-3.43c-.19 1.3-6.71 1.33-6.71 5.72 0 15.45 54.69 21.2 64.7 35.81 1.21-7.6-13.75-14.83-25.12-20.61zm6.33-124.9-2.87-18.45c-20.36 8.68-17.64 50.43-17.64 50.43l20.7-30.07h19.13c3.31-6.55-.74-16.96 6.58-21.44h-25.21z"/>
<path fill="#fff" d="m91.1 124.5 3.49-1.7-3.83-14.89 1.55-4.6 10.54-4.05 3.03 1.33-.4-4.79s-3-2.9-6.52-2.9c-3.4 0-4.76 2.44-9.42 8.1 0 0-2.69-7.05-13.63-7.05-9.24 0-20.33 4.3-20.33 4.3-1.98 2.69-1.7 8.34 11.65 7.35l-1.92 8.78 7.42 1.05s-9.42 20.77-4.26 25.77c4.91 4.73 9.95 9.8 11.71 9.8 6.86 0 11.22-1.79 12.05-2.66a3.35 3.35 0 0 0 .65-2.32c0-3.83-3.8-4.26-6.83-4.26-6.49 0-8.81 2.26-8.81 2.26l1.24-4.17c.8-3.09 13.91-1.45 13.91-1.45l-.31-4.08-2.6.4-5.5-.87-12.98.37-.62-.49 15.45-2.72 3.37.68 2.9-.71-1.58-1.42-1.7.65-.31-3.4-9.24-1.58 7.29-2.5z"/>
<path fill="#fff" d="m75.84 158.92 8.25 5.62 2.16-7.48-7.2-1.05zm28.52-54.17-2.94.56c-1.21 4.85-4.64 2.84-5.19 1.67l-1.39 5.07 2.32 7.57 1.95 4.14-3.34 2.81 2.6 2.9.9 2.1 3.74-12.36 3.03-4.94c.53-.83-2.47-6.77-2.47-6.77z"/>
<path fill="#bf910c" d="m71.36 43.75 2.81-2.97h-14.52l-12.14 9.8 10.75-12.61h17.61v-5.13h-19.16l-17.15 23.24.8 3.99a36.56 36.56 0 0 1 30.99-16.32zm35.84 48.27-16.72-9.58-33.46 11.4s12.39-3.21 21.54-3.21c9.92 0 11.65 5.35 11.65 5.35s3.06-5.53 7.69-5.53a15.92 15.92 0 0 1 9.46 3.24z"/>
<path fill="#bf910c" d="m115.92 75.21v18.85a37.12 37.12 0 0 1 -10.85 63.75c-6.06 9.89-4.39 15.7-3.62 17.4a53.08 53.08 0 0 0 14.46-99.99zm-14.4 60.81-2.13 5.69 3.31.56zm-41.41-4.79a115.66 115.66 0 0 1 2.75-22.96s-16.75 1.17-13.78-12.98c0 0-3.65 3-6.95 1.7a8.81 8.81 0 0 0 6.3-8.53l1.64 4.97 43.48-17.37 17.12 14.89-.37-6.71c-1.92.71-6.06-2.13-6.06-2.13l.65-.53s2.78 1.42 5.25.4l-.37-6.58-18.85-26.2-4.26 1.61s-9.21-3.89-18.17-3.89c-13.66 0-30.65 13.5-30.65 28.43l9.15.68 24.97-18.54-25.09 24.57s-2.22-4.36-5.41-4.36c-2.22 0-5.59 2.63-5.59 9.08 0 5.07 2.47 7.54 2.47 7.54l-2.94 3.96c2.16 31.73-1.42 34.98-7.94 33.19l12.73 6.15c0-22.22-.83-28.98 1.36-28.98 3.55 0 3.18 22.09 4.14 32.48 0 0 9.18 10.66 27.47 12.42 0-.03-13.04-8.28-13.04-22.31z"/>
<path d="m72.1 80.62-1.3-.8c-8.78 1.67-7.29-1.33-9.42-1.33.83-.83.06-2.47 2.32-4.7l-.22-.28c-5.44 3.24-2.29 5.22-6.03 7.17l.15.34c4.48-1.51 2.84 3.92 14.49-.4z"/>
<path d="m44.57 82.13c2.6 6.46-2.04 10.97-3.92 10.97s-3.03-2.35-3.03-2.35 1.42 4.6 4.26 4.6 8.25-6.8 2.69-13.23zm16.13 2.47a5.64 5.64 0 0 0 -1.7-1.08c-4.97.49-4.23-1.45-5.96-1.39 1.55-1.17-.09-2.13 1.11-3.34l-.22-.25c-4.45 2.5-1.76 4.11-4.36 5.19l.12.31c2.5-.74 2.22 3.34 11 .56zm17.21-9.61-.71-.28c-6.33 2.97-6.33.09-7.6.46.65-1.08-1.24-2.41 3.06-6.52l-.06-.4c-7.45 4.94-3.89 6.86-6.24 9.21l.25.31c2.53-1.64 2.72 2.97 11.31-2.78z"/>
<path d="m100.59 76.63-.53.28c5.28 5.69 5.31 1.73 7.17 3.34l.25-.4c-1.51-2.32.62-4.42-4.23-9.42v.49c2.69 3.55 1.45 5.44 2.26 6.92-1.27-.62-1.51 1.76-4.91-1.21zm-5.65-6.15c-9.05 2.5-9.8-10.78-7.26-13.53-9.98 6.4 2.29 21.54 7.26 13.53zm-38.57-17.92c-16.87 8.37-16.25 20.09-16.25 20.09l5.5.25 10.41-6.8c-7.42 2.04-19.31 1.11.34-13.53zm26.95 16.81-.46-.15c-4.94 2.63-5.25.62-5.99.83.53-1.08-1.7-1.36 1.48-5.44l-.12-.74c-6.95 6.15-1.98 6.33-4.97 8.84l.34.12c2.66-2.16 2.16 2.32 9.73-3.46z"/>
<path d="m137.61 127.31c-.62 3.21-3.24.22-4.7 7.72 1.14.22 2.13-2.32 3.62-2.04 1.45.31 1.45 3.03 2.56 3.24 1.45-7.51-2.1-5.72-1.48-8.93zm-35.32-52.31.22-.28c-1.51-2.63 1.48-3.18-2.66-9.12l-.15.77c1.85 3.89.25 4.73.68 5.62-.68-.19-1.33 1.21-3.65-1.51l-.37.12c3.65 5.9 4.45 2.26 5.93 4.39zm38.1 47.86a2.75 2.75 0 1 1 -2.75-2.75 2.75 2.75 0 0 1 2.75 2.75zm-6.83 19.22c-1.67 2.81-3.15-.9-7.01 5.72.99.59 2.75-1.45 4.08-.71 1.3.77.34 3.34 1.33 3.92 3.89-6.61-.06-6.12 1.61-8.93zm-17.61 15.85c.74.87 3.12-.43 4.08.71.96 1.17-.8 3.24-.06 4.14 5.9-4.88 2.01-5.75 4.54-7.85-2.53 2.1-2.63-1.88-8.56 3z"/>
<path d="m126.3 97.61c3.96 6.58 5.41 2.87 7.08 5.69-1.7-2.81 2.26-2.35-1.67-8.93-.99.59-.06 3.15-1.33 3.92s-3.09-1.27-4.08-.68zm6.4 12.36c1.58 7.51 4.14 4.48 4.85 7.69-.71-3.21 2.9-1.48 1.3-8.99-1.14.25-1.05 3-2.53 3.28-1.45.34-2.5-2.19-3.62-1.98zm-11.03 43.35c.9.74 3.03-.96 4.14 0 1.14.99-.22 3.34.68 4.11 4.97-5.84.99-6.03 3.12-8.53-2.13 2.5-2.94-1.42-7.94 4.42z"/>
<path d="m108.81 161.73c.56 1.02 3.15.19 3.89 1.51.71 1.3-1.42 3.03-.87 4.05 6.74-3.65 3.09-5.25 5.96-6.83-2.87 1.55-2.22-2.38-8.99 1.27zm14.74-71.9c1.82-2.41-7.11-5.47-7.11-5.47s5.25 7.85 7.11 5.47zm6.06 6.98c-2.13-2.47 1.85-2.66-3.12-8.5-.9.74.46 3.12-.65 4.11-1.17.96-3.28-.74-4.17 0 5.01 5.81 5.81 1.92 7.94 4.39zm6.67 37.85c-1.17 3.09-3.24-.31-5.93 6.86 1.05.4 2.47-1.95 3.89-1.42 1.39.56.93 3.24 2.01 3.65 2.69-7.2-1.14-5.99.03-9.08zm-6.27-31.12c2.81 7.14 4.85 3.71 6.06 6.77-1.21-3.06 2.63-1.95-.19-9.08-1.08.43-.56 3.12-1.95 3.68s-2.84-1.79-3.92-1.36z"/>
<path d="m56.5 101.13 14.71 2.04c.46 2.47 4.3 4.79 6.95 1.08l4.02 1.14-3.21 2.53 6.18.83 2.44-4.76-14-5.69zm45.27 66.09s9.46.19 8.56-2.69c-.93-2.87-8.56 2.69-8.56 2.69z"/>
</svg>