<svg id="Layer_1" xmlns="http://www.w3.org/2000/svg" width="180" height="226.01" viewBox="0 0 180 226.01"><defs><style>.cls-1{fill:#001425;}.cls-2{fill:#96d8d8;}.cls-3{fill:#c8102e;}.cls-4{fill:#639fb6;}</style></defs><title>Seattle Kraken logo</title><path class="cls-1" d="M0,190.91c44,3.85,72,16.26,85.56,42,46.55-7.54,89.6-37.39,89.6-75.88,0-51.26-62.12-59.32-63.77-74.26,26.12,9.47,54.88-.49,68.61-33.09-40.58-3-70.29-17.8-83.14-42.78C47.09,15.73,7.27,48,7.27,82.75c0,50.83,65.33,64.29,72.64,75.07C44.26,144.3,13.51,159.7,0,190.91Z" transform="translate(0 -6.87)"/><path class="cls-2" d="M77.25,80.12C71.68,74.46,69.36,70,69.36,64.18c0-6.7,3.22-10,3.22-13.72,0-3.22-2-5.75-5.9-6.52A11.82,11.82,0,0,1,75,40c16.61,0,21.52,36.72,56.18,35.4,12.35-1.18,24-7.18,31.37-17.72C132.28,53.72,104.65,40.86,91.14,19h0c-14,2.55-72.74,22.82-71.25,65.18,1.54,44.17,66.87,56.45,85.15,75.42,14.41,15,4.26,30-5,35.51-14.35-37.31-61.5-40-80.27-13C50,186,77.64,198.87,91.14,220.73c33.39-7,49.5-36.28,43.37-57.4-10.15-35-76-41.1-93.51-73.84C31.66,71.07,39.34,51.41,56.42,40a44.8,44.8,0,0,0-9.77,27.9c1.52,1.65,2.16,5.53,2.18,5.6.22,1.35.62,4.21-.09,6a30.28,30.28,0,0,0,2.85,5.62c2.28.57,4.86,3.55,4.9,3.62,2.52,2.89,2.91,4.71,3,5.4,1.55,1.39,3.22,2.73,5,4,1.47-.17,3.72.54,6,2,2.62,1.71,3.93,3.42,4.3,4.69,1.83,1.07,3.7,2.11,5.62,3.14,1.47-.4,3.89.06,6.31,1.31s4.22,3,4.75,4.38l5.81,2.89c1.46-.43,3.9,0,6.35,1.24s4.15,2.91,4.71,4.33c2,1,4,2.07,5.89,3.13,1.8-.37,4.67.73,6.24,1.66a9.77,9.77,0,0,1,4.37,4.63c2,1.27,3.85,2.58,5.67,3.93,1.53-.07,3.79.81,5.89,2.6,2.27,2,3.44,4.15,3.49,5.66a49.2,49.2,0,0,1,4.3,5.25c1.86.46,3.73,2.61,4.77,4.77,1.44,3.15,1.26,5.36.83,6.51,2.51,7.81,3.18,17.66-.85,29,0,.11-.09.25-.15.4,8.43-9.19,14.13-20.49,13.65-34.06C160.85,111.37,95.53,99.09,77.25,80.12Z" transform="translate(0 -6.87)"/><path class="cls-3" d="M102.32,84.75C94.86,76.17,90.09,60.94,81.86,55,78.17,68.11,85.85,82.44,102.32,84.75Z" transform="translate(0 -6.87)"/><path class="cls-4" d="M96.41,207.94a100.26,100.26,0,0,1-5.27,12.79C77.64,198.86,50,186,19.74,182.07,51,166.39,83.4,182.89,96.41,207.94Zm66.14-150.3c-31.28,15.68-63.66-.82-76.67-25.88A98.78,98.78,0,0,1,91.14,19C77.92,21.38,18.39,41.43,19.89,84.16c1.54,44.17,66.87,56.45,85.15,75.42,14.41,15,4.26,30-5,35.51a121.65,121.65,0,0,1-3.6,12.84c6.8-1.19,27.43-12.11,27.57-33.13.18-29-37.26-36.64-65.63-54.22C35,106.11,30.46,91.76,29.28,82.67c-2.79-21.37,12.3-40.9,34.23-50.1A44.61,44.61,0,0,0,56.42,40a44.85,44.85,0,0,0-9.77,27.91c1.52,1.65,2.16,5.52,2.18,5.6.22,1.35.62,4.21-.09,6A30.51,30.51,0,0,0,51.59,85c2.28.58,4.86,3.56,4.9,3.62,2.52,2.89,2.91,4.72,3,5.41,1.55,1.39,3.22,2.72,5,4,1.47-.17,3.72.55,6,2,2.62,1.72,3.93,3.42,4.3,4.69q2.74,1.6,5.62,3.14c1.47-.4,3.89.06,6.31,1.31s4.22,3,4.75,4.39l5.81,2.88c1.46-.42,3.9,0,6.35,1.25s4.15,2.9,4.71,4.32q3,1.55,5.89,3.13c1.8-.37,4.67.73,6.24,1.67a9.73,9.73,0,0,1,4.37,4.63c2,1.27,3.85,2.58,5.67,3.93,1.53-.07,3.79.81,5.89,2.6,2.27,2,3.44,4.15,3.49,5.65a50.21,50.21,0,0,1,4.3,5.25c1.86.47,3.73,2.62,4.77,4.77,1.44,3.15,1.26,5.36.83,6.51,2.51,7.82,3.18,17.67-.85,29,10.78-18.26,9.74-36.4-2.3-51.72-25.18-32-88.52-35.86-88.28-72.58a31.46,31.46,0,0,1,8.37-20.95A11.78,11.78,0,0,1,75,40c16.61,0,21.52,36.72,56.18,35.4,12.37-1.19,24.05-7.19,31.38-17.72Z" transform="translate(0 -6.87)"/></svg>