<?xml version="1.0" encoding="UTF-8" standalone="no"?>
<svg xmlns:rdf="http://www.w3.org/1999/02/22-rdf-syntax-ns#" xmlns="http://www.w3.org/2000/svg" height="240.92132" width="249.94075" version="1.1" xmlns:cc="http://creativecommons.org/ns#" xmlns:dc="http://purl.org/dc/elements/1.1/" viewBox="0 0 249.94075 240.92132"><path d="M124.159,149.255l53.17325-26.53c36.41746,10.22708,47.21061,24.0393,47.21061,24.0393l20.83155-23.5487c1.13215-1.20763,4.56632-5.472,4.56632-13.2084,0-8.34017-8.71754-14.83116-14.83115-19.2088-10.378-27.20931-67.74025-35.09662-71.96694-44.56893-1.47181-3.28323-9.812-31.587-9.812-31.587C148.34926,0,133.59359,0,128.04606,0c-5.58526,0-17.54831,1.88692-17.54831,1.88692,0,20.41642-2.75489,45.286-5.66075,49.8523a203.12417,203.12417,0,0,1-22.52977,9.81195L53.24874,41.965l7.62314,26.34134C11.92531,95.21374,0,142.12245,0,142.12245s12.56686,98.79887,136.424,98.79887c65.476,0,103.28973-31.66244,103.28973-31.66244L218.618,162.086s-32.22852,16.75581-73.401,16.75581c-37.96474,0-52.79589-17.69927-58.2302-28.00182C119.13983,151.78345,124.159,149.255,124.159,149.255Z" fill="#a7a9ac"/><path d="M230.35459,94.27028c-10.11386-27.32253-65.92882-32.304-72.08016-45.21049-2.49072-5.17014-5.66075-17.51057-10.26482-32.56815C144.31126,5.623,133.40488,5.623,127.97057,5.623a94.01584,94.01584,0,0,0-11.963,1.05667c0,11.1328-2.11335,43.47452-7.28349,49.05979-1.2831,1.585-10.79315,5.43432-21.13345,9.43458l3.09455,2.0756-3.17,3.17-5.96264,5.96265L75.02375,96.83648l-8.52886-4.45312,3.01906,7.58539-15.20853,2.52848,8.60433,2.98132-24.75633,19.0201,6.67968.52833-8.83076,15.9633c12.71782-5.774,16.60486-6.86837,16.60486-6.86837l-3.66062-3.77383,25.662-10.3403S72.684,125.1402,72.684,135.1031a32.7238,32.7238,0,0,0,.717,6.00039c3.17,15.51045,18.30308,47.51252,71.77824,47.51252,38.68176,0,68.53277-13.51031,68.53277-13.51031l13.85,31.02088s-36.30426,25.1337-91.21348,25.1337c-112.23371,0-126.46106-88.23214-126.46106-88.23214,15.47271-41.39893,41.51214-59.5133,58.07925-67.21192l-5.17015-.56608-.45287-1.54727C18.605,97.81768,5.66075,142.53757,5.66075,142.53757S18.98237,235.37379,136.424,235.37379c60.07938,0,96.42136-27.85086,96.42136-27.85086l-16.98224-38.00248s-31.7379,14.86889-70.6461,14.86889c-57.9283,0-66.4949-39.512-66.4949-39.512s32.98328,1.96239,43.55-.868l54.53184-27.24706c36.9458,10.41577,47.588,21.69952,47.588,21.69952l16.90675-19.0201s3.09455-2.90585,3.09455-9.43457c-.03773-6.11361-9.17041-12.26495-14.03866-15.73687ZM111.59215,104.38414,83.93,100.64805,97.85541,92.874ZM106.98807,67.0987,89.81714,94.53444,83.779,80.11841ZM50.192,119.10208,82.30724,97.478,79.892,114.649Z" fill="#003d7d"/><path d="M77.70317,112.98848,79.741,101.32735,58.00377,116.083Zm10.9441-13.09519,18.03891,2.18881L96.08171,95.893ZM87.251,80.87318l2.00013,8.90624,12.71781-17.20866Z" fill="#003d7d"/><path d="M39.05914,126.42331l-6.41551.15095,26.7942-19.96356-11.62339-4.60408L66.83454,98.346l-6.6042-13.35936L71.967,91.66632l4.67955-14.567c-14.11412,4.906-44.418,20.45417-62.004,66.3062,2.11335,10.529,20.4919,83.28844,121.7815,83.28844,43.7387,0,75.66529-16.56712,85.47725-22.37881l-10.45351-23.43549a190.86816,190.86816,0,0,1-66.193,12.18948c-61.58892.03773-77.06162-42.15369-77.06162-58.00377a71.93876,71.93876,0,0,1,.52833-8.90624l-14.15186,4.67954,1.84917,4.00026-11.05731,4.00027-9.51,6.26456,19.322,3.58514-4.00026,13.81222,8.30243-2.453,7.96278,20.26547,9.51006-1.20763,3.17,14.22734s17.9257,12.41591,48.305,15.133c40.11582,3.58514,76.00494-10.11386,76.00494-10.11386s-42.79522,16.79355-81.74115,12.68006c-29.73778-3.13227-49.09754-15.24628-49.09754-15.24628l-.22643-12.831-11.73661.151-5.5098-19.66166-10.45351,4.906,4.60408-17.586-20.039-2.453,4.07574-12.26495,4.755-9.62326Zm41.21023-50.1542,5.81169-7.81183-28.266-19.5107,8.076,23.81287Z" fill="#003d7d"/><path d="M216.61786,96.11945c-23.13358-1.88691-32.11529-9.47231-32.11529-15.435,0-2.86811,2.64168-3.39645,4.41539-3.39645,9.43457,0,24.0393,7.47219,26.41681,13.85-4.15121-4.45312-11.397-8.34017-16.90675-8.34017-1.16988,0-2.41527.33965-2.41527,1.81144,0,3.73609,6.64194,9.58553,30.90768,12.30269-9.28361-26.79419-60.53222-28.68111-72.0424-45.51239-3.20776-4.67955-8.49112-34.56829-13.81221-38.68176-5.84944-4.49086-20.86928-2.453-20.86928-2.453,0,4.15121-1.01894,40.83284-8.60432,48.49372-5.13242,4.30216-13.73674,6.18908-24.03931,11.62339l-5.96264,5.96266L75.06154,96.79875l-8.52886-4.45312,3.01907,7.5854L54.34322,102.4595l8.60433,2.98132-24.75633,19.0201,6.67968.52834-8.83076,15.96329c12.71781-5.774,16.60485-6.86837,16.60485-6.86837l-3.66062-3.77383,25.66205-10.3403s-1.92466,5.13242-1.92466,15.09533a32.724,32.724,0,0,0,.717,6.00038c1.09441-2.11334,21.2844-39.361,64.5325-41.88951L119.8569,113.17716,83.93,140.91481s29.58683,1.24536,36.83259-.83025c22.86941-10.6422,41.17249-20.56737,55.513-27.77539,13.77448-6.9061,23.9261-11.246,30.94541-11.246,8.67981,0,20.71834,8.37791,31.02089,15.47271a5.021,5.021,0,0,0,1.16988-1.66049c2.49072-8.8685-10.378-15.81234-22.79395-18.75593ZM79.892,114.649l-29.7,4.45312L82.30724,97.478ZM106.98809,67.0987,89.81716,94.53445,83.779,80.11842ZM83.93,100.64805,97.85542,92.874l13.73674,11.51018L83.93,100.64805Zm50.19194-45.852c-4.26443.26417-12.90651,3.05681-12.90651,3.05681s7.7741-4.49086,9.3591-6.90611,2.00012-29.62457,2.00012-29.62457,2.49073,26.64324,4.60408,29.32266,9.96291,6.00039,9.96291,6.00039-9.88744-2.03787-13.01971-1.84918Z" fill="#002d56"/><path d="M137.21646,50.6448c-2.11335-2.67942-4.60408-29.32266-4.60408-29.32266s-.41512,27.20931-2.00012,29.62457-9.35909,6.90611-9.35909,6.90611,8.64206-2.83037,12.9065-3.05681c3.13227-.18869,13.05744,1.84918,13.05744,1.84918S139.3298,53.32422,137.21646,50.6448ZM73.401,141.06577c1.09441-1.0944,23.20906-23.13357,46.45585-27.8886l18.11439-14.00091C94.72314,101.74246,74.53315,138.99017,73.401,141.06577Zm166.91651-30.00195c0-5.50979-7.24576-9.24588-13.3971-14.15186-24.26572-2.71716-30.90768-8.56659-30.90768-12.30269,0-1.47179,1.24536-1.81144,2.41526-1.81144,5.50979,0,12.75554,3.88705,16.90676,8.34017-2.41526-6.34-16.98224-13.85-26.41681-13.85-1.77371,0-4.41539.56608-4.41539,3.39645,0,5.96265,8.98171,13.54805,32.11529,15.435,12.41591,2.94359,25.28466,9.8497,22.79394,18.79367a7.91276,7.91276,0,0,0,.90573-3.84931Zm-45.51239-.03774,9.01947,3.20776a21.24345,21.24345,0,0,0,3.62287-1.81143c.11321-.26418.11321-.45287-.26418-.79251-.26417-.26417-4.30217-1.736-6.79289-2.67942Zm7.58539-2.86811c2.41526.94346,5.73623,2.302,6.0004,2.33978a3.47972,3.47972,0,0,0,1.39633,0c.3019-.07548,2.26429-1.05667,3.69834-1.81143-1.39632-.67929-4.22669-2.00013-6.11361-2.00013a17.7529,17.7529,0,0,0-4.98146,1.47179Zm8.90623,3.13229c-.07548.18869,0,.33964.30191.56607a55.54873,55.54873,0,0,0,5.39657,2.71716,3.31475,3.31475,0,0,0,1.05667-.03774,27.89018,27.89018,0,0,0,2.98133-1.84917l-6.22682-3.35871a22.05149,22.05149,0,0,0-3.50966,1.9624Zm4.41539,4.94371a.69386.69386,0,0,0,.07548-.60382,38.98872,38.98872,0,0,0-5.43432-2.83037,1.85955,1.85955,0,0,0-1.28311.15095c-.41512.18869-2.7549,1.50953-3.62287,1.96239l7.24576,3.28324A24.45793,24.45793,0,0,0,215.71213,116.234Zm8.90625,2.56621a2.84977,2.84977,0,0,0,1.13215-.26418,19.61722,19.61722,0,0,0,2.03788-1.585l-5.58526-3.5474a30.32317,30.32317,0,0,0-2.90586,2.00013,1.69467,1.69467,0,0,0,.3019.60381l5.01919,2.79264Zm2.302.56607c-.151.33964-.18869.45287-.11321.52834.18869.18869,3.09455,2.11334,5.05694,3.43418l2.2643-2.2643-5.17015-3.321A11.246,11.246,0,0,0,226.92041,119.36625Zm-3.20776.94346c.11321-.18869.03773-.41512-.151-.64156-.3019-.26417-4.755-2.67942-5.09467-2.75489a3.46634,3.46634,0,0,0-1.39632.151c-.18869.07548-1.50953.9812-2.71716,1.84918l6.83062,3.17a25.83719,25.83719,0,0,0,2.52847-1.7737Zm1.20763.90572c-.18869.07548-1.4718,1.05666-2.453,1.81143l6.18909,3.81157,2.302-2.52847c-1.88691-1.2831-4.60407-3.17-4.83049-3.2455a2.79916,2.79916,0,0,0-1.20764.151Z" fill="#fff"/><path d="M176.31336,112.34692c33.36066,8.86851,47.588,20.41643,47.588,20.41643l3.54741-4.00026c-1.6605-1.24536-13.96318-9.69875-38.04021-17.58606,7.17028-2.83037,15.85009-6.18907,18.18987-6.18907,5.32109,0,16.2652,6.9061,28.00182,14.60472l2.67941-3.01906c-10.26482-7.0948-22.30332-15.4727-31.02089-15.4727C200.2017,101.10092,190.05011,105.44082,176.31336,112.34692Z" fill="#fff"/></svg>